<svg xmlns="http://www.w3.org/2000/svg" xmlns:xlink="http://www.w3.org/1999/xlink" width="256px" height="256px" viewBox="0 0 256 256" version="1.1">
<g id="surface1">
<rect id="rect" x="0" y="0" width="256" height="256" style="fill:rgb(3.137255%,27.843137%,96.470588%);fill-opacity:1;stroke:none;"/>
<path style=" stroke:none;fill-rule:nonzero;fill:rgb(100%,100%,100%);fill-opacity:1;" d="M 127.601562 49.199219 L 129.398438 49.800781 L 134.398438 52.601562 L 138.800781 55.199219 L 144 58.199219 L 148.800781 61 L 154.398438 64.199219 L 159.199219 67 L 164.800781 70.199219 L 170 73.199219 L 174.800781 76 L 190.398438 85 L 194.800781 87.601562 L 196 88.601562 L 196 167.199219 L 193.800781 168.800781 L 188.398438 171.800781 L 183.601562 174.601562 L 173.199219 180.601562 L 168.398438 183.398438 L 162.800781 186.601562 L 158 189.398438 L 152.398438 192.601562 L 147.601562 195.398438 L 142 198.601562 L 137.199219 201.398438 L 132 204.398438 L 129 206.199219 L 128 206.601562 L 125.199219 205.199219 L 120.398438 202.398438 L 115.199219 199.398438 L 110.398438 196.601562 L 104.800781 193.398438 L 100 190.601562 L 94.398438 187.398438 L 89.601562 184.601562 L 84.398438 181.601562 L 79.601562 178.800781 L 64 169.800781 L 61 168 L 60 167.199219 L 60 88.398438 L 63.601562 86.199219 L 69.199219 83 L 79.601562 77 L 84.398438 74.199219 L 120.800781 53.199219 L 126.601562 49.800781 Z M 127.601562 49.199219 "/>
<path style=" stroke:none;fill-rule:nonzero;fill:rgb(3.137255%,27.843137%,96.470588%);fill-opacity:1;" d="M 127.398438 82.601562 L 129.398438 83 L 134.199219 85.800781 L 139.800781 89 L 150.199219 95 L 156 98.398438 L 161.199219 101.398438 L 166.800781 104.601562 L 167.199219 104.800781 L 167.199219 150.800781 L 165.199219 152 L 160.199219 154.800781 L 155.199219 157.800781 L 150.601562 160.398438 L 145.800781 163.199219 L 140.199219 166.398438 L 135.800781 169 L 130.601562 172 L 128.800781 173 L 127.398438 173 L 124.601562 171.601562 L 119.800781 168.800781 L 104.199219 159.800781 L 99.398438 157 L 94.199219 154 L 89.601562 151.398438 L 88.800781 150.800781 L 88.800781 104.800781 L 93.601562 102.199219 L 99 99 L 104.601562 95.800781 L 109.398438 93 L 115 89.800781 L 125.398438 83.800781 Z M 127.398438 82.601562 "/>
<path style=" stroke:none;fill-rule:nonzero;fill:rgb(100%,100%,100%);fill-opacity:1;" d="M 255.800781 196.199219 L 256 196.199219 L 256 256 L 196.199219 256 L 196.199219 255.800781 L 201.601562 255.199219 L 206.800781 254.199219 L 211.800781 252.800781 L 216.199219 251.199219 L 221 249 L 225 246.800781 L 229.800781 243.601562 L 232.601562 241.398438 L 235.398438 239 L 239.601562 234.800781 L 241.398438 232.601562 L 243.800781 229.601562 L 246.398438 225.601562 L 248.800781 221.398438 L 250.800781 217.199219 L 252.601562 212.398438 L 254 207.601562 L 255 203 L 255.601562 198.601562 Z M 255.800781 196.199219 "/>
<path style=" stroke:none;fill-rule:nonzero;fill:rgb(100%,100%,100%);fill-opacity:1;" d="M 0 196.199219 L 0.199219 196.199219 L 0.800781 201.601562 L 1.800781 206.800781 L 3.199219 211.800781 L 4.800781 216.199219 L 7 221 L 9.199219 225 L 12.398438 229.800781 L 14.601562 232.601562 L 17 235.398438 L 21.199219 239.601562 L 23.398438 241.398438 L 26.398438 243.800781 L 30.398438 246.398438 L 34.601562 248.800781 L 38.800781 250.800781 L 43.601562 252.601562 L 48.398438 254 L 53 255 L 57.398438 255.601562 L 59.800781 255.800781 L 59.800781 256 L 0 256 Z M 0 196.199219 "/>
<path style=" stroke:none;fill-rule:nonzero;fill:rgb(100%,100%,100%);fill-opacity:1;" d="M 196.199219 0 L 256 0 L 256 59.800781 L 255.800781 59.800781 L 255.199219 54.398438 L 254.199219 49.199219 L 252.800781 44.199219 L 251.199219 39.800781 L 249 35 L 246.800781 31 L 243.601562 26.199219 L 241.398438 23.398438 L 239 20.601562 L 234.800781 16.398438 L 232.601562 14.601562 L 229.601562 12.199219 L 225.601562 9.601562 L 221.398438 7.199219 L 217.199219 5.199219 L 212.398438 3.398438 L 207.601562 2 L 203 1 L 198.601562 0.398438 L 196.199219 0.199219 Z M 196.199219 0 "/>
<path style=" stroke:none;fill-rule:nonzero;fill:rgb(100%,100%,100%);fill-opacity:1;" d="M 0 0 L 59.800781 0 L 59.800781 0.199219 L 54.398438 0.800781 L 49.199219 1.800781 L 44.199219 3.199219 L 39.800781 4.800781 L 35 7 L 31 9.199219 L 26.199219 12.398438 L 23.398438 14.601562 L 20.601562 17 L 16.398438 21.199219 L 14.601562 23.398438 L 12.199219 26.398438 L 9.601562 30.398438 L 7.199219 34.601562 L 5.199219 38.800781 L 3.398438 43.601562 L 2 48.398438 L 1 53 L 0.398438 57.398438 L 0.199219 59.800781 L 0 59.800781 Z M 0 0 "/>
</g>
</svg>
