<svg xmlns="http://www.w3.org/2000/svg" xmlns:xlink="http://www.w3.org/1999/xlink" width="256px" height="256px" viewBox="0 0 256 256" version="1.1">
<g id="surface1">
<path style=" stroke:none;fill-rule:nonzero;fill:rgb(1.568627%,27.45098%,98.039216%);fill-opacity:1;" d="M 57 0 L 199 0 L 207.25 1.75 L 212.5 3.25 L 217.25 5 L 222 7.25 L 225.5 9.25 L 230.25 12.5 L 233.5 15.25 L 235.5 17 L 238 19.25 L 239.75 21.25 L 243 25 L 246 29.5 L 248.25 33.25 L 251.25 39.5 L 253 44.5 L 254.5 49.75 L 255.75 56.25 L 256 57.75 L 256 198.25 L 254.5 206 L 252.5 213.25 L 250 219.25 L 247.25 224.5 L 245.5 227.25 L 243 230.75 L 241 233.25 L 238 236.5 L 234.5 240 L 231.75 242.25 L 228 245 L 223.5 247.75 L 219.25 250 L 213 252.5 L 207 254.25 L 200 255.75 L 198.25 256 L 57.75 256 L 49 254.25 L 43.75 252.75 L 39 251 L 32.75 248 L 27.5 244.75 L 24.25 242.25 L 20.75 239.25 L 15.75 234.25 L 13.5 231.5 L 10.25 227 L 7.5 222.25 L 5.5 218.25 L 3.5 213.25 L 2 208.5 L 0.25 200 L 0 198.75 L 0 56.75 L 2 47.5 L 3.75 42 L 5.75 37 L 8.5 31.75 L 11 27.75 L 14.25 23.5 L 17 20.5 L 18.75 18.5 L 22.5 15 L 26.75 11.75 L 30.5 9.25 L 35 6.75 L 39.25 4.75 L 44 3 L 50.5 1.25 Z M 57 0 "/>
<path style=" stroke:none;fill-rule:nonzero;fill:rgb(99.607843%,99.607843%,99.607843%);fill-opacity:1;" d="M 127.5 49.25 L 128.75 49.5 L 133.5 52 L 137.75 54.5 L 141.25 56.5 L 145.5 59 L 147.75 60.25 L 152.5 63 L 156.75 65.5 L 160.25 67.5 L 164.5 70 L 167.25 71.5 L 171.5 74 L 173.75 75.25 L 178.5 78 L 184.75 81.75 L 187.5 83.25 L 190 84.75 L 192.75 86.25 L 195.75 88.25 L 196 88.75 L 196 166.5 L 195.25 167.75 L 189.75 171 L 183.75 174.5 L 171.5 181.5 L 167.25 184 L 163.75 186 L 159.5 188.5 L 154.25 191.5 L 147.75 195.25 L 144.25 197.25 L 138.25 200.75 L 131.75 204.5 L 128.5 206.5 L 127.25 206.25 L 121.25 203 L 116.25 200 L 112.75 198 L 108.5 195.5 L 102 191.75 L 96.75 188.75 L 92 186 L 88 183.75 L 84.25 181.5 L 77.25 177.5 L 71.25 174 L 66 171 L 60.5 167.75 L 60 167.25 L 60 88.5 L 62.5 86.75 L 69.5 82.75 L 75.75 79.25 L 80.75 76.25 L 86.75 72.75 L 93 69.25 L 106.25 61.5 L 120.25 53.5 L 125.25 50.5 Z M 127.5 49.25 "/>
<path style=" stroke:none;fill-rule:nonzero;fill:rgb(1.568627%,27.45098%,98.039216%);fill-opacity:1;" d="M 127.5 82.25 L 129.75 83 L 133.25 85 L 138.25 87.75 L 141.5 89.75 L 145.5 92 L 149 94 L 154.5 97.25 L 158 99.25 L 162.25 101.75 L 167.25 104.75 L 167.25 150.75 L 164.75 152.5 L 159.25 155.5 L 155.5 157.75 L 151.25 160.25 L 144.75 164 L 137.75 168 L 134 170.25 L 129.5 172.75 L 127.75 173.25 L 123.75 171.25 L 120.5 169.25 L 117.5 167.75 L 113.5 165.25 L 110.75 163.75 L 107.25 161.75 L 101.25 158.25 L 94.75 154.5 L 89.5 151.5 L 88.75 151 L 88.75 105 L 89.5 104.25 L 95.25 101 L 100.25 98 L 114.25 90 L 126.25 83 Z M 127.5 82.25 "/>
</g>
</svg>
