<svg xmlns="http://www.w3.org/2000/svg" xmlns:xlink="http://www.w3.org/1999/xlink" width="256px" height="256px" viewBox="0 0 256 256" version="1.1">
  <style>
    #rect {
        fill: #242938;
    }

    @media (prefers-color-scheme: light) {
        #rect {
            fill: #F4F2ED;
        }
    }
  </style>
  <g id="surface1">
    <rect id="rect" x="0" y="0" width="256" height="256" rx="60" style="fill-opacity:1;stroke:none;"/>
    <g transform="translate(16, 16)">
      <g><path style="opacity:1" fill="#e03975" d="M 105.5,-0.5 C 110.167,-0.5 114.833,-0.5 119.5,-0.5C 145.736,1.61409 168.736,11.4474 188.5,29C 179.963,38.5355 171.13,47.7022 162,56.5C 151.246,47.8741 139.079,42.0408 125.5,39C 83.5768,35.7048 55.7434,53.8715 42,93.5C 35.3081,130.276 47.8081,158.443 79.5,178C 109.221,191.007 136.721,187.507 162,167.5C 171.13,176.298 179.963,185.464 188.5,195C 169.837,211.497 148.171,221.33 123.5,224.5C 117.167,224.5 110.833,224.5 104.5,224.5C 75.7979,221.233 51.2979,209.233 31,188.5C 2.24192,153.629 -5.09142,114.629 9,71.5C 27.3677,28.961 59.5344,4.96098 105.5,-0.5 Z"/></g>
      <g><path style="opacity:1" fill="#e03b76" d="M 199.5,56.5 C 208.495,55.6631 212.661,59.6631 212,68.5C 209.367,73.7315 205.201,75.5649 199.5,74C 194.845,71.1034 193.345,66.9367 195,61.5C 196.366,59.6383 197.866,57.9717 199.5,56.5 Z"/></g>
      <g><path style="opacity:1" fill="#e03975" d="M 107.5,87.5 C 126.512,87.3463 136.012,96.6796 136,115.5C 133.244,128.753 125.077,135.753 111.5,136.5C 94.6948,133.523 87.1948,123.523 89,106.5C 91.9911,97.0097 98.1577,90.6764 107.5,87.5 Z"/></g>
      <g><path style="opacity:1" fill="#e03b76" d="M 209.5,87.5 C 218.495,86.6631 222.661,90.6631 222,99.5C 219.367,104.732 215.201,106.565 209.5,105C 202.875,99.1683 202.875,93.3349 209.5,87.5 Z"/></g>
      <g><path style="opacity:1" fill="#e03d77" d="M 182.5,88.5 C 191.495,87.6631 195.661,91.6631 195,100.5C 192.367,105.732 188.201,107.565 182.5,106C 177.845,103.103 176.345,98.9367 178,93.5C 179.193,91.5029 180.693,89.8362 182.5,88.5 Z"/></g>
      <g><path style="opacity:1" fill="#e03c76" d="M 182.5,117.5 C 191.005,116.514 195.171,120.18 195,128.5C 192.86,134.487 188.693,136.654 182.5,135C 177.845,132.103 176.345,127.937 178,122.5C 179.025,120.313 180.525,118.646 182.5,117.5 Z"/></g>
      <g><path style="opacity:1" fill="#e03c76" d="M 209.5,118.5 C 219.859,118.014 223.692,122.681 221,132.5C 217.95,136.13 214.117,137.297 209.5,136C 204.845,133.103 203.345,128.937 205,123.5C 206.366,121.638 207.866,119.972 209.5,118.5 Z"/></g>
      <g><path style="opacity:1" fill="#e03c76" d="M 198.5,150.5 C 208.105,148.939 212.271,152.939 211,162.5C 207.458,168.876 202.624,170.043 196.5,166C 192.161,160.192 192.828,155.025 198.5,150.5 Z"/></g>
    </g>
  </g>
</svg>
