<?xml version="1.0" encoding="UTF-8"?>
<svg xmlns="http://www.w3.org/2000/svg" xmlns:xlink="http://www.w3.org/1999/xlink" width="256px" height="256px" viewBox="0 0 256 256" version="1.1">
<g id="surface1">
<path style=" stroke:none;fill-rule:nonzero;fill:rgb(3.921569%,9.019608%,14.509804%);fill-opacity:1;" d="M 55 2 L 202.5 2 L 207.25 3.25 L 212.75 5.25 L 216.75 7 L 222.5 10.25 L 225.5 12.25 L 228.25 14.25 L 232.25 17.5 L 235.25 20.25 L 237.75 22.75 L 243.25 29.75 L 246.75 35.25 L 249.75 41 L 252 46.75 L 253.75 52.5 L 255.25 59.25 L 256 64 L 256 192.25 L 254.5 200.25 L 253.25 205.25 L 251.25 211.25 L 248.75 217 L 246 222 L 243 226.5 L 240.5 229.75 L 238.25 232.5 L 234.75 236.25 L 234.25 236.25 L 234 237 L 231.25 239.25 L 227.5 242.25 L 224.25 244.5 L 220.5 246.75 L 214.75 249.75 L 208.5 252.25 L 203.25 253.75 L 199.5 254 L 56.5 254 L 52.75 253.75 L 48 252.5 L 40 249.25 L 35.25 246.75 L 30.5 243.75 L 27.5 241.5 L 23.5 238.25 L 17 231.75 L 14.25 228.25 L 11.75 224.75 L 9 220.25 L 6 214.5 L 3.5 208 L 1.75 201.75 L 0.25 194 L 0 192.25 L 0 62.75 L 2 53 L 4.25 45.75 L 6.5 40.5 L 9.75 34.25 L 12.75 29.75 L 15 26.75 L 17.25 24 L 20 21 L 23.25 17.75 L 26.75 15 L 30 12.5 L 34.75 9.5 L 39.75 6.75 L 45.75 4.25 L 49.5 3 L 52.5 2.25 Z M 55 2 "/>
<path style=" stroke:none;fill-rule:nonzero;fill:rgb(98.823529%,99.215686%,99.215686%);fill-opacity:1;" d="M 55 2 L 202.5 2 L 207.25 3.25 L 212.75 5.25 L 216.75 7 L 222.5 10.25 L 225.5 12.25 L 228.25 14.25 L 232.25 17.5 L 235.25 20.25 L 237.75 22.75 L 243.25 29.75 L 246.75 35.25 L 249.75 41 L 252 46.75 L 253.75 52.5 L 255.25 59.25 L 256 64 L 256 192.25 L 254.5 200.25 L 253.25 205.25 L 251.25 211.25 L 248.75 217 L 246 222 L 243 226.5 L 240.5 229.75 L 238.25 232.5 L 234.75 236.25 L 234.25 236.25 L 234 237 L 231.25 239.25 L 227.5 242.25 L 224.25 244.5 L 220.5 246.75 L 214.75 249.75 L 208.5 252.25 L 203.25 253.75 L 199.5 254 L 56.5 254 L 52.75 253.75 L 48 252.5 L 40 249.25 L 35.25 246.75 L 30.5 243.75 L 27.5 241.5 L 23.5 238.25 L 17 231.75 L 14.25 228.25 L 11.75 224.75 L 9 220.25 L 6 214.5 L 3.5 208 L 1.75 201.75 L 0.25 194 L 0 192.25 L 0 62.75 L 2 53 L 4.25 45.75 L 6.5 40.5 L 9.75 34.25 L 12.75 29.75 L 15 26.75 L 17.25 24 L 20 21 L 23.25 17.75 L 26.75 15 L 30 12.5 L 34.75 9.5 L 39.75 6.75 L 45.75 4.25 L 49.5 3 L 52.5 2.25 Z M 125.5 8.5 L 110.5 9.75 L 97 11.25 L 88.75 12.5 L 88 13 L 87.5 25.75 L 87.5 49.75 L 83 50.25 L 72 52 L 60.75 54 L 52 56 L 50.25 56.75 L 50.25 87 L 40.5 89 L 32.5 91 L 25.5 93 L 19 95.5 L 15 97.5 L 11.75 100 L 9.75 102.75 L 8 106.5 L 7 110.25 L 7 120 L 8 125.5 L 9 129.25 L 11.75 136.5 L 14.5 142.25 L 17.75 147.5 L 20 150.25 L 22.75 153.25 L 23.75 154.5 L 25 155.5 L 24.5 156.5 L 22.25 158.25 L 20.5 160.5 L 18.5 164.75 L 17.5 169 L 17.25 170.5 L 17.25 177 L 18.25 182.75 L 20 189.25 L 22.75 196 L 25.75 202 L 29 206.75 L 32 210.25 L 33.75 212.25 L 36.5 214.75 L 39.5 217 L 43.25 219.25 L 47.25 221.25 L 52.25 223.25 L 57.5 224.75 L 64.5 226 L 69.75 226.5 L 78.75 226.5 L 82.25 226.25 L 84.75 226.25 L 88 230.25 L 90.75 233.25 L 93 235.5 L 97.5 238.75 L 101.5 241 L 105 242.75 L 111.25 245 L 113.5 245.75 L 122.5 247.25 L 130.25 247.75 L 136.75 247.5 L 143.25 246.75 L 149.5 245.5 L 155.5 243.75 L 160.75 242 L 167 239.25 L 173 236 L 178 232.75 L 182 229.75 L 185.5 226.75 L 195.25 217 L 197.5 214.25 L 199.5 212.25 L 201.75 209.5 L 205.25 205 L 209.25 199.25 L 212.25 195 L 214.75 191.25 L 217.25 187.25 L 220 183 L 222.75 180 L 229.25 179.25 L 233.75 178 L 237.5 176.5 L 241 174 L 243.75 171.5 L 246 168 L 247.5 164.25 L 247.25 163.25 L 245 162 L 240.25 160.5 L 237 160 L 232.25 160 L 228.75 160.75 L 226.25 161.75 L 224.25 163 L 225.25 160.25 L 225.5 157.75 L 225.5 152.25 L 228 148.25 L 230 145 L 232 141 L 233.75 136.5 L 235.25 130.25 L 236 125 L 236 113.75 L 235 103.25 L 233 87.75 L 232.75 80 L 233.75 79.5 L 236.5 77.5 L 238.75 75.25 L 241.25 72 L 243.25 68.25 L 244.75 63 L 245 60.5 L 245 58 L 244.25 54 L 243 50.75 L 242.5 50.5 L 236.5 52.5 L 232.5 54.75 L 230 56.75 L 227.25 59.5 L 225 63.75 L 225 64.5 L 224.25 63.75 L 222.75 61.25 L 220.5 58.75 L 217.5 55.75 L 213 53.25 L 209.5 52 L 208.75 51.75 L 206.25 51.75 L 205.5 52.75 L 205.25 53.5 L 205 57.25 L 205 63.5 L 205.75 67.75 L 206.5 70.5 L 207.75 73.5 L 209.25 75.75 L 211.5 78.25 L 214 80.25 L 215.75 81 L 217.5 81.5 L 220 81.25 L 219 83.25 L 216.75 86 L 214.25 88.5 L 210.75 90.75 L 208 92 L 199 95 L 198.75 13.5 L 195.75 12.75 L 188 12 L 172.5 10.75 L 149.25 9.25 L 138.75 8.75 L 131 8.5 Z M 125.5 8.5 "/>
<path style=" stroke:none;fill-rule:nonzero;fill:rgb(41.960784%,63.921569%,98.431373%);fill-opacity:1;" d="M 241.25 51.75 L 242.5 52 L 242.75 53.25 L 242.75 59.75 L 241.75 64 L 240 68.25 L 237.75 72 L 237.25 72 L 236.75 73 L 234 76 L 232.25 78 L 231.5 79 L 231.5 83 L 232.75 92 L 234.25 105.25 L 234.5 108.5 L 234.5 119.5 L 233.5 127.25 L 232.25 132.5 L 230.5 137.5 L 228.5 142 L 225.25 147.25 L 222.75 150.75 L 222.25 150.75 L 221.75 151.75 L 219 154.75 L 215 158.75 L 213.25 160.25 L 208.5 163.75 L 204.25 166.5 L 198.25 170.25 L 194.75 172 L 192.25 173 L 190 174 L 184.75 175.75 L 179.25 177 L 175.75 177.75 L 165.25 178.75 L 159 178.75 L 150 177.5 L 141.5 175.5 L 136.5 173.5 L 132.5 171.5 L 129 169.5 L 125.75 167 L 123 164.75 L 120.75 162.5 L 117.5 158.25 L 115 154.5 L 112 148.75 L 109.75 143 L 109.5 141.5 L 111.75 141.75 L 117 143.75 L 119.25 144.5 L 121.5 144.75 L 136.25 144.75 L 143 143.5 L 149.25 141.75 L 155.75 139.25 L 161.5 136.75 L 164.25 135.25 L 166.75 133.5 L 162 135.75 L 158 137.75 L 153 139.75 L 146.25 142 L 140 143.5 L 134.75 144.25 L 122.5 144.25 L 119 143.75 L 114.25 142.5 L 111.25 141.25 L 109.5 140.75 L 108.75 139.75 L 107.25 132.25 L 107.25 125.25 L 108.25 120.75 L 110 116.75 L 111.25 114.75 L 115.25 115 L 118 115.5 L 122 115.5 L 128 114 L 156.25 107.5 L 185 101.5 L 194.75 99.25 L 198.25 98.5 L 199 96.75 L 200.75 96 L 206.25 94.25 L 210.25 92.5 L 215 89 L 217.5 86.5 L 219.5 83.75 L 220.5 82.25 L 221 80.5 L 218.5 79.75 L 214.5 77.75 L 213 76.5 L 210.75 73.5 L 209.25 71 L 207.75 67 L 207 64.25 L 206.5 61.5 L 206.5 53.25 L 207.5 53 L 211.25 54.25 L 215.5 56.5 L 218.75 59 L 220.25 60.25 L 222 62.5 L 223.5 65.25 L 224.25 67 L 224.5 68.75 L 225 69 L 225.5 66.25 L 226.75 63.25 L 228.5 60 L 230 58.25 L 231.25 57.75 L 231.25 57.25 L 232.5 56.75 L 232.5 56.25 L 236 54 L 238 53 Z M 241.25 51.75 "/>
<path style=" stroke:none;fill-rule:nonzero;fill:rgb(41.960784%,63.921569%,98.431373%);fill-opacity:1;" d="M 223.75 153.75 L 224 153.75 L 224 157.25 L 223.5 163.75 L 223 164.75 L 222.5 165 L 222.25 165.75 L 223.5 164.75 L 224.5 163.75 L 226.5 162.75 L 231 161.25 L 232.25 161 L 236.75 161 L 242.75 162 L 245.5 163 L 246.25 163.75 L 246 165.25 L 245 167.25 L 242 170.75 L 239.25 173 L 235.25 175 L 230 176.5 L 226.75 177.25 L 222.25 177.75 L 220.75 178.5 L 219.5 179.5 L 216.75 183.25 L 215 186 L 213.25 188.5 L 211.25 191.5 L 208 196 L 201 205.5 L 197.5 209.75 L 195.5 212.25 L 192 216 L 189 219 L 188.75 219.5 L 188.25 219.5 L 188.25 220 L 186.25 221.75 L 183.25 224.75 L 180.75 226.75 L 177.5 229.25 L 172.5 232.5 L 169 234.5 L 163 238 L 160.5 239 L 156 240.75 L 151.5 242 L 147.25 243 L 143.75 243.75 L 134 244.5 L 128.5 244.5 L 121.75 244 L 115.75 243 L 109.5 241.25 L 104.5 239.5 L 99 236.75 L 95 234 L 91.5 231 L 88 227.5 L 86.25 225.25 L 86.25 224.75 L 85.75 224.75 L 82.75 219.75 L 80.25 215 L 78 209 L 77.75 207 L 80 207.75 L 85.25 209.75 L 89.25 210.75 L 92 211 L 100.5 211 L 104 210.75 L 111 209.5 L 118.75 207.25 L 123.5 205.5 L 126.75 204 L 129.75 202.75 L 133.75 200.5 L 136 199 L 136.5 199 L 136.5 198.5 L 131.75 201 L 127.75 203 L 123 205 L 117.5 207 L 111.75 208.75 L 105.25 210 L 101.5 210.5 L 92.75 210.5 L 88.5 210 L 81.5 208.25 L 78 206.75 L 77 205.5 L 76 201.5 L 75.5 198.25 L 75.5 191.5 L 76.25 187.25 L 77.5 184 L 80 180 L 82.25 178 L 86.25 176 L 90.25 174.75 L 93 175 L 98.75 176 L 103.25 176.5 L 109.5 176.75 L 116.75 176.25 L 123.75 175.25 L 129.25 174 L 131.75 174 L 136.5 176.25 L 142.5 178.5 L 146.25 179.5 L 150.25 180.25 L 155.5 181 L 162 181.25 L 169.75 181.25 L 172.25 180.75 L 177.75 180 L 185.75 178 L 194.25 175 L 196.25 174.75 L 202.75 174.75 L 209.25 173.75 L 211.5 172.75 L 211.25 171.75 L 209.5 169 L 208.75 167.25 L 210.5 165.75 L 213.75 163.5 L 215.75 161.5 L 217.75 159.75 Z M 223.75 153.75 "/>
<path style=" stroke:none;fill-rule:nonzero;fill:rgb(78.431373%,87.058824%,98.823529%);fill-opacity:1;" d="M 26 156.25 L 27.25 156.75 L 30 158.5 L 33.5 160.75 L 37.75 163 L 44.75 165.25 L 48.75 166.25 L 54.5 167.25 L 59.5 167.75 L 69.75 167.75 L 74.75 167.25 L 78 169.25 L 82.75 171.75 L 84.75 172.25 L 88.75 173.5 L 88.75 174 L 85.75 175.75 L 82.25 177.5 L 79.25 179.75 L 77.25 183 L 75.75 186.75 L 75 190.5 L 74.75 193.75 L 74.75 196.5 L 75.25 201.75 L 76.25 206 L 79 214.25 L 81.25 219.25 L 82.5 222 L 82.5 223 L 77.5 223.25 L 70.5 223.25 L 63 222.5 L 56.75 221.25 L 51.75 219.75 L 45.25 217.25 L 41 215 L 37.75 212.5 L 34.25 209.5 L 31.75 207 L 30.75 205.75 L 30.75 205 L 29.75 204.5 L 29.75 203.75 L 29 203.5 L 28.5 202.75 L 28.5 202 L 28 202 L 28 201.25 L 27.5 201.25 L 24.5 196 L 22.25 191 L 21 187.75 L 20.5 185.5 L 19.75 184 L 19 181.25 L 18 175.75 L 18 171.5 L 19.5 165 L 20.5 162.75 L 22 159.75 L 24.25 157.5 Z M 26 156.25 "/>
<path style=" stroke:none;fill-rule:nonzero;fill:rgb(26.27451%,77.647059%,99.215686%);fill-opacity:1;" d="M 52.25 57.75 L 54.25 57.75 L 68.75 60 L 79.75 62 L 87.75 63.5 L 105.75 67.25 L 116 69.25 L 119.75 70 L 120 70.25 L 120 114.25 L 118 114 L 111.5 112.5 L 99.5 110 L 92.5 108.25 L 86 106.75 L 76.5 104.5 L 65.25 101.75 L 56.75 100 L 52.5 99.25 L 52.25 99 L 52 96.25 L 52 58 Z M 52.25 57.75 "/>
<path style=" stroke:none;fill-rule:nonzero;fill:rgb(26.27451%,77.647059%,99.215686%);fill-opacity:1;" d="M 91.5 13.75 L 94 14.25 L 104 15.25 L 117.25 16.5 L 151.25 19 L 158 19.75 L 159.5 20.25 L 159.5 31.5 L 158.75 61 L 158.5 61.25 L 155.75 61 L 135.5 58 L 123 56.25 L 113 54.75 L 106.5 53.75 L 90 51 L 89.25 50.5 L 89.25 14.25 L 89.5 14 Z M 91.5 13.75 "/>
<path style=" stroke:none;fill-rule:nonzero;fill:rgb(78.823529%,87.058824%,98.823529%);fill-opacity:1;" d="M 167.5 133 L 168 133 L 168.25 143.75 L 168.75 150.5 L 169.75 154.75 L 171.75 159.75 L 174 163 L 176 164.75 L 179.75 166.75 L 183 167.75 L 188.75 169 L 198 170 L 198 170.5 L 194.75 172 L 192.25 173 L 190 174 L 184.75 175.75 L 179.25 177 L 175.75 177.75 L 165.25 178.75 L 159 178.75 L 150 177.5 L 141.5 175.5 L 136.5 173.5 L 132.5 171.5 L 129 169.5 L 125.75 167 L 123 164.75 L 120.75 162.5 L 117.5 158.25 L 115 154.5 L 112 148.75 L 109.75 143 L 109.5 141.5 L 111.75 141.75 L 117 143.75 L 119.25 144.5 L 121.5 144.75 L 136.25 144.75 L 143 143.5 L 149.25 141.75 L 155.75 139.25 L 161.5 136.75 L 164.25 135.25 L 166.25 134 L 167 133.75 Z M 167.5 133 "/>
<path style=" stroke:none;fill-rule:nonzero;fill:rgb(78.823529%,87.058824%,98.823529%);fill-opacity:1;" d="M 135.5 199.5 L 136 199.5 L 136 202.5 L 135.25 209.25 L 135.25 212.75 L 136.25 218.25 L 137.75 222.75 L 139.75 226.5 L 142 229.25 L 144.25 231.25 L 146.75 232.75 L 151.5 234.5 L 158.75 236.25 L 162.5 237.25 L 163 237.5 L 163 238 L 160.5 239 L 156 240.75 L 151.5 242 L 147.25 243 L 143.75 243.75 L 134 244.5 L 128.5 244.5 L 121.75 244 L 115.75 243 L 109.5 241.25 L 104.5 239.5 L 99 236.75 L 95 234 L 91.5 231 L 88 227.5 L 86.25 225.25 L 86.25 224.75 L 85.75 224.75 L 82.75 219.75 L 80.25 215 L 78 209 L 77.75 207 L 80 207.75 L 85.25 209.75 L 89.25 210.75 L 92 211 L 100.5 211 L 104 210.75 L 111 209.5 L 118.75 207.25 L 123.5 205.5 L 126.75 204 L 129.75 202.75 L 133.75 200.5 Z M 135.5 199.5 "/>
<path style=" stroke:none;fill-rule:nonzero;fill:rgb(78.431373%,87.058824%,98.823529%);fill-opacity:1;" d="M 105.5 133 L 106.75 133 L 107.5 137.75 L 109 143.25 L 110.5 147.5 L 112.25 151.5 L 114.25 155.5 L 116.25 159 L 116.75 159.75 L 116.75 160.5 L 117.75 161 L 122.25 166.5 L 125.75 170 L 127.25 171.25 L 127.25 171.75 L 123 172.5 L 115.25 173.5 L 112.25 173.75 L 104 173.75 L 95.75 172.75 L 90 171.5 L 83.25 169.25 L 77.5 166.5 L 74.25 164.5 L 71.75 162.5 L 68 159 L 65.5 156.5 L 63.25 153.75 L 60.5 149.25 L 57.5 143.5 L 55.5 138.5 L 55 136.5 L 56.5 136.75 L 61.5 138.75 L 64.5 139.75 L 70.5 140.5 L 78 140.5 L 84.5 139.75 L 89.75 138.5 L 94 137.25 L 100 135.25 L 103.75 133.75 Z M 105.5 133 "/>
<path style=" stroke:none;fill-rule:nonzero;fill:rgb(41.960784%,63.921569%,98.431373%);fill-opacity:1;" d="M 48.5 88.5 L 50.5 88.5 L 50.75 88.75 L 51.25 99.75 L 51.5 100 L 54.75 100.5 L 63.25 102.75 L 64.5 103.25 L 64 104.25 L 61.5 105.75 L 58.5 107.25 L 56.25 109.5 L 54.5 112.25 L 53.25 115 L 52.75 116.25 L 52 120.5 L 51.75 127 L 47.25 128.5 L 42.5 129.75 L 36.5 130.75 L 34.25 131 L 25 131 L 19.5 130.25 L 13.5 128.5 L 10.5 127.25 L 9.75 126.25 L 8.75 122.75 L 8.25 119.5 L 8.25 110.5 L 9.25 106.5 L 11.25 102.5 L 12.75 100.5 L 15 98.5 L 17.5 97 L 24.75 94.25 L 35 91.5 L 44.75 89.25 Z M 48.5 88.5 "/>
<path style=" stroke:none;fill-rule:nonzero;fill:rgb(0.784314%,48.235294%,73.333333%);fill-opacity:1;" d="M 158 63.25 L 158.75 63.25 L 159 76.5 L 159.25 93.25 L 159.25 105.25 L 156 106.25 L 143.25 109.25 L 136.25 111 L 130 112.5 L 121.25 114.75 L 121 114.25 L 121 106.5 L 121.5 71 L 122.75 70.25 L 124.5 70 L 134.25 68 L 152.75 64.5 Z M 158 63.25 "/>
<path style=" stroke:none;fill-rule:nonzero;fill:rgb(0.784314%,48.627451%,73.72549%);fill-opacity:1;" d="M 196.25 56.75 L 197.25 56.75 L 197.5 58.5 L 197.75 63.25 L 198 76.75 L 198 96.75 L 196.25 97.25 L 187.5 99 L 180.5 100.5 L 166.5 103.75 L 160.25 105 L 160 104.75 L 160 67 L 160.25 63.25 L 161.75 62.75 L 173.5 60.75 L 187.75 58.25 L 194.25 57 Z M 196.25 56.75 "/>
<path style=" stroke:none;fill-rule:nonzero;fill:rgb(41.960784%,63.921569%,98.431373%);fill-opacity:1;" d="M 66.25 104 L 68.25 104.25 L 83.75 108 L 90.75 109.75 L 93.5 110.25 L 102.25 112.25 L 109.25 113.75 L 110 114 L 109.75 115 L 107.5 120.75 L 106.75 123.25 L 106.25 125.25 L 106.25 131.75 L 105 132.5 L 98.75 135 L 92 137.25 L 85.5 138.75 L 79 139.75 L 69.75 139.75 L 63 138.75 L 57.75 137 L 55 135.75 L 54.25 134.25 L 53.25 129.25 L 53 128.75 L 52.75 125.75 L 52.75 122.25 L 53.25 118.5 L 54.25 114.75 L 56 111.25 L 57.5 109 L 59 107.75 L 62 106 L 65.75 104.5 Z M 66.25 104 "/>
<path style=" stroke:none;fill-rule:nonzero;fill:rgb(0.784314%,48.627451%,73.72549%);fill-opacity:1;" d="M 195.75 14.75 L 197 14.75 L 197 55.75 L 193 56.5 L 184 57.75 L 161 61.75 L 160 61.75 L 160 37 L 160.25 30.25 L 160.25 26.5 L 160.5 21 L 160.75 20.25 L 167.5 19.25 L 174.25 18.5 L 190 16 Z M 195.75 14.75 "/>
<path style=" stroke:none;fill-rule:nonzero;fill:rgb(41.960784%,63.921569%,98.431373%);fill-opacity:1;" d="M 26 156.25 L 27.25 156.75 L 30 158.5 L 33.5 160.75 L 37.75 163 L 44.75 165.25 L 48.75 166.25 L 54.5 167.25 L 59.5 167.75 L 69.75 167.75 L 74.75 167.25 L 78 169.25 L 82.75 171.75 L 84.75 172.25 L 88.75 173.5 L 88.75 174 L 85.75 175.75 L 82.5 176.75 L 77 179.75 L 68.5 184 L 64.5 185.5 L 60.75 186.75 L 58 187.5 L 56 188.25 L 50.5 189.5 L 47.25 190 L 44.25 190.25 L 37.25 190.25 L 32.75 190 L 26.5 188.25 L 22.5 187 L 20.75 186.5 L 20.25 185 L 19.5 183 L 19 181.25 L 18 175.75 L 18 171.5 L 19.5 165 L 20.5 162.75 L 22 159.75 L 24.25 157.5 Z M 26 156.25 "/>
<path style=" stroke:none;fill-rule:nonzero;fill:rgb(3.921569%,9.019608%,14.117647%);fill-opacity:1;" d="M 231.5 78.75 L 231.75 79.25 L 231.5 80.25 L 232.75 80 L 233 87.75 L 235 103.25 L 236 113.75 L 236 125 L 235 131.5 L 233.75 136.5 L 231.5 142 L 229.75 145.5 L 227.25 149.5 L 225.5 152.25 L 225.5 157.75 L 225 161.25 L 224.25 163 L 227.25 161.25 L 230.5 160.25 L 232.25 160 L 237 160 L 240.25 160.5 L 245.75 162.25 L 247.5 163.5 L 247.25 165 L 245.75 168.5 L 243.5 171.75 L 240.5 174.5 L 237 176.75 L 232.25 178.5 L 227.75 179.5 L 222.75 180 L 220.75 182 L 219 184.5 L 216 189.25 L 213.75 192.75 L 210.5 197.5 L 207.5 201.75 L 205 205.25 L 201.75 209.5 L 198.5 213.25 L 195.5 216.5 L 193.75 218.5 L 184.5 227.75 L 181.75 230 L 177 233.5 L 172 236.5 L 166.5 239.5 L 160.75 242 L 153.25 244.5 L 146.25 246.25 L 139.5 247.25 L 131.5 247.75 L 125.25 247.5 L 119.25 246.75 L 113.5 245.75 L 106.25 243.25 L 102.25 241.5 L 98.75 239.5 L 95.75 237.5 L 92.5 235 L 88.75 231.25 L 86 227.75 L 84.75 226.25 L 82.25 226.25 L 78.75 226.5 L 69.75 226.5 L 64.5 226 L 57.5 224.75 L 52.25 223.25 L 46.5 221 L 41 218 L 37.5 215.5 L 34.25 212.75 L 32.25 210.75 L 30 208 L 27.75 205 L 25.25 201 L 22.5 195.5 L 19.75 188.5 L 18 181.5 L 17.25 177 L 17.25 170.5 L 18.25 165.75 L 19.25 163 L 21 159.75 L 23 158.25 L 24 157.75 L 22.5 159.5 L 21.25 161.5 L 20 164.25 L 19 168 L 18.25 171.5 L 18.25 175.75 L 19.25 181.75 L 20.25 184.75 L 21 186.25 L 21.5 188.25 L 23.5 193.25 L 25.5 197.5 L 27.5 200.75 L 27.5 201.25 L 28 201.25 L 28 202 L 28.5 202 L 29.25 203.5 L 29.75 203.75 L 30.25 204.75 L 30.75 205 L 31.5 206.25 L 33.75 208.75 L 37 211.75 L 41.5 215 L 45.75 217.25 L 52.25 219.75 L 57.75 221.25 L 63 222.25 L 70.5 223 L 82.5 223 L 81.25 219.75 L 79.25 215.5 L 77 209.25 L 75.5 204 L 74.75 199.75 L 74.5 196.5 L 74.5 193.75 L 75 188.75 L 76.25 184.75 L 78.25 180.75 L 79.25 179.5 L 82.75 177 L 86 175.25 L 86.5 175.5 L 86.25 176.25 L 82 178.5 L 80 180.25 L 77.75 184 L 76.5 187.25 L 75.75 191.5 L 75.75 198.25 L 76.5 202.5 L 77.25 205.5 L 78.5 206.75 L 82.5 208.25 L 88.5 209.75 L 92.75 210.25 L 101.5 210.25 L 108.25 209.25 L 113.5 208 L 121.75 205.25 L 129 202.25 L 133.25 200 L 136 198.5 L 136.5 198.5 L 136.5 199 L 133.75 200.75 L 129.75 203 L 124.5 205.25 L 120.25 207 L 113.75 209 L 108.5 210.25 L 104 211 L 100.5 211.25 L 92 211.25 L 87.75 210.75 L 84 209.5 L 78.75 207.5 L 77.75 207 L 79 211.25 L 81.25 216.5 L 83.25 220.25 L 85.75 224.25 L 85.75 224.75 L 86.25 224.75 L 88.75 228 L 92.5 231.75 L 96 234.5 L 99.5 236.75 L 105.75 239.75 L 112 241.75 L 117 243 L 121.75 243.75 L 128.5 244.25 L 134 244.25 L 143.75 243.5 L 149.75 242.25 L 153.25 241.25 L 157.25 240 L 162 238.25 L 166.5 235.75 L 172.5 232.25 L 176.75 229.5 L 179.75 227.25 L 184 223.75 L 187.75 220 L 188.25 220 L 188.25 219.5 L 188.75 219.5 L 189.25 218.5 L 194 213.75 L 195.75 211.75 L 197.75 209.25 L 201 205.25 L 208 195.75 L 211 191.5 L 213 188.5 L 214.75 186 L 217.75 181.5 L 220 178.75 L 221.5 177.75 L 224.75 177.25 L 229 176.5 L 234.5 175 L 237 174 L 238.25 173.25 L 240.5 171.75 L 241.25 171.5 L 241.5 170.75 L 242.75 169.75 L 245.25 166.5 L 246 164.5 L 245.75 163.5 L 243.75 162.5 L 238.5 161.5 L 236.75 161.25 L 232.25 161.25 L 228.5 162.25 L 225.25 163.5 L 224.25 164.25 L 223.75 164.25 L 223.25 165.25 L 222.25 165.75 L 222.5 164.75 L 223 164.75 L 223.5 161.5 L 223.75 157.25 L 223.75 154 L 216.25 161.5 L 214.25 163.25 L 211.75 165.25 L 209.25 167 L 209 167.5 L 210.75 170.5 L 211.75 172 L 211.5 173 L 209.25 174 L 202.75 175 L 195.25 175 L 184.75 178.5 L 177.75 180.25 L 171.25 181.25 L 169.75 181.5 L 159.5 181.5 L 153.5 181 L 152.25 180.75 L 152.25 180.5 L 154.75 180.5 L 156 180.75 L 161.75 180.75 L 163 180.5 L 167.25 180 L 168.25 179.25 L 169 179.5 L 169.5 179.75 L 170.25 179 L 158 179 L 157.75 178.5 L 165.25 178.5 L 175.75 177.5 L 182.5 176 L 185.25 175.25 L 190.75 173.5 L 193.75 172 L 197 170.75 L 202 167.75 L 208.5 163.5 L 213.5 159.75 L 214 159.75 L 214.5 158.75 L 216.5 157 L 220.75 152.75 L 222.25 150.75 L 222.75 150.75 L 223.25 149.5 L 225.5 146.5 L 228.5 141.5 L 230.25 137.5 L 232 132.5 L 233.25 127.25 L 234.25 119.5 L 234.25 108.5 L 233.25 98.5 L 231.5 84.5 L 231.25 81.25 L 231.25 79 Z M 231.5 78.75 "/>
<path style=" stroke:none;fill-rule:nonzero;fill:rgb(78.431373%,86.666667%,98.823529%);fill-opacity:1;" d="M 10.5 127.75 L 13 128.5 L 16.75 130 L 19.75 131 L 24 131.75 L 34 131.75 L 41 130.75 L 47.25 129.25 L 50.25 128.25 L 52 128 L 52.75 131.25 L 53.5 135.5 L 55 139.5 L 57 144.75 L 59 149.25 L 61 152.75 L 63.75 157 L 63.75 157.75 L 64.25 157.75 L 66.5 160.5 L 69.25 163.5 L 69.25 164 L 69.75 164 L 69.75 164.75 L 69.25 165 L 59.75 165 L 54.5 164.5 L 46.5 163 L 42.75 162 L 38.25 160.5 L 33 158 L 29 155.5 L 25.5 152.5 L 23.5 150.75 L 21.25 148.5 L 18 144.25 L 15.25 139.5 L 12.5 134 L 10.75 129.5 Z M 10.5 127.75 "/>
<path style=" stroke:none;fill-rule:nonzero;fill:rgb(47.45098%,82.352941%,99.215686%);fill-opacity:1;" d="M 86.5 51.25 L 88.75 51.25 L 103.25 53.75 L 116 56 L 133.25 58.5 L 151.75 61 L 157 62 L 156.75 62.5 L 138 66.25 L 124.25 69.25 L 121 69.5 L 113.25 68 L 87.25 62.75 L 78.25 61 L 65.25 58.75 L 55.5 57.25 L 55.5 56.5 L 57 56 L 70 53.75 Z M 86.5 51.25 "/>
<path style=" stroke:none;fill-rule:nonzero;fill:rgb(47.058824%,82.352941%,99.215686%);fill-opacity:1;" d="M 124.75 9.75 L 140 9.75 L 160.5 11 L 170.25 11.75 L 177.5 12.25 L 192 13.5 L 192 14.25 L 178 16.5 L 164.5 18.75 L 162 19 L 157.75 19 L 149.75 18.25 L 128.25 16.75 L 115.25 15.75 L 92 13.75 L 92 13.25 L 96.75 12.5 L 108.25 11.25 L 122.25 10 Z M 124.75 9.75 "/>
<path style=" stroke:none;fill-rule:nonzero;fill:rgb(4.313725%,8.235294%,12.54902%);fill-opacity:1;" d="M 152 183.5 L 155.25 183.75 L 158.75 184.75 L 161 186.25 L 163 188.25 L 164.75 191.5 L 164.75 197 L 163.75 199.5 L 162.75 200.75 L 161 202.75 L 158.5 204.5 L 155.75 205.75 L 153.25 206.25 L 149.75 206.25 L 146 205 L 142.5 202.75 L 141.25 201.25 L 140.25 199 L 140 197.25 L 140 194.75 L 140.5 192.75 L 142.25 189.5 L 144.25 187.25 L 144.75 187.25 L 144.75 186.75 L 147.75 184.75 L 149.5 184 Z M 152 183.5 "/>
<path style=" stroke:none;fill-rule:nonzero;fill:rgb(4.313725%,7.45098%,11.372549%);fill-opacity:1;" d="M 183.25 117.75 L 187.5 117.75 L 190 118.5 L 192.5 120.25 L 192.75 121 L 193.75 121.5 L 195.25 123.5 L 196.25 125.5 L 196.5 126.75 L 196.5 130.25 L 195.5 133.25 L 194 135.25 L 192.75 136.5 L 191 138 L 187 140 L 185.75 140.25 L 181.5 140.25 L 178.25 139.5 L 175.5 138 L 173.75 136.25 L 172.25 133.25 L 172 132.25 L 172 128.75 L 173 125.5 L 174.75 122.75 L 177 120.5 L 179 119 L 181.75 118 Z M 183.25 117.75 "/>
<path style=" stroke:none;fill-rule:nonzero;fill:rgb(3.921569%,9.411765%,14.509804%);fill-opacity:1;" d="M 231.5 78.75 L 231.75 79.25 L 231.5 80.25 L 232.75 80 L 233 87.75 L 235 103.25 L 236 113.75 L 236 125 L 235 131.5 L 233.75 136.5 L 231.5 142 L 229.75 145.5 L 227.25 149.5 L 225.5 152.25 L 225.5 157.75 L 225 161.25 L 224.25 163 L 227.25 161.25 L 230.5 160.25 L 232.25 160 L 237 160 L 240.25 160.5 L 245 162 L 245 162.75 L 242.75 162.25 L 236.75 161.25 L 232.25 161.25 L 228.5 162.25 L 225.25 163.5 L 224.25 164.25 L 223.75 164.25 L 223.25 165.25 L 222.25 165.75 L 222.5 164.75 L 223 164.75 L 223.5 161.5 L 223.75 157.25 L 223.75 154 L 216.25 161.5 L 214.25 163.25 L 211.75 165.25 L 209.25 167 L 209 167.5 L 210.75 170.5 L 211.75 172 L 211.5 173 L 209.25 174 L 202.75 175 L 195.25 175 L 184.75 178.5 L 177.75 180.25 L 171.25 181.25 L 169.75 181.5 L 159.5 181.5 L 153.5 181 L 152.25 180.75 L 152.25 180.5 L 154.75 180.5 L 156 180.75 L 161.75 180.75 L 163 180.5 L 167.25 180 L 168.25 179.25 L 169 179.5 L 169.5 179.75 L 170.25 179 L 158 179 L 157.75 178.5 L 165.25 178.5 L 175.75 177.5 L 182.5 176 L 185.25 175.25 L 190.75 173.5 L 193.75 172 L 197 170.75 L 202 167.75 L 208.5 163.5 L 213.5 159.75 L 214 159.75 L 214.5 158.75 L 216.5 157 L 220.75 152.75 L 222.25 150.75 L 222.75 150.75 L 223.25 149.5 L 225.5 146.5 L 228.5 141.5 L 230.25 137.5 L 232 132.5 L 233.25 127.25 L 234.25 119.5 L 234.25 108.5 L 233.25 98.5 L 231.5 84.5 L 231.25 81.25 L 231.25 79 Z M 231.5 78.75 "/>
<path style=" stroke:none;fill-rule:nonzero;fill:rgb(96.862745%,97.647059%,99.215686%);fill-opacity:1;" d="M 183.75 118 L 186.5 118 L 189.75 119.25 L 192.5 121.25 L 194.25 123.75 L 195.25 126.25 L 195.5 128.75 L 195 131.75 L 193.75 134 L 192 136 L 189.5 137.75 L 187.25 138.75 L 184.25 139.25 L 181.5 139.25 L 178.5 138.5 L 176.5 137.5 L 174.5 135.75 L 173.25 133.75 L 172.75 131.5 L 172.75 129 L 173 127.5 L 173.75 127.75 L 174.5 130.5 L 175.75 132 L 175.75 132.5 L 178 133.25 L 180.5 133.25 L 183 132.5 L 185.5 130.75 L 187.25 128.75 L 187.75 127 L 187.75 124 L 187 122 L 185.75 120.5 L 182 119.25 L 182.25 118.5 Z M 183.75 118 "/>
<path style=" stroke:none;fill-rule:nonzero;fill:rgb(96.078431%,97.254902%,99.215686%);fill-opacity:1;" d="M 151 184.25 L 153.25 184.5 L 157 185 L 159.5 186.5 L 161.5 188.5 L 163 191.5 L 163.25 192.25 L 163.25 196.75 L 162.5 198.75 L 161 201 L 158.5 203 L 156 204.25 L 154.5 204.75 L 152.25 205 L 149.75 205 L 146.75 204.25 L 144.75 203.25 L 143.25 202 L 141.75 199.5 L 141.25 197.5 L 141.25 193.5 L 141.75 194 L 142.75 196.75 L 144 198.25 L 145.75 199.25 L 148.25 199.25 L 151.5 198.25 L 153.5 197 L 154.75 195.5 L 155.75 193.5 L 155.75 189.25 L 155 187.75 L 153.75 186.5 L 152.75 186 L 150.5 185.75 L 150 185.5 L 150.25 184.5 Z M 151 184.25 "/>
<path style=" stroke:none;fill-rule:nonzero;fill:rgb(0.784314%,48.627451%,73.72549%);fill-opacity:1;" d="M 152.75 68.5 L 154.75 68.5 L 155 96.75 L 155 103 L 153.25 103.75 L 151 104.25 L 149.5 104.25 L 149.5 93 L 149.75 70.75 L 150.25 69 Z M 152.75 68.5 "/>
<path style=" stroke:none;fill-rule:nonzero;fill:rgb(0.784314%,48.627451%,73.72549%);fill-opacity:1;" d="M 168.25 22.5 L 168.75 22.5 L 169 23 L 168.75 44.5 L 168.25 56.75 L 165 57.5 L 163.25 57.5 L 163.25 53.5 L 163.75 31.25 L 164 23.5 L 164.5 23 Z M 168.25 22.5 "/>
<path style=" stroke:none;fill-rule:nonzero;fill:rgb(0.784314%,48.627451%,73.72549%);fill-opacity:1;" d="M 167.25 65.5 L 168.25 65.75 L 168.5 84.5 L 168.5 99.75 L 166.75 100.5 L 164.25 101.25 L 163.5 101.25 L 163.5 80 L 163.75 66.5 L 164.25 66 Z M 167.25 65.5 "/>
<path style=" stroke:none;fill-rule:nonzero;fill:rgb(3.921569%,9.019608%,14.509804%);fill-opacity:1;" d="M 217.5 85.5 L 217.75 86.5 L 214.75 89.5 L 210.25 92.75 L 206.25 94.5 L 200.75 96.25 L 199 97 L 198.5 98.5 L 197 99 L 187.25 101.25 L 170.75 104.75 L 156.25 107.75 L 122.75 115.5 L 121.5 115.75 L 121.25 114.75 L 123.25 114 L 132.75 111.5 L 140.5 109.75 L 149.75 107.5 L 158.75 105.25 L 159.25 105.25 L 159.5 102.25 L 160 102.25 L 160.25 104.75 L 166.5 103.5 L 182.5 99.75 L 197.75 96.75 L 198 96 L 198.25 93.25 L 198.75 93 L 199 95 L 208 92 L 212 90 L 214.75 88 L 217 85.75 Z M 217.5 85.5 "/>
<path style=" stroke:none;fill-rule:nonzero;fill:rgb(16.470588%,52.941176%,82.352941%);fill-opacity:1;" d="M 88.5 109.5 L 92.75 110 L 96.75 111 L 109.25 113.75 L 110 114 L 109.75 115 L 107.5 120.75 L 106.75 123.25 L 106.25 125.25 L 105.25 124.25 L 103.25 121.5 L 101 118.75 L 97.75 115.75 L 94.5 113.25 L 92 111.25 L 88.5 109.75 Z M 88.5 109.5 "/>
<path style=" stroke:none;fill-rule:nonzero;fill:rgb(3.921569%,9.019608%,14.117647%);fill-opacity:1;" d="M 243 58.5 L 243.5 59 L 243 62.75 L 242.5 64.25 L 242.75 64.75 L 242.25 64.75 L 242.5 65.25 L 243.5 64.75 L 244 63.75 L 244.25 62.25 L 244.5 62.25 L 244.5 64 L 243.25 68.25 L 241.25 72 L 239.25 74.5 L 237 77 L 235 78.75 L 233.25 80 L 231.5 80.25 L 231.75 78.25 L 233.5 76.5 L 235.5 74 L 236 74 L 236.5 73 L 237.25 72 L 237.75 72 L 238.25 70.75 L 240.25 67.25 L 241.5 64 L 242.5 59.75 Z M 243 58.5 "/>
<path style=" stroke:none;fill-rule:nonzero;fill:rgb(1.568627%,18.823529%,33.72549%);fill-opacity:1;" d="M 154.75 67.25 L 155.75 67.25 L 155.75 74.75 L 155.5 103.5 L 151 104.75 L 149.25 105 L 149 92.75 L 149 72.25 L 149.25 68.75 L 151.25 68 Z M 152.75 68.5 L 150.25 69 L 149.75 70.75 L 149.5 93 L 149.5 104.25 L 152.25 104 L 154.75 103.25 L 155 103 L 155 96.75 L 154.75 68.5 Z M 152.75 68.5 "/>
<path style=" stroke:none;fill-rule:nonzero;fill:rgb(35.686275%,59.215686%,93.333333%);fill-opacity:1;" d="M 142.5 178.75 L 145 179.25 L 150.25 180.25 L 155.5 181 L 162 181.25 L 169.75 181.25 L 172.25 180.75 L 177.5 180.25 L 177 180.75 L 175 181.25 L 171.5 181.75 L 170.25 182.25 L 163 182.25 L 162 182.5 L 161.25 182.5 L 160.75 183.5 L 160.5 185.75 L 159.25 185.25 L 156.5 184.25 L 151 183.25 L 149.5 182.75 L 149.5 182.25 L 148.25 182 L 147.5 181.25 L 146.75 181.25 L 146.75 180.75 L 145.25 180.5 L 144.25 180.25 L 144.25 179.75 L 143 179.5 L 143 179 Z M 142.5 178.75 "/>
<path style=" stroke:none;fill-rule:nonzero;fill:rgb(3.529412%,10.196078%,16.470588%);fill-opacity:1;" d="M 183.25 117.75 L 187.5 117.75 L 190 118.5 L 192.5 120.25 L 192.75 121 L 193.75 121.5 L 195.25 123.5 L 196.25 125.5 L 196.5 126.75 L 196.5 130.25 L 195.5 133.25 L 194 135.25 L 192.75 136.5 L 191 138 L 187 140 L 185.75 140.25 L 181.5 140.25 L 178.25 139.5 L 175.5 138 L 173.75 136.25 L 172.25 133.25 L 172 132.25 L 172 128.75 L 173 128 L 173 131.5 L 173.5 133.75 L 175.25 136.25 L 177.25 137.75 L 180 138.75 L 181.5 139 L 184.25 139 L 187.25 138.5 L 190.75 136.75 L 193 134.75 L 194.5 132.25 L 195 130.75 L 195.25 127.25 L 194.25 124.25 L 192.75 122 L 191.5 120.75 L 189.25 119.25 L 186.5 118.25 L 183.75 118.25 L 182.5 118.5 L 181.75 118 Z M 183.25 117.75 "/>
<path style=" stroke:none;fill-rule:nonzero;fill:rgb(1.568627%,17.647059%,32.156863%);fill-opacity:1;" d="M 168 21.75 L 169.5 21.75 L 169.25 35.25 L 168.75 57.25 L 166.75 57.75 L 163.75 58.25 L 162.5 58.25 L 162.5 50.5 L 163.25 22.5 Z M 168.25 22.5 L 164.5 23 L 164 23.5 L 163.75 31.25 L 163.25 53.5 L 163.25 57.5 L 166.5 57.25 L 168.25 56.75 L 168.75 44.5 L 169 23 L 168.75 22.5 Z M 168.25 22.5 "/>
<path style=" stroke:none;fill-rule:nonzero;fill:rgb(3.137255%,11.764706%,19.607843%);fill-opacity:1;" d="M 136 198.5 L 136.5 198.5 L 136.5 199 L 133.75 200.75 L 129.75 203 L 124.5 205.25 L 120.25 207 L 113.75 209 L 108.5 210.25 L 104 211 L 100.5 211.25 L 92 211.25 L 87.75 210.75 L 84 209.5 L 78.75 207.5 L 77.75 207 L 77.5 207.5 L 77.75 206.5 L 81 207.75 L 86.25 209.25 L 90 210 L 92.75 210.25 L 101.5 210.25 L 108.25 209.25 L 113.5 208 L 121.75 205.25 L 129 202.25 L 133.25 200 Z M 136 198.5 "/>
<path style=" stroke:none;fill-rule:nonzero;fill:rgb(3.529412%,9.803922%,16.078431%);fill-opacity:1;" d="M 166.5 133.25 L 167 133.5 L 165 135 L 161.5 137 L 155.25 139.75 L 149.25 142 L 143 143.75 L 136.25 145 L 121.5 145 L 119.25 144.75 L 117 144 L 111 141.75 L 109.75 141.5 L 110 141 L 111.75 141.25 L 115.75 142.75 L 120.25 143.75 L 122.5 144 L 134.75 144 L 140 143.25 L 146.25 141.75 L 153.75 139.25 L 159.25 137 L 164 134.5 Z M 166.5 133.25 "/>
<path style=" stroke:none;fill-rule:nonzero;fill:rgb(3.529412%,11.764706%,19.215686%);fill-opacity:1;" d="M 103.25 133 L 103.75 133.25 L 103.75 134 L 97.75 136.25 L 92.5 138 L 88 139.25 L 83 140.25 L 78 140.75 L 70.5 140.75 L 64.5 140 L 60.25 138.5 L 55.75 136.75 L 54.75 136.75 L 54.75 136.25 L 56 136 L 59.75 137.5 L 63 138.5 L 69.75 139.5 L 79 139.5 L 85.5 138.5 L 92.75 136.75 L 99.5 134.5 Z M 103.25 133 "/>
<path style=" stroke:none;fill-rule:nonzero;fill:rgb(2.745098%,13.333333%,23.921569%);fill-opacity:1;" d="M 176.5 20.5 L 177.5 20.5 L 177.75 21.5 L 177.75 26.75 L 177.5 36 L 177.25 36 L 177 21.5 L 172.75 22 L 172.25 22.25 L 171.75 41 L 171.5 56 L 176.25 55.25 L 177 55 L 177 55.75 L 173.75 56.5 L 170.75 57 L 170.5 56.75 L 170.5 51.25 L 171 25.75 L 171.25 21.5 L 173 21 Z M 176.5 20.5 "/>
<path style=" stroke:none;fill-rule:nonzero;fill:rgb(1.568627%,18.823529%,34.117647%);fill-opacity:1;" d="M 145.75 69 L 147 69 L 147 105.5 L 146.5 106 L 142 107 L 140.25 107 L 140.5 88.25 L 141.25 88.25 L 141.5 89.25 L 141.25 106.25 L 146.25 105.25 L 146.25 69.75 L 142.25 70.75 L 141.5 70.75 L 141.25 71.25 L 141.5 70.25 L 142.25 69.75 Z M 145.75 69 "/>
<path style=" stroke:none;fill-rule:nonzero;fill:rgb(94.117647%,96.078431%,99.215686%);fill-opacity:1;" d="M 207 168.25 L 208 168.5 L 210.25 171.75 L 211 172.25 L 211 172.75 L 207.25 173.75 L 205.5 174 L 199.5 174.25 L 197.75 173.75 L 197.75 173.25 L 202 171 L 204.75 169.5 Z M 207 168.25 "/>
<path style=" stroke:none;fill-rule:nonzero;fill:rgb(3.529412%,10.588235%,17.647059%);fill-opacity:1;" d="M 50.25 127.25 L 51.25 127.5 L 52 128 L 48.75 129 L 44.5 130.25 L 38 131.5 L 34 132 L 24 132 L 18.75 131 L 13.5 129 L 11 128 L 11.5 127.5 L 17.5 129.5 L 22.5 130.5 L 25 130.75 L 34.25 130.75 L 39.5 130 L 44.5 129 L 48.75 127.75 Z M 50.25 127.25 "/>
<path style=" stroke:none;fill-rule:nonzero;fill:rgb(3.137255%,12.941176%,21.176471%);fill-opacity:1;" d="M 78.5 178 L 79.25 178 L 79 178.75 L 68.5 184 L 64.5 185.5 L 60.75 186.75 L 58 187.5 L 56 188.25 L 50.5 189.5 L 47.25 190 L 44.25 190.25 L 37.25 190.25 L 32.75 190 L 26.5 188.25 L 25.75 187.75 L 27.75 188 L 31 188.75 L 36.25 189.25 L 43.75 189.25 L 50.75 188.5 L 53.75 187.75 L 56 187.25 L 59.5 186.25 L 62 185.5 L 63.75 184.75 L 68 183.25 L 72 181.5 L 74.75 180 Z M 78.5 178 "/>
<path style=" stroke:none;fill-rule:nonzero;fill:rgb(1.568627%,19.215686%,34.509804%);fill-opacity:1;" d="M 138 70.5 L 139 70.75 L 139 107.5 L 136.75 108.25 L 132.5 109 L 132.25 108.5 L 132.5 92 L 132.75 92 L 132.75 108.25 L 138 107 L 138.25 98.75 L 138 71.75 L 135.5 72 L 133.25 72.75 L 133 76.25 L 132.75 91 L 132.5 91 L 132.5 72 L 133 71.5 Z M 138 70.5 "/>
<path style=" stroke:none;fill-rule:nonzero;fill:rgb(3.529412%,10.588235%,17.647059%);fill-opacity:1;" d="M 225 152.5 L 225.5 153.25 L 225.5 157.75 L 225 161.25 L 224.25 163 L 227.25 161.25 L 230.5 160.25 L 232.25 160 L 237 160 L 240.25 160.5 L 245 162 L 245 162.75 L 242.75 162.25 L 236.75 161.25 L 232.25 161.25 L 228.5 162.25 L 225.25 163.5 L 224.25 164.25 L 223.75 164.25 L 223.25 165.25 L 222.25 165.75 L 222.5 164.75 L 223 164.75 L 223.5 161.5 L 223.75 157.25 L 223.75 154 L 223.5 153.5 L 224.25 153.5 L 224.5 154.5 L 224.75 153.25 Z M 225 152.5 "/>
<path style=" stroke:none;fill-rule:nonzero;fill:rgb(1.568627%,18.823529%,34.117647%);fill-opacity:1;" d="M 130 72.25 L 130.5 72.25 L 130.5 106.25 L 130.25 106.25 L 130 73.5 L 127.25 73.75 L 125 74 L 124.75 110.25 L 129.5 109.25 L 130 109 L 130.25 107.75 L 130.5 107.75 L 130.5 109.5 L 129 110.25 L 124.5 111 L 124.25 110.75 L 124.25 73.75 L 125 73.25 Z M 130 72.25 "/>
<path style=" stroke:none;fill-rule:nonzero;fill:rgb(3.137255%,10.980392%,19.215686%);fill-opacity:1;" d="M 38.5 215 L 39.25 215.25 L 39.5 215.75 L 40.75 216.25 L 41.25 217 L 43.5 217 L 44 217.75 L 44.5 218 L 45.75 218 L 45.75 218.5 L 46.75 218.75 L 48.5 219.5 L 50.75 220.25 L 52 221 L 52 221.5 L 54.25 221.75 L 56 222.5 L 57.25 222.75 L 58.75 223.75 L 58.75 224.5 L 59.5 225 L 57.5 224.75 L 52.25 223.25 L 46.5 221 L 41 218 L 39.5 217 Z M 38.5 215 "/>
<path style=" stroke:none;fill-rule:nonzero;fill:rgb(1.568627%,19.215686%,34.509804%);fill-opacity:1;" d="M 184.5 19 L 185.75 19 L 185.75 29 L 185.25 29 L 185 20 L 180.25 21 L 180 29.25 L 179.75 54.75 L 185 53.75 L 185.5 53.25 L 185.25 54.5 L 179 55.5 L 179 49.25 L 179.25 20.25 L 181.75 19.5 Z M 184.5 19 "/>
<path style=" stroke:none;fill-rule:nonzero;fill:rgb(25.882353%,75.294118%,97.647059%);fill-opacity:1;" d="M 170.75 12 L 174.75 12 L 192 13.5 L 192 14.25 L 184.5 15.5 L 181.5 15.25 L 180.5 14 L 176.5 14 L 171.5 13 L 169.25 12.5 L 169.25 12.25 Z M 170.75 12 "/>
<path style=" stroke:none;fill-rule:nonzero;fill:rgb(1.960784%,48.627451%,74.117647%);fill-opacity:1;" d="M 51 99.75 L 51.5 100 L 54.75 100.5 L 63.25 102.75 L 64.5 103.25 L 64 104.25 L 61.5 105.75 L 60.25 106.25 L 58.5 105.75 L 58.5 105.25 L 57.5 104.75 L 52.75 101.5 L 51.25 100.75 Z M 51 99.75 "/>
<path style=" stroke:none;fill-rule:nonzero;fill:rgb(33.72549%,58.823529%,92.156863%);fill-opacity:1;" d="M 241.25 51.75 L 242.5 52 L 242.75 53.25 L 242.75 59.75 L 242.5 59.75 L 242 57.25 L 241.75 56.5 L 241.25 56.5 L 240.75 55.25 L 239.5 55 L 234.25 56.5 L 233.25 56.75 L 232.75 57.75 L 230.75 59.25 L 227.75 63 L 227 63.25 L 227.5 61.75 L 229.25 59 L 230.75 57.75 L 231.25 57.75 L 231.25 57.25 L 232.5 56.75 L 232.5 56.25 L 236 54 L 238 53 Z M 241.25 51.75 "/>
<path style=" stroke:none;fill-rule:nonzero;fill:rgb(1.568627%,19.215686%,34.509804%);fill-opacity:1;" d="M 176.5 63.25 L 177.25 63.25 L 177.25 76 L 177 77.75 L 176.75 77.75 L 176.5 69 L 176.5 64.5 L 172.5 65 L 172 65.25 L 171.75 67 L 171.5 74 L 171.5 99.5 L 174.25 99 L 175 99.25 L 173.5 99.75 L 171 100 L 170.75 99.75 L 170.75 73.75 L 171 64.75 L 171.5 64.25 Z M 176.5 63.25 "/>
<path style=" stroke:none;fill-rule:nonzero;fill:rgb(1.568627%,18.823529%,34.117647%);fill-opacity:1;" d="M 168 65 L 168.75 65 L 168.75 100.5 L 167.5 101 L 163.75 101.75 L 163 101.75 L 163.25 66.25 L 163.75 65.75 Z M 167.25 65.5 L 164.25 66 L 163.75 66.5 L 163.5 80 L 163.5 101.25 L 165 101 L 168.25 100 L 168.5 99.75 L 168.5 84.5 L 168.25 65.75 Z M 167.25 65.5 "/>
<path style=" stroke:none;fill-rule:nonzero;fill:rgb(3.137255%,12.156863%,21.176471%);fill-opacity:1;" d="M 193 60.25 L 193.75 60.25 L 193.75 95.5 L 192.5 96 L 188 96.75 L 188 83 L 188.25 83 L 188.75 95.5 L 193.25 95.25 L 193 61.5 L 189 62 L 188.75 64.75 L 188.5 72.75 L 188.25 75.5 L 188 75.5 L 188 61.5 L 189.25 61 Z M 193 60.25 "/>
<path style=" stroke:none;fill-rule:nonzero;fill:rgb(1.568627%,19.215686%,34.509804%);fill-opacity:1;" d="M 192.5 17.75 L 194.5 17.75 L 194 23 L 193.75 29.5 L 193.5 29.5 L 193.5 18.75 L 190 19.25 L 188.75 19.5 L 188.25 43.5 L 188 53.5 L 193 52.5 L 193.75 52.25 L 193.75 53 L 189.75 53.75 L 187.5 54 L 187.75 31.5 L 188 19.5 L 188.25 18.5 Z M 192.5 17.75 "/>
<path style=" stroke:none;fill-rule:nonzero;fill:rgb(30.196078%,57.647059%,90.196078%);fill-opacity:1;" d="M 232.25 161 L 236.75 161 L 242.75 162 L 245.5 163 L 246.25 163.75 L 246 165.25 L 245.25 166.75 L 245 165.75 L 245 164.75 L 244.5 164.75 L 244.25 163.75 L 242.75 163.5 L 239.25 162.75 L 233.5 162.5 L 231 162.75 L 230 163 L 227.5 163.5 L 225.75 163.25 L 226.5 162.75 L 231 161.25 Z M 232.25 161 "/>
<path style=" stroke:none;fill-rule:nonzero;fill:rgb(29.803922%,57.254902%,89.803922%);fill-opacity:1;" d="M 73.75 167.25 L 75.25 167.5 L 78 169.25 L 82.75 171.75 L 84.75 172.25 L 88.75 173.5 L 88.75 174 L 87.25 174 L 86.25 175 L 84 175.25 L 83.75 174.5 L 83.75 173.5 L 84 172.5 L 80.5 172 L 80 172 L 80 171.5 L 78.75 171.5 L 77.75 171 L 77.75 170.5 L 76.5 170.25 L 75.75 170 L 74.75 169 L 73 168.25 L 70 168.5 L 64.25 168.5 L 59.5 168.25 L 59.5 168 L 69.75 167.75 Z M 73.75 167.25 "/>
<path style=" stroke:none;fill-rule:nonzero;fill:rgb(3.137255%,10.980392%,19.607843%);fill-opacity:1;" d="M 210.75 195 L 211.75 195.5 L 210 198.25 L 206.75 202.75 L 204.25 206.25 L 201.75 209.5 L 201 209.25 L 200 209.5 L 200.75 208 L 202.25 205.75 L 203 205.5 L 203.5 204.5 L 204.25 203.25 L 205.5 201.5 L 206 201.5 L 206.25 200.75 L 207 200.25 L 207 199.5 L 208 198.25 L 208.5 197.75 L 209 197.5 L 209.25 196.5 L 210.5 195.75 L 210.25 195.25 Z M 210.75 195 "/>
<path style=" stroke:none;fill-rule:nonzero;fill:rgb(3.137255%,11.764706%,20.784314%);fill-opacity:1;" d="M 168 21.75 L 169.5 21.75 L 169.25 35.25 L 169 44.5 L 168.75 44.5 L 168.75 22.5 L 168.25 22.75 L 164.5 23.25 L 164.25 23.5 L 163.75 38.25 L 163.5 43 L 163.25 43 L 163.25 22.5 Z M 168 21.75 "/>
<path style=" stroke:none;fill-rule:nonzero;fill:rgb(3.529412%,12.156863%,20%);fill-opacity:1;" d="M 91.25 13.5 L 100.75 14.25 L 118 15.75 L 125.75 16.25 L 125.75 16.5 L 122.5 17 L 117.25 16.75 L 104 15.5 L 92.25 14.25 L 91.5 14 L 89.75 14 L 89.75 13.75 Z M 91.25 13.5 "/>
<path style=" stroke:none;fill-rule:nonzero;fill:rgb(1.568627%,19.215686%,34.509804%);fill-opacity:1;" d="M 149.25 68.75 L 150 69.25 L 149.75 93 L 149.75 104 L 152.25 103.75 L 154.75 103.25 L 155 103.75 L 150 105 L 149.25 105 L 149 92.75 L 149 72.25 Z M 149.25 68.75 "/>
<path style=" stroke:none;fill-rule:nonzero;fill:rgb(1.568627%,19.215686%,34.509804%);fill-opacity:1;" d="M 183.75 62 L 185.75 62 L 185.75 65 L 185.25 65.5 L 185.25 62.75 L 180.25 63.75 L 180 65.25 L 179.75 80 L 179.75 97.75 L 183.75 97 L 185 97 L 184.75 97.5 L 180.75 98.25 L 179.25 98.25 L 179.25 63.5 L 179.75 62.75 Z M 183.75 62 "/>
<path style=" stroke:none;fill-rule:nonzero;fill:rgb(2.745098%,12.54902%,22.352941%);fill-opacity:1;" d="M 197.25 56.75 L 197.75 57.75 L 198.25 62 L 198.5 64.5 L 198.5 93 L 198.25 96 L 198 96 L 197.75 76.75 L 197.5 63.25 Z M 197.25 56.75 "/>
<path style=" stroke:none;fill-rule:nonzero;fill:rgb(3.137255%,10.980392%,19.607843%);fill-opacity:1;" d="M 159.75 77 L 160 77 L 160 102.25 L 159.5 102.25 L 159.5 103.75 L 159.25 103.75 L 159 93.25 L 159 78.5 L 159.25 78.5 L 159.5 79.25 Z M 159.75 77 "/>
<path style=" stroke:none;fill-rule:nonzero;fill:rgb(3.529412%,10.980392%,18.823529%);fill-opacity:1;" d="M 86 175.25 L 86.5 175.5 L 86.25 176.25 L 82 178.5 L 80 180.25 L 77.75 184 L 76.5 187.25 L 75.75 191.5 L 75.5 197.5 L 75.25 197.5 L 75 192.25 L 74.75 192.25 L 75 188.75 L 76.25 184.75 L 78.25 180.75 L 79.25 179.5 L 82.75 177 Z M 86 175.25 "/>
<path style=" stroke:none;fill-rule:nonzero;fill:rgb(3.137255%,11.372549%,20%);fill-opacity:1;" d="M 242.5 52.75 L 243 52.75 L 243.5 55.5 L 244 54 L 244.5 55 L 245 58 L 245 60.5 L 244.75 63 L 244.25 63.75 L 243.5 65.25 L 242.75 65.25 L 242.25 65.5 L 242.5 63.5 L 243 61.75 L 243.25 59 L 242.75 59.25 Z M 242.5 52.75 "/>
<path style=" stroke:none;fill-rule:nonzero;fill:rgb(2.745098%,12.156863%,21.960784%);fill-opacity:1;" d="M 168.25 179.25 L 169 179.5 L 171 180.25 L 173.5 180 L 177.75 180 L 177.75 180.25 L 171.25 181.25 L 169.75 181.5 L 159.5 181.5 L 153.5 181 L 152.25 180.75 L 152.25 180.5 L 154.75 180.5 L 156 180.75 L 161.75 180.75 L 163 180.5 L 167.25 180 Z M 168.25 179.25 "/>
<path style=" stroke:none;fill-rule:nonzero;fill:rgb(2.352941%,14.509804%,25.490196%);fill-opacity:1;" d="M 77.75 206.5 L 81 207.75 L 86.25 209.25 L 90 210 L 92.75 210.25 L 101.5 210.5 L 104 210.75 L 104 211 L 100.5 211.25 L 92 211.25 L 87.75 210.75 L 84 209.5 L 78.75 207.5 L 77.75 207 L 77.5 207.5 Z M 77.75 206.5 "/>
<path style=" stroke:none;fill-rule:nonzero;fill:rgb(2.352941%,17.254902%,29.019608%);fill-opacity:1;" d="M 225 152.5 L 225.5 153.25 L 225.5 157.75 L 225 161.25 L 224.25 163 L 225.75 162.5 L 226.5 163 L 224.5 164 L 223.75 164.25 L 223.25 165.25 L 222.25 165.75 L 222.5 164.75 L 223 164.75 L 223.5 161.5 L 223.75 157.25 L 223.75 154 L 223.5 153.5 L 224.25 153.5 L 224.5 154.5 L 224.75 153.25 Z M 225 152.5 "/>
<path style=" stroke:none;fill-rule:nonzero;fill:rgb(2.745098%,11.764706%,21.176471%);fill-opacity:1;" d="M 200.25 210.25 L 201 210.5 L 197.25 214.5 L 195 217.25 L 187.5 224.75 L 186.5 224.25 L 188.5 222.5 L 190.75 220.25 L 191.25 220.25 L 191.25 219.75 L 191.75 219.75 L 192 218.25 L 193.25 217.75 L 194.75 216 L 195.25 214.5 L 196.25 214.25 L 196.5 213.25 L 198 213 L 198.25 212 L 199 211 L 199.5 211 L 199.5 210.5 Z M 200.25 210.25 "/>
<path style=" stroke:none;fill-rule:nonzero;fill:rgb(3.137255%,12.156863%,20.784314%);fill-opacity:1;" d="M 23.5 157.75 L 24 158 L 22.25 159.75 L 20.25 163.5 L 19.25 166.75 L 18.25 171.5 L 18.25 175.75 L 18.5 178.5 L 18 178 L 17.5 172.75 L 17.25 172.75 L 17.25 170.5 L 18.25 165.75 L 19.25 163 L 21 159.75 L 23 158.25 Z M 23.5 157.75 "/>
<path style=" stroke:none;fill-rule:nonzero;fill:rgb(3.137255%,12.941176%,21.568627%);fill-opacity:1;" d="M 166.5 133.25 L 167 133.5 L 165 135 L 161.5 137 L 155.25 139.75 L 149.25 142 L 147.75 142.25 L 148 141.25 L 155.75 138.5 L 159.25 137 L 164 134.5 Z M 166.5 133.25 "/>
<path style=" stroke:none;fill-rule:nonzero;fill:rgb(2.745098%,13.72549%,24.313725%);fill-opacity:1;" d="M 110 141 L 111.75 141.25 L 115.75 142.75 L 120.25 143.75 L 122.5 144 L 133.75 144.25 L 133.75 144.5 L 127 145 L 121.5 145 L 119.25 144.75 L 117 144 L 111 141.75 L 109.75 141.5 Z M 110 141 "/>
<path style=" stroke:none;fill-rule:nonzero;fill:rgb(32.941176%,58.431373%,91.764706%);fill-opacity:1;" d="M 26 156.25 L 27.25 156.75 L 30 158.5 L 32 159.75 L 32 160.25 L 29.5 159.25 L 28.5 158.25 L 28.5 158.75 L 28 158.75 L 28 158.25 L 26 157.75 L 26 158.25 L 25.5 158.25 L 25.5 159 L 24 159.75 L 22.75 161 L 22.25 161 L 22 162 L 20.75 162.75 L 21.25 161 L 22.75 159 L 25 157 Z M 26 156.25 "/>
<path style=" stroke:none;fill-rule:nonzero;fill:rgb(1.960784%,16.078431%,29.411765%);fill-opacity:1;" d="M 138 70.5 L 139 70.75 L 138.5 78.5 L 138.25 78.5 L 138 71.75 L 135.5 72 L 133.25 72.75 L 133 76.25 L 132.75 91 L 132.5 91 L 132.5 72 L 133 71.5 Z M 138 70.5 "/>
<path style=" stroke:none;fill-rule:nonzero;fill:rgb(3.137255%,10.588235%,18.431373%);fill-opacity:1;" d="M 205.25 167.25 L 206.5 167.5 L 207 168.5 L 202.75 171 L 200.75 171.25 L 199.5 172 L 198.5 171.75 L 198.75 171 L 201.75 169.25 L 204.25 167.75 Z M 205.25 167.25 "/>
<path style=" stroke:none;fill-rule:nonzero;fill:rgb(1.568627%,17.254902%,31.372549%);fill-opacity:1;" d="M 176.5 20.5 L 177.5 20.5 L 177.75 21.5 L 177.75 26.75 L 177.5 36 L 177.25 36 L 177 21.5 L 172.75 22 L 172.25 22.25 L 172 30.25 L 171.75 30.25 L 171.5 24.5 L 171.25 24.5 L 171.25 21.5 L 173 21 Z M 176.5 20.5 "/>
<path style=" stroke:none;fill-rule:nonzero;fill:rgb(1.568627%,18.431373%,33.333333%);fill-opacity:1;" d="M 193.25 76 L 193.5 76 L 193.75 95.5 L 192.5 96 L 188 96.75 L 188 83 L 188.25 83 L 188.75 95.5 L 193.25 95.25 Z M 193.25 76 "/>
<path style=" stroke:none;fill-rule:nonzero;fill:rgb(1.568627%,18.431373%,33.72549%);fill-opacity:1;" d="M 140.5 88.25 L 141.25 88.25 L 141.5 89.25 L 141.25 106.25 L 141 106.25 L 140.75 104.5 L 140.5 104.25 Z M 140.5 88.25 "/>
<path style=" stroke:none;fill-rule:nonzero;fill:rgb(1.568627%,18.823529%,34.117647%);fill-opacity:1;" d="M 176.5 63.25 L 177.25 63.25 L 177.25 76 L 177 77.75 L 176.75 77.75 L 176.5 69 L 176.5 64.5 L 172.5 65 L 171.25 65.25 L 171.5 64.25 Z M 176.5 63.25 "/>
<path style=" stroke:none;fill-rule:nonzero;fill:rgb(3.529412%,10.588235%,17.647059%);fill-opacity:1;" d="M 136 198.5 L 136.5 198.5 L 136.5 199 L 133.75 200.75 L 129.75 203 L 124.5 205.25 L 121.75 206.25 L 121.75 205.25 L 129 202.25 L 133.25 200 Z M 136 198.5 "/>
<path style=" stroke:none;fill-rule:nonzero;fill:rgb(1.568627%,19.215686%,34.509804%);fill-opacity:1;" d="M 25.75 187.75 L 27.75 188 L 31 188.75 L 36.25 189.25 L 45.75 189.25 L 45.75 189.5 L 44.25 190 L 44.25 190.25 L 37.25 190.25 L 32.75 190 L 26.5 188.25 Z M 25.75 187.75 "/>
<path style=" stroke:none;fill-rule:nonzero;fill:rgb(1.568627%,19.215686%,34.509804%);fill-opacity:1;" d="M 163 33 L 163.25 33 L 163.5 38.25 L 163.75 38.25 L 163.75 44 L 163.5 53.5 L 163.25 54.75 L 163 54.75 L 162.75 50.25 L 162.75 42.25 Z M 163 33 "/>
<path style=" stroke:none;fill-rule:nonzero;fill:rgb(26.666667%,56.470588%,88.235294%);fill-opacity:1;" d="M 223.75 153.75 L 224 153.75 L 224 157.25 L 223.75 161.5 L 223.5 161.5 L 223.5 157 L 222 157 L 221.75 157.5 L 221 157.75 L 220.25 158.5 L 219.25 159 L 216.75 161.5 L 216.25 161.25 Z M 215.75 161.5 L 216.25 161.75 L 214 164 L 213.5 163.75 Z M 215.75 161.5 "/>
<path style=" stroke:none;fill-rule:nonzero;fill:rgb(1.960784%,15.686275%,27.843137%);fill-opacity:1;" d="M 159.5 20.25 L 159.75 20.25 L 160 25.75 L 160.25 21.25 L 160.5 21.25 L 160.5 30.75 L 160.25 37 L 160 37 L 160 35 L 159.5 35 L 159.5 36.25 L 159.25 36.25 L 159.25 31.5 Z M 159.5 20.25 "/>
<path style=" stroke:none;fill-rule:nonzero;fill:rgb(3.529412%,10.196078%,16.862745%);fill-opacity:1;" d="M 78.5 178 L 79.25 178 L 79 178.75 L 68.5 184 L 64.5 185.5 L 62.5 185.75 L 63.25 185 L 68.5 183 L 72.25 181.25 L 74.75 180 Z M 78.5 178 "/>
<path style=" stroke:none;fill-rule:nonzero;fill:rgb(27.058824%,74.117647%,97.647059%);fill-opacity:1;" d="M 67 54.25 L 68.5 54.25 L 67.5 55 L 62.75 55.75 L 61.25 56.25 L 59.25 56.5 L 59.25 57.75 L 56.75 57.5 L 55.25 57 L 56 56.25 Z M 67 54.25 "/>
<path style=" stroke:none;fill-rule:nonzero;fill:rgb(1.568627%,17.647059%,31.764706%);fill-opacity:1;" d="M 184.5 19 L 185.75 19 L 185.75 29 L 185.25 29 L 185 20 L 180.25 21 L 179.5 21.25 L 179.75 20 Z M 184.5 19 "/>
<path style=" stroke:none;fill-rule:nonzero;fill:rgb(2.352941%,14.901961%,26.27451%);fill-opacity:1;" d="M 224.75 177.25 L 226.75 177.25 L 226 177.75 L 222.75 178 L 221.25 178.25 L 221 179.75 L 220.75 180 L 220.25 181 L 219.75 181 L 219.5 182 L 218.25 182.25 L 217.75 183.25 L 215.75 185.25 L 215.75 184.5 L 217.75 181.5 L 220 178.75 L 221.5 177.75 Z M 224.75 177.25 "/>
<path style=" stroke:none;fill-rule:nonzero;fill:rgb(1.960784%,16.470588%,29.803922%);fill-opacity:1;" d="M 192.5 17.75 L 194.5 17.75 L 194 23 L 193.75 29.5 L 193.5 29.5 L 193.5 18.75 L 190 19.25 L 188.25 19.75 L 188.25 18.5 Z M 192.5 17.75 "/>
<path style=" stroke:none;fill-rule:nonzero;fill:rgb(11.372549%,51.372549%,79.215686%);fill-opacity:1;" d="M 142.5 178.75 L 145 179.25 L 150.25 180.25 L 155.5 181 L 162 181.5 L 161.5 182 L 153 182 L 152.75 181.25 L 150.5 181 L 148 180.5 L 143.75 179.5 L 142.5 179 Z M 142.5 178.75 "/>
<path style=" stroke:none;fill-rule:nonzero;fill:rgb(23.529412%,72.156863%,95.294118%);fill-opacity:1;" d="M 106 11.5 L 107.75 11.5 L 108.75 12 L 107 12.25 L 101.75 12.25 L 101.75 12.75 L 99.25 13.25 L 97.25 13.25 L 97 13.5 L 94.5 13.75 L 92 13.75 L 92 13.25 L 96.75 12.5 Z M 106 11.5 "/>
<path style=" stroke:none;fill-rule:nonzero;fill:rgb(1.568627%,19.215686%,34.509804%);fill-opacity:1;" d="M 69.5 167 L 74.75 167 L 73.75 167.5 L 69.75 168 L 59.5 168 L 54.5 167.5 L 54.5 167.25 L 57.5 167.25 L 60 167.5 L 64 167.5 L 64.25 167.25 Z M 69.5 167 "/>
<path style=" stroke:none;fill-rule:nonzero;fill:rgb(2.352941%,15.294118%,26.666667%);fill-opacity:1;" d="M 211.25 171.75 L 211.75 172 L 211.5 173 L 209.25 174 L 202.75 175 L 196.25 175 L 196.25 174.75 L 200.75 174.25 L 201 174 L 205.5 173.75 L 211 172.75 Z M 211.25 171.75 "/>
<path style=" stroke:none;fill-rule:nonzero;fill:rgb(1.568627%,19.215686%,34.509804%);fill-opacity:1;" d="M 132.5 92 L 132.75 92 L 132.75 108.25 L 138 107 L 138.75 106.25 L 139 107.5 L 136.75 108.25 L 132.5 109 L 132.25 108.5 Z M 132.5 92 "/>
<path style=" stroke:none;fill-rule:nonzero;fill:rgb(1.568627%,19.215686%,34.509804%);fill-opacity:1;" d="M 168 21.75 L 169.5 21.75 L 169.25 35.25 L 169 44.5 L 168.75 44.5 L 168.75 22.5 L 169 22 Z M 168 21.75 "/>
<path style=" stroke:none;fill-rule:nonzero;fill:rgb(3.529412%,10.196078%,18.039216%);fill-opacity:1;" d="M 106 241.25 L 107.25 241.25 L 107.75 241.75 L 109.5 242 L 111.75 243.5 L 112.5 244.5 L 110.5 244.75 L 107.75 243.75 L 107.25 242.5 L 107.5 242 L 106 241.5 Z M 106 241.25 "/>
<path style=" stroke:none;fill-rule:nonzero;fill:rgb(2.745098%,12.941176%,22.745098%);fill-opacity:1;" d="M 91.25 13.5 L 100.75 14.25 L 106 14.75 L 106 15 L 102.25 15.25 L 92.25 14.25 L 91.5 14 L 89.75 14 L 89.75 13.75 Z M 91.25 13.5 "/>
<path style=" stroke:none;fill-rule:nonzero;fill:rgb(2.352941%,14.901961%,26.666667%);fill-opacity:1;" d="M 90.5 210.5 L 101.5 210.5 L 104 210.75 L 104 211 L 100.5 211.25 L 92 211.25 L 90.5 211 Z M 90.5 210.5 "/>
<path style=" stroke:none;fill-rule:nonzero;fill:rgb(1.568627%,19.215686%,34.509804%);fill-opacity:1;" d="M 225 152.5 L 225.5 153.25 L 225.5 157.75 L 225 161.25 L 224.75 161.25 L 224.5 157.25 L 224.25 157.5 L 224 161.25 L 223.75 161.25 L 223.75 154 L 223.5 153.5 L 224.25 153.5 L 224.5 154.5 L 224.75 153.25 Z M 225 152.5 "/>
<path style=" stroke:none;fill-rule:nonzero;fill:rgb(24.313725%,55.686275%,86.666667%);fill-opacity:1;" d="M 206.75 53 L 209 53.5 L 210.25 54 L 210.25 54.25 L 207.75 54.25 L 207.25 57.25 L 207 63 L 206.75 63 L 206.5 61.5 L 206.5 53.25 Z M 206.75 53 "/>
<path style=" stroke:none;fill-rule:nonzero;fill:rgb(33.333333%,58.431373%,92.156863%);fill-opacity:1;" d="M 83.25 172.25 L 85.5 172.5 L 88.75 173.5 L 88.75 174 L 87.25 174 L 86.25 175 L 84 175.25 L 83.75 174.5 L 83.75 173.5 L 84 172.5 Z M 83.25 172.25 "/>
<path style=" stroke:none;fill-rule:nonzero;fill:rgb(2.745098%,12.941176%,23.137255%);fill-opacity:1;" d="M 154.75 67.25 L 155.75 67.25 L 155.5 73 L 155 72.75 L 155 68.5 L 149.75 69.25 L 149.5 69.75 L 149.5 68.5 Z M 154.75 67.25 "/>
<path style=" stroke:none;fill-rule:nonzero;fill:rgb(3.137255%,12.54902%,20.784314%);fill-opacity:1;" d="M 166.5 133.25 L 167 133.5 L 165 135 L 161.5 137 L 157.5 138.75 L 157.25 138.25 L 158 137.5 L 163.25 135 Z M 166.5 133.25 "/>
<path style=" stroke:none;fill-rule:nonzero;fill:rgb(1.568627%,18.823529%,34.117647%);fill-opacity:1;" d="M 231.5 78.75 L 231.75 79.25 L 231.5 80.25 L 232.75 80 L 232.75 86.75 L 232.25 85.75 L 231.75 86 L 231.25 82.25 L 231.25 79 Z M 231.5 78.75 "/>
<path style=" stroke:none;fill-rule:nonzero;fill:rgb(27.45098%,76.470588%,99.215686%);fill-opacity:1;" d="M 152.5 61.25 L 156 61.75 L 157 62.25 L 155.75 62.75 L 152.25 63.25 L 151 62.75 L 151.25 61.5 Z M 152.5 61.25 "/>
<path style=" stroke:none;fill-rule:nonzero;fill:rgb(3.529412%,10.980392%,18.039216%);fill-opacity:1;" d="M 147 141.5 L 148 141.75 L 147.25 142.5 L 143 143.75 L 140.75 144.25 L 139.25 144.25 L 140 143.25 L 146.25 141.75 Z M 147 141.5 "/>
<path style=" stroke:none;fill-rule:nonzero;fill:rgb(29.411765%,57.254902%,89.803922%);fill-opacity:1;" d="M 234 105.25 L 234.25 105.25 L 234.5 108.5 L 234.5 119.5 L 234.25 121.75 L 234 121.75 L 233.75 115.5 L 233.75 110 L 234 109.75 Z M 234 105.25 "/>
<path style=" stroke:none;fill-rule:nonzero;fill:rgb(1.960784%,16.470588%,29.803922%);fill-opacity:1;" d="M 197.25 56.75 L 197.75 57.75 L 198.25 62 L 198 76.75 L 197.75 76.75 L 197.5 63.25 Z M 197.25 56.75 "/>
<path style=" stroke:none;fill-rule:nonzero;fill:rgb(3.529412%,12.54902%,20.392157%);fill-opacity:1;" d="M 121 205.5 L 122 205.75 L 121.5 206.5 L 114.75 208.75 L 114.25 208.75 L 114.25 207.75 Z M 121 205.5 "/>
<path style=" stroke:none;fill-rule:nonzero;fill:rgb(27.843137%,56.862745%,89.019608%);fill-opacity:1;" d="M 143.25 203.25 L 147.25 205.25 L 150.25 206 L 154.75 206 L 154.5 206.5 L 152 207 L 150.25 207 L 148.5 206.25 L 146 205.75 L 144 204.5 L 143.25 204 Z M 143.25 203.25 "/>
<path style=" stroke:none;fill-rule:nonzero;fill:rgb(1.568627%,19.215686%,34.509804%);fill-opacity:1;" d="M 188 61.5 L 188.75 62 L 188.5 72.75 L 188.25 75.5 L 188 75.5 Z M 188 61.5 "/>
<path style=" stroke:none;fill-rule:nonzero;fill:rgb(1.568627%,19.215686%,34.509804%);fill-opacity:1;" d="M 173.5 180 L 177.75 180 L 177.75 180.25 L 171.25 181.25 L 169.75 181.5 L 164.25 181.5 L 162 181.25 L 162 181 L 169.75 180.75 Z M 173.5 180 "/>
<path style=" stroke:none;fill-rule:nonzero;fill:rgb(24.313725%,71.372549%,95.294118%);fill-opacity:1;" d="M 141.25 10 L 144.75 10 L 156.25 10.75 L 156.25 11 L 152.25 11.25 L 150.5 11 L 148 11 L 142.75 10.5 L 140.5 10.5 Z M 141.25 10 "/>
<path style=" stroke:none;fill-rule:nonzero;fill:rgb(3.137255%,12.54902%,20.784314%);fill-opacity:1;" d="M 51.75 188.25 L 52.5 188.5 L 51.75 189.25 L 47.25 190 L 42 190 L 42 189.75 L 45.75 189.25 L 48 188.75 Z M 51.75 188.25 "/>
<path style=" stroke:none;fill-rule:nonzero;fill:rgb(31.372549%,58.039216%,90.980392%);fill-opacity:1;" d="M 244.25 166.75 L 245 167.25 L 242 170.75 L 239.25 173 L 238 173.5 L 238.25 172.75 L 240.5 171 L 241.25 170 L 241.75 170 L 242.25 169 L 243.75 167 Z M 244.25 166.75 "/>
<path style=" stroke:none;fill-rule:nonzero;fill:rgb(2.745098%,13.333333%,23.137255%);fill-opacity:1;" d="M 183.25 117.75 L 187.5 117.75 L 190 118.5 L 192.5 120.25 L 192.75 120.5 L 192.75 121.75 L 191 120.25 L 187.5 118.5 L 186.5 118.25 L 183.75 118.25 L 182.5 118.5 L 181.75 118 Z M 183.25 117.75 "/>
<path style=" stroke:none;fill-rule:nonzero;fill:rgb(2.745098%,12.54902%,21.960784%);fill-opacity:1;" d="M 183.75 62 L 185.75 62 L 185.75 65 L 185.25 65.5 L 185.25 62.75 L 179.75 63.75 L 179.5 64.5 L 179.5 63 L 180.75 62.5 Z M 183.75 62 "/>
<path style=" stroke:none;fill-rule:nonzero;fill:rgb(16.470588%,54.117647%,82.745098%);fill-opacity:1;" d="M 62 103 L 64.5 103.25 L 64 104.25 L 61.5 105.75 L 60.25 106.25 L 59 106 L 60 105.5 L 60.75 104.75 L 61.25 104.5 L 61.25 103.75 Z M 62 103 "/>
<path style=" stroke:none;fill-rule:nonzero;fill:rgb(3.137255%,10.588235%,18.823529%);fill-opacity:1;" d="M 236.75 74.75 L 237.5 75 L 237.25 76 L 237.25 76.75 L 235 78.75 L 234.25 78.5 L 234 77.5 Z M 236.75 74.75 "/>
<path style=" stroke:none;fill-rule:nonzero;fill:rgb(3.137255%,10.980392%,19.215686%);fill-opacity:1;" d="M 185 225 L 186 225.25 L 186.25 226 L 184.5 227.75 L 183.5 228.25 L 182.75 228 L 182.5 226.75 L 183.25 226.5 L 183.25 226 Z M 185 225 "/>
<path style=" stroke:none;fill-rule:nonzero;fill:rgb(2.745098%,13.72549%,24.705882%);fill-opacity:1;" d="M 140.25 104.25 L 141 104.5 L 141 106.25 L 146.5 105 L 147 105 L 146.5 106 L 142 107 L 140.25 107 Z M 140.25 104.25 "/>
<path style=" stroke:none;fill-rule:nonzero;fill:rgb(85.490196%,90.980392%,98.823529%);fill-opacity:1;" d="M 83.25 176.25 L 84 176.5 L 81.25 178.25 L 79.25 179.75 L 78.75 180.5 L 78.25 180.5 L 78.25 180 L 77.25 179.5 L 81.5 177 Z M 83.25 176.25 "/>
<path style=" stroke:none;fill-rule:nonzero;fill:rgb(8.235294%,50.588235%,77.647059%);fill-opacity:1;" d="M 71.5 167.5 L 73.75 167.5 L 73 168 L 70 168.5 L 64.25 168.5 L 59.5 168.25 L 59.5 168 L 69.75 167.75 Z M 71.5 167.5 "/>
<path style=" stroke:none;fill-rule:nonzero;fill:rgb(16.470588%,52.941176%,82.352941%);fill-opacity:1;" d="M 51 99.75 L 51.5 100 L 54.75 100.5 L 59.5 101.75 L 59.5 102.5 L 57.75 102.25 L 56.5 101.75 L 54 101.5 L 53 101 L 51.5 101 Z M 51 99.75 "/>
<path style=" stroke:none;fill-rule:nonzero;fill:rgb(3.137255%,12.54902%,20.784314%);fill-opacity:1;" d="M 92.25 51.25 L 97.5 52 L 100.5 52.5 L 99.75 52.75 L 99.75 53.25 L 95.75 52.75 L 92 52 Z M 92.25 51.25 "/>
<path style=" stroke:none;fill-rule:nonzero;fill:rgb(3.137255%,13.333333%,21.568627%);fill-opacity:1;" d="M 103.25 133 L 103.75 133.25 L 103.75 134 L 97.75 136.25 L 97.25 136.25 L 97.25 135.25 Z M 103.25 133 "/>
<path style=" stroke:none;fill-rule:nonzero;fill:rgb(3.137255%,12.156863%,20.392157%);fill-opacity:1;" d="M 62.25 105 L 62.75 105.25 L 62.75 106 L 59.75 107.5 L 57.75 109 L 56.25 110 L 56.25 109.25 L 58.5 107 Z M 62.25 105 "/>
<path style=" stroke:none;fill-rule:nonzero;fill:rgb(33.333333%,58.431373%,91.764706%);fill-opacity:1;" d="M 205 174.5 L 206 174.75 L 205.75 175 L 203.25 175.25 L 202 175.75 L 200.25 176 L 196.25 175.5 L 195.25 175 L 196.25 174.75 L 202.75 174.75 Z M 205 174.5 "/>
<path style=" stroke:none;fill-rule:nonzero;fill:rgb(25.098039%,72.54902%,96.078431%);fill-opacity:1;" d="M 157.25 11 L 160.5 11 L 166.5 11.5 L 166.5 11.75 L 164.75 12 L 157.75 11.75 L 155.75 11.5 L 155.75 11.25 Z M 157.25 11 "/>
<path style=" stroke:none;fill-rule:nonzero;fill:rgb(24.313725%,72.54902%,95.686275%);fill-opacity:1;" d="M 67 54.25 L 68.5 54.25 L 67.5 55 L 62.75 55.75 L 61.25 56.25 L 59.75 56.25 L 60 55.5 Z M 67 54.25 "/>
<path style=" stroke:none;fill-rule:nonzero;fill:rgb(27.45098%,56.470588%,88.627451%);fill-opacity:1;" d="M 213 164 L 213.5 164.25 L 212.75 165.25 L 211.5 166 L 211 166.75 L 210.5 167 L 210.25 168.5 L 210.75 169.75 L 210.5 170.5 L 208.75 167.5 L 209.75 166.25 L 212.75 164.25 Z M 213 164 "/>
<path style=" stroke:none;fill-rule:nonzero;fill:rgb(3.137255%,12.156863%,21.176471%);fill-opacity:1;" d="M 110 141 L 111.75 141.25 L 115.75 142.75 L 120.25 143.75 L 119.25 144 L 119 144.5 L 115.75 143.5 L 111 141.75 L 109.75 141.5 Z M 110 141 "/>
<path style=" stroke:none;fill-rule:nonzero;fill:rgb(3.137255%,11.764706%,21.176471%);fill-opacity:1;" d="M 176.5 63.25 L 177.25 63.25 L 177 65.75 L 176.75 65.75 L 176.75 64.5 L 172.5 65 L 171.25 65.25 L 171.5 64.25 Z M 176.5 63.25 "/>
<path style=" stroke:none;fill-rule:nonzero;fill:rgb(2.745098%,13.333333%,22.745098%);fill-opacity:1;" d="M 75.75 187.5 L 76 187.5 L 76 189.75 L 75.75 191.5 L 75.5 197.5 L 75.25 197.5 L 75 192.25 L 74.75 192.25 L 75 188.75 L 75.25 187.75 Z M 75.75 187.5 "/>
<path style=" stroke:none;fill-rule:nonzero;fill:rgb(3.137255%,12.941176%,21.568627%);fill-opacity:1;" d="M 104 15 L 109.25 15 L 112.5 15.25 L 112.5 15.5 L 111.25 15.5 L 111.25 16 L 106.25 15.75 L 104 15.5 Z M 104 15 "/>
<path style=" stroke:none;fill-rule:nonzero;fill:rgb(2.352941%,15.294118%,27.843137%);fill-opacity:1;" d="M 145.75 69 L 147 69 L 146.75 73.5 L 146.5 73.5 L 146.25 69.75 L 142.25 70.75 L 141.5 70.75 L 141.25 71.25 L 141.5 70.25 L 142.25 69.75 Z M 145.75 69 "/>
<path style=" stroke:none;fill-rule:nonzero;fill:rgb(1.960784%,16.078431%,29.019608%);fill-opacity:1;" d="M 170.5 51.25 L 170.75 51.25 L 171 56 L 173.25 55.75 L 176.25 55.25 L 177 55 L 177 55.75 L 173.75 56.5 L 170.75 57 L 170.5 56.75 Z M 170.5 51.25 "/>
<path style=" stroke:none;fill-rule:nonzero;fill:rgb(2.745098%,14.901961%,25.098039%);fill-opacity:1;" d="M 78.5 178 L 79.25 178 L 79 178.75 L 72 182.25 L 71.25 181.75 L 74.75 180 Z M 78.5 178 "/>
<path style=" stroke:none;fill-rule:nonzero;fill:rgb(1.568627%,19.215686%,34.509804%);fill-opacity:1;" d="M 159.75 89.5 L 160 89.5 L 160 102.25 L 159.5 102.25 L 159.5 103.75 L 159.25 103.75 L 159.25 99.25 L 159.5 99.25 Z M 159.75 89.5 "/>
<path style=" stroke:none;fill-rule:nonzero;fill:rgb(2.352941%,14.901961%,27.058824%);fill-opacity:1;" d="M 179.25 50.25 L 179.5 50.25 L 179.5 54.75 L 185 53.75 L 185.5 53.25 L 185.25 54.5 L 179 55.5 Z M 179.25 50.25 "/>
<path style=" stroke:none;fill-rule:nonzero;fill:rgb(19.607843%,54.117647%,84.313725%);fill-opacity:1;" d="M 8.25 110.5 L 8.5 110.5 L 8.5 117.25 L 9 117.25 L 9 122.25 L 8.5 121.25 L 8.25 119.5 Z M 8.25 110.5 "/>
<path style=" stroke:none;fill-rule:nonzero;fill:rgb(1.568627%,17.647059%,31.764706%);fill-opacity:1;" d="M 130 72.25 L 130.5 72.25 L 130.5 73.75 L 128.75 73.5 L 124.5 74.25 L 124.5 73.5 L 127.5 72.75 Z M 130 72.25 "/>
<path style=" stroke:none;fill-rule:nonzero;fill:rgb(3.137255%,15.686275%,25.098039%);fill-opacity:1;" d="M 126.75 203.25 L 127.25 203.5 L 126.25 204.5 L 122 206.25 L 121.75 205.25 Z M 126.75 203.25 "/>
<path style=" stroke:none;fill-rule:nonzero;fill:rgb(4.313725%,8.235294%,12.941176%);fill-opacity:1;" d="M 242.5 50.5 L 243.25 51.25 L 244 53.25 L 243.75 56 L 243.25 55.5 L 242.75 52.75 L 242.5 51.75 L 241 51.5 L 241.75 50.75 Z M 242.5 50.5 "/>
<path style=" stroke:none;fill-rule:nonzero;fill:rgb(23.921569%,70.196078%,94.117647%);fill-opacity:1;" d="M 96.75 12.5 L 98.5 12.5 L 98.25 13 L 97 13.5 L 94.5 13.75 L 92 13.75 L 92 13.25 Z M 96.75 12.5 "/>
<path style=" stroke:none;fill-rule:nonzero;fill:rgb(2.352941%,16.078431%,28.235294%);fill-opacity:1;" d="M 25.75 187.75 L 27.75 188 L 31 188.75 L 33.75 189 L 33.75 189.5 L 34.25 189.75 L 31.75 189.75 L 25.75 188 Z M 25.75 187.75 "/>
<path style=" stroke:none;fill-rule:nonzero;fill:rgb(2.745098%,13.333333%,22.745098%);fill-opacity:1;" d="M 86 175.25 L 86.5 175.5 L 86.25 176.25 L 82 178.5 L 81.25 179 L 81 178.25 L 83.25 176.75 Z M 86 175.25 "/>
<path style=" stroke:none;fill-rule:nonzero;fill:rgb(25.882353%,74.901961%,97.647059%);fill-opacity:1;" d="M 143 60 L 146 60.25 L 147.75 60.5 L 145.75 61.5 L 142.5 60.75 L 142 60.25 Z M 143 60 "/>
<path style=" stroke:none;fill-rule:nonzero;fill:rgb(30.588235%,57.647059%,90.196078%);fill-opacity:1;" d="M 217.75 58.5 L 218.75 59 L 220.25 60.25 L 222 62.5 L 223 64.75 L 222.5 64.75 L 222.5 64.25 L 222 64.25 L 221 62.5 L 219.5 60.75 L 219.5 60.25 L 219 60.25 L 219 59.75 L 218 59.25 Z M 217.75 58.5 "/>
<path style=" stroke:none;fill-rule:nonzero;fill:rgb(2.352941%,15.294118%,27.058824%);fill-opacity:1;" d="M 11.25 127.5 L 17.5 129.5 L 18.5 130 L 17.75 130 L 17.5 130.5 L 13.5 129 L 11 128 Z M 11.25 127.5 "/>
<path style=" stroke:none;fill-rule:nonzero;fill:rgb(1.568627%,19.215686%,34.509804%);fill-opacity:1;" d="M 179.25 95.25 L 179.75 95.25 L 179.75 97.75 L 183.75 97 L 185 97 L 184.75 97.5 L 180.75 98.25 L 179.25 98.25 Z M 179.25 95.25 "/>
<path style=" stroke:none;fill-rule:nonzero;fill:rgb(3.529412%,10.588235%,17.254902%);fill-opacity:1;" d="M 105.25 209.75 L 107.75 209.75 L 107.5 210.25 L 105.25 210.75 L 101.5 210.75 L 101.5 210.25 Z M 105.25 209.75 "/>
<path style=" stroke:none;fill-rule:nonzero;fill:rgb(4.313725%,7.843137%,12.54902%);fill-opacity:1;" d="M 224.5 156.5 L 224.75 156.5 L 224.75 161.75 L 223.75 162.25 L 224 157.5 Z M 224.5 156.5 "/>
<path style=" stroke:none;fill-rule:nonzero;fill:rgb(3.529412%,10.196078%,18.039216%);fill-opacity:1;" d="M 138 70.5 L 139 70.75 L 138.5 78.5 L 138.25 78.5 L 138 71.25 L 137.5 71.25 L 137.5 70.75 Z M 138 70.5 "/>
<path style=" stroke:none;fill-rule:nonzero;fill:rgb(12.941176%,52.156863%,80.392157%);fill-opacity:1;" d="M 241.25 51.75 L 242.5 52 L 242.75 53.25 L 242.75 55 L 242.5 55 L 242.5 53.5 L 242 53.5 L 241.75 53 L 238 53.25 L 238.75 52.75 Z M 241.25 51.75 "/>
<path style=" stroke:none;fill-rule:nonzero;fill:rgb(1.568627%,19.215686%,34.509804%);fill-opacity:1;" d="M 194 18.5 L 194.25 18.5 L 193.75 29.5 L 193.5 29.5 L 193.5 19 Z M 194 18.5 "/>
<path style=" stroke:none;fill-rule:nonzero;fill:rgb(2.352941%,16.862745%,29.019608%);fill-opacity:1;" d="M 166.5 133.25 L 167 133.5 L 165 135 L 162.5 136.5 L 162.25 136 L 161.5 135.75 Z M 166.5 133.25 "/>
<path style=" stroke:none;fill-rule:nonzero;fill:rgb(2.745098%,13.333333%,23.529412%);fill-opacity:1;" d="M 138.5 106.25 L 139 107 L 138.75 107.75 L 135.75 108.5 L 133.5 108.5 L 134 108 L 138 107 Z M 138.5 106.25 "/>
<path style=" stroke:none;fill-rule:nonzero;fill:rgb(3.921569%,8.235294%,13.333333%);fill-opacity:1;" d="M 154.75 67.25 L 155.75 67.25 L 155.5 73 L 155 72.75 L 154.75 68 L 153.75 67.75 Z M 154.75 67.25 "/>
<path style=" stroke:none;fill-rule:nonzero;fill:rgb(1.960784%,20.392157%,36.078431%);fill-opacity:1;" d="M 29.75 204.5 L 30.75 205 L 31.5 206.25 L 33.75 208.75 L 35 210.25 L 33.75 209.75 L 32.5 208.5 L 32.5 208 L 32 208 L 29.75 205 Z M 29.75 204.5 "/>
<path style=" stroke:none;fill-rule:nonzero;fill:rgb(1.568627%,19.215686%,34.509804%);fill-opacity:1;" d="M 201 174 L 204.25 174 L 204.25 174.25 L 202.5 174.5 L 202.75 175 L 196.25 175 L 196.25 174.75 L 200.75 174.25 Z M 201 174 "/>
<path style=" stroke:none;fill-rule:nonzero;fill:rgb(28.627451%,57.254902%,89.411765%);fill-opacity:1;" d="M 176.5 180.25 L 177.5 180.5 L 175 181.25 L 171 181.75 L 169.75 181.5 L 169.75 181.25 L 172.25 180.75 Z M 176.5 180.25 "/>
<path style=" stroke:none;fill-rule:nonzero;fill:rgb(32.941176%,58.431373%,91.764706%);fill-opacity:1;" d="M 180 140 L 186.75 140 L 185.75 140.75 L 181.25 140.75 L 180 140.5 Z M 180 140 "/>
<path style=" stroke:none;fill-rule:nonzero;fill:rgb(2.352941%,14.509804%,25.882353%);fill-opacity:1;" d="M 155.5 68 L 155.75 68 L 155.75 74.75 L 155.25 77.25 L 155 77.25 L 155 72.75 L 155.25 72.75 Z M 155.5 68 "/>
<path style=" stroke:none;fill-rule:nonzero;fill:rgb(2.745098%,12.54902%,22.745098%);fill-opacity:1;" d="M 135 246.5 L 137 246.5 L 139.5 247 L 139.5 247.25 L 136.75 247.5 L 134 247.5 L 134.25 246.75 Z M 135 246.5 "/>
<path style=" stroke:none;fill-rule:nonzero;fill:rgb(2.745098%,12.941176%,23.529412%);fill-opacity:1;" d="M 167.75 56.75 L 168.75 56.75 L 168.75 57.25 L 166.75 57.75 L 163 58.25 L 162.75 57.75 L 165 57.25 Z M 167.75 56.75 "/>
<path style=" stroke:none;fill-rule:nonzero;fill:rgb(32.156863%,58.431373%,91.372549%);fill-opacity:1;" d="M 48.5 88.5 L 50.5 88.5 L 50.75 88.75 L 50.75 92.25 L 50.5 92.25 L 50 90 L 49.75 89.5 L 47.5 89 Z M 48.5 88.5 "/>
<path style=" stroke:none;fill-rule:nonzero;fill:rgb(3.137255%,10.196078%,18.431373%);fill-opacity:1;" d="M 160.25 20.5 L 160.75 20.5 L 160.5 21.25 L 160.25 25.75 L 160 27.5 L 159.75 27.5 L 159.75 20.75 Z M 160.25 20.5 "/>
<path style=" stroke:none;fill-rule:nonzero;fill:rgb(2.745098%,12.156863%,21.568627%);fill-opacity:1;" d="M 183.25 19.5 L 183.5 20.25 L 180.25 21 L 179.5 21.25 L 179.75 20 L 180.5 19.75 Z M 183.25 19.5 "/>
<path style=" stroke:none;fill-rule:nonzero;fill:rgb(2.352941%,15.294118%,27.058824%);fill-opacity:1;" d="M 223.5 153.5 L 224.25 153.5 L 224.75 154.5 L 224.75 156.5 L 224.25 157.5 L 224 161.25 L 223.75 161.25 L 223.75 154 Z M 223.5 153.5 "/>
<path style=" stroke:none;fill-rule:nonzero;fill:rgb(2.352941%,15.294118%,27.45098%);fill-opacity:1;" d="M 55.5 136 L 57.75 136.75 L 61.25 138 L 60.25 138.5 L 55.75 136.75 L 54.75 136.75 L 54.75 136.25 Z M 55.5 136 "/>
<path style=" stroke:none;fill-rule:nonzero;fill:rgb(3.529412%,10.196078%,18.039216%);fill-opacity:1;" d="M 38.5 215 L 39.25 215.25 L 39.5 215.75 L 40.75 216.25 L 42 217.75 L 41 218 L 39.5 217 Z M 38.5 215 "/>
<path style=" stroke:none;fill-rule:nonzero;fill:rgb(2.745098%,13.72549%,24.705882%);fill-opacity:1;" d="M 183.75 62 L 185.75 62 L 185.75 65 L 185.25 65.5 L 185.25 62.75 L 183 62.75 Z M 183.75 62 "/>
<path style=" stroke:none;fill-rule:nonzero;fill:rgb(2.745098%,13.72549%,23.529412%);fill-opacity:1;" d="M 55.25 56.25 L 56 56.5 L 55.5 57 L 58 57.75 L 57.75 58.25 L 55.75 58.25 L 54.5 57.25 L 54.75 56.5 Z M 55.25 56.25 "/>
<path style=" stroke:none;fill-rule:nonzero;fill:rgb(1.568627%,19.215686%,34.509804%);fill-opacity:1;" d="M 128.25 247 L 131.75 247 L 133.25 247.25 L 133.25 247.5 L 130.25 247.75 L 125.25 247.5 L 125.25 247.25 Z M 128.25 247 "/>
<path style=" stroke:none;fill-rule:nonzero;fill:rgb(3.529412%,11.764706%,19.215686%);fill-opacity:1;" d="M 147 141.5 L 148 141.75 L 147.25 142.5 L 144.25 143.25 L 144.5 142.25 Z M 147 141.5 "/>
<path style=" stroke:none;fill-rule:nonzero;fill:rgb(1.568627%,19.215686%,34.509804%);fill-opacity:1;" d="M 192 95.25 L 193 95.5 L 192.5 95.5 L 192.5 96 L 188 96.75 L 188.5 95.5 Z M 192 95.25 "/>
<path style=" stroke:none;fill-rule:nonzero;fill:rgb(2.352941%,14.509804%,25.882353%);fill-opacity:1;" d="M 168 65 L 168.75 65 L 168.75 67.75 L 168.5 67.75 L 168.25 66 L 167.25 65.75 L 164.25 66.25 L 163.5 66.5 L 163.75 65.75 Z M 168 65 "/>
<path style=" stroke:none;fill-rule:nonzero;fill:rgb(1.568627%,19.215686%,34.509804%);fill-opacity:1;" d="M 171.25 21.5 L 171.5 21.5 L 171.5 22.75 L 172 22.75 L 172 30.25 L 171.75 30.25 L 171.5 24.5 L 171.25 24.5 Z M 171.25 21.5 "/>
<path style=" stroke:none;fill-rule:nonzero;fill:rgb(3.921569%,8.627451%,13.333333%);fill-opacity:1;" d="M 156 240.5 L 156.5 240.75 L 155.5 241.75 L 154.25 242.25 L 153 242.25 L 153.25 241.25 Z M 156 240.5 "/>
<path style=" stroke:none;fill-rule:nonzero;fill:rgb(30.196078%,57.647059%,90.196078%);fill-opacity:1;" d="M 129.25 174 L 131.75 174 L 134.75 175.5 L 134.75 176 L 133.5 175.75 L 132.25 175 L 129.25 174.25 Z M 129.25 174 "/>
<path style=" stroke:none;fill-rule:nonzero;fill:rgb(2.745098%,13.333333%,23.921569%);fill-opacity:1;" d="M 140.25 104.25 L 141 104.5 L 141 106.25 L 142.75 106.25 L 142 107 L 140.25 107 Z M 140.25 104.25 "/>
<path style=" stroke:none;fill-rule:nonzero;fill:rgb(45.098039%,80.392157%,98.823529%);fill-opacity:1;" d="M 154.25 61.75 L 156 61.75 L 157 62.25 L 155.75 62.75 L 152.5 63 L 153.5 62.5 L 154 62.5 Z M 154.25 61.75 "/>
<path style=" stroke:none;fill-rule:nonzero;fill:rgb(3.137255%,11.764706%,19.607843%);fill-opacity:1;" d="M 70.75 182 L 71.75 182.25 L 68.5 184 L 67.25 184.25 L 67.25 183.5 Z M 70.75 182 "/>
<path style=" stroke:none;fill-rule:nonzero;fill:rgb(2.745098%,19.215686%,31.764706%);fill-opacity:1;" d="M 136 198.5 L 136.5 198.5 L 136.5 199 L 133.75 200.75 L 132.75 201.25 L 132.75 200.25 Z M 136 198.5 "/>
<path style=" stroke:none;fill-rule:nonzero;fill:rgb(3.137255%,13.333333%,21.568627%);fill-opacity:1;" d="M 150 140.5 L 151 140.75 L 150.5 141.5 L 148.25 142.25 L 147.75 142.25 L 148 141.25 Z M 150 140.5 "/>
<path style=" stroke:none;fill-rule:nonzero;fill:rgb(3.137255%,13.72549%,22.745098%);fill-opacity:1;" d="M 96.75 52 L 100.5 52.5 L 99.75 52.75 L 99.75 53.25 L 95.75 52.75 L 96.75 52.5 Z M 96.75 52 "/>
<path style=" stroke:none;fill-rule:nonzero;fill:rgb(3.137255%,11.372549%,19.215686%);fill-opacity:1;" d="M 76.75 184.5 L 77 184.5 L 76.75 186.25 L 76.25 188.25 L 75.5 187.75 L 75.75 186 L 76.25 184.75 Z M 76.75 184.5 "/>
<path style=" stroke:none;fill-rule:nonzero;fill:rgb(2.745098%,12.156863%,21.960784%);fill-opacity:1;" d="M 190.5 60.75 L 191.75 60.75 L 192.5 61.5 L 188.5 62 L 188.25 62.5 L 188.25 61.25 Z M 190.5 60.75 "/>
<path style=" stroke:none;fill-rule:nonzero;fill:rgb(1.176471%,21.176471%,37.254902%);fill-opacity:1;" d="M 91.25 13.5 L 95.25 13.75 L 95.75 14.5 L 92.25 14.25 L 91.5 14 L 89.75 14 L 89.75 13.75 Z M 91.25 13.5 "/>
<path style=" stroke:none;fill-rule:nonzero;fill:rgb(3.137255%,10.588235%,18.823529%);fill-opacity:1;" d="M 161.5 239.25 L 162.75 239.25 L 162.75 240 L 162 240.5 L 162 241 L 160.75 241.25 L 160.5 240 L 161 240 L 161 239.5 Z M 161.5 239.25 "/>
<path style=" stroke:none;fill-rule:nonzero;fill:rgb(15.686275%,47.843137%,75.294118%);fill-opacity:1;" d="M 20.75 185.75 L 23.25 186.5 L 25.75 187.5 L 25.75 187.75 L 24 187.5 L 20.75 186.5 Z M 20.75 185.75 "/>
<path style=" stroke:none;fill-rule:nonzero;fill:rgb(71.764706%,82.745098%,98.039216%);fill-opacity:1;" d="M 83.25 176.25 L 84 176.5 L 81.25 178.25 L 80.5 178.75 L 80.5 178.25 L 79.75 178 Z M 83.25 176.25 "/>
<path style=" stroke:none;fill-rule:nonzero;fill:rgb(1.568627%,21.960784%,38.431373%);fill-opacity:1;" d="M 110 141 L 111.75 141.25 L 115.75 142.75 L 115.25 143.25 L 111 141.75 L 109.75 141.5 Z M 110 141 "/>
<path style=" stroke:none;fill-rule:nonzero;fill:rgb(3.529412%,10.588235%,17.647059%);fill-opacity:1;" d="M 16.75 96.5 L 17.25 96.75 L 17.5 97.25 L 14.75 99 L 14.25 99 L 14.75 98 L 15.5 97.25 Z M 16.75 96.5 "/>
<path style=" stroke:none;fill-rule:nonzero;fill:rgb(26.666667%,71.372549%,96.078431%);fill-opacity:1;" d="M 86.5 51.25 L 88.75 51.25 L 88.25 51.75 L 85.25 52.25 L 83.5 52 L 83.5 51.75 Z M 86.5 51.25 "/>
<path style=" stroke:none;fill-rule:nonzero;fill:rgb(3.137255%,11.764706%,20.784314%);fill-opacity:1;" d="M 117.5 245.25 L 119.75 245.75 L 120 246.25 L 117.75 246.5 L 116.5 246.25 Z M 117.5 245.25 "/>
<path style=" stroke:none;fill-rule:nonzero;fill:rgb(27.843137%,56.862745%,88.627451%);fill-opacity:1;" d="M 138 177 L 142.5 178.5 L 142.5 179 L 140.75 178.75 L 138 177.5 Z M 138 177 "/>
<path style=" stroke:none;fill-rule:nonzero;fill:rgb(65.098039%,78.431373%,96.862745%);fill-opacity:1;" d="M 182.75 118.25 L 184.25 118.5 L 184.25 119.75 L 182.25 119.5 L 182.25 118.5 Z M 182.75 118.25 "/>
<path style=" stroke:none;fill-rule:nonzero;fill:rgb(1.568627%,18.431373%,33.333333%);fill-opacity:1;" d="M 159.25 99.25 L 160 99.5 L 160 102.25 L 159.5 102.25 L 159.5 103.75 L 159.25 103.75 Z M 159.25 99.25 "/>
<path style=" stroke:none;fill-rule:nonzero;fill:rgb(42.745098%,76.078431%,98.431373%);fill-opacity:1;" d="M 87.25 173.75 L 88.25 173.75 L 88 174.5 L 85 176 L 84.25 176 L 84.25 175.5 L 86.5 174.5 Z M 87.25 173.75 "/>
<path style=" stroke:none;fill-rule:nonzero;fill:rgb(3.529412%,10.196078%,16.862745%);fill-opacity:1;" d="M 24 156.75 L 25 157.25 L 23 158.5 L 21.75 159.5 L 21.75 158.75 Z M 24 156.75 "/>
<path style=" stroke:none;fill-rule:nonzero;fill:rgb(1.176471%,23.921569%,40.784314%);fill-opacity:1;" d="M 20.5 147.5 L 24.25 151.25 L 23.75 151.5 L 22 150 L 20.75 148.75 Z M 20.5 147.5 "/>
<path style=" stroke:none;fill-rule:nonzero;fill:rgb(26.27451%,56.470588%,88.235294%);fill-opacity:1;" d="M 57 56 L 57.75 56.25 L 57.5 57 L 58 57.5 L 55.5 57.25 L 55.5 56.5 Z M 57 56 "/>
<path style=" stroke:none;fill-rule:nonzero;fill:rgb(3.529412%,10.588235%,18.039216%);fill-opacity:1;" d="M 179.25 50.25 L 179.5 50.25 L 179.5 54.75 L 181.25 54.75 L 181 55.25 L 179 55.5 Z M 179.25 50.25 "/>
<path style=" stroke:none;fill-rule:nonzero;fill:rgb(3.529412%,10.980392%,18.431373%);fill-opacity:1;" d="M 113.5 208 L 114.5 208.25 L 113.75 209 L 111.5 209.5 L 111.75 208.5 Z M 113.5 208 "/>
<path style=" stroke:none;fill-rule:nonzero;fill:rgb(2.745098%,14.509804%,24.313725%);fill-opacity:1;" d="M 156.75 138 L 157.5 138.25 L 157 139 L 154.75 139.75 L 154.75 139.25 L 154.25 139 Z M 156.75 138 "/>
<path style=" stroke:none;fill-rule:nonzero;fill:rgb(3.137255%,11.764706%,20%);fill-opacity:1;" d="M 219.5 83 L 219.75 83.75 L 218 86 L 217.5 85.25 L 218.75 83.5 Z M 219.5 83 "/>
<path style=" stroke:none;fill-rule:nonzero;fill:rgb(2.745098%,13.333333%,23.921569%);fill-opacity:1;" d="M 189 18.25 L 190.5 18.25 L 190 19.25 L 188.25 19.75 L 188.25 18.5 Z M 189 18.25 "/>
<path style=" stroke:none;fill-rule:nonzero;fill:rgb(3.529412%,9.803922%,17.254902%);fill-opacity:1;" d="M 156.25 241 L 157.25 241.25 L 157 241.75 L 156.5 241.75 L 156.25 242.5 L 155.5 242.5 L 154.25 242.25 L 154.5 241.75 Z M 156.25 241 "/>
<path style=" stroke:none;fill-rule:nonzero;fill:rgb(1.568627%,19.215686%,34.509804%);fill-opacity:1;" d="M 225.75 178.75 L 226.25 178.75 L 226.25 179.25 L 227.75 179.25 L 227.75 179.5 L 222.75 179.75 L 223.5 179 L 225.75 179 Z M 225.75 178.75 "/>
<path style=" stroke:none;fill-rule:nonzero;fill:rgb(3.529412%,10.196078%,16.470588%);fill-opacity:1;" d="M 204.25 174 L 206.25 174 L 206.25 174.5 L 205 174.75 L 202.25 174.75 L 202.5 174.25 Z M 204.25 174 "/>
<path style=" stroke:none;fill-rule:nonzero;fill:rgb(2.745098%,13.72549%,23.137255%);fill-opacity:1;" d="M 58.5 107 L 59 107.25 L 58 108.75 L 57 109.5 L 56 110 L 56.5 109 Z M 58.5 107 "/>
<path style=" stroke:none;fill-rule:nonzero;fill:rgb(2.352941%,14.509804%,26.27451%);fill-opacity:1;" d="M 176.75 55 L 177 55.75 L 173.75 56.5 L 173.25 56.25 L 173.25 55.75 L 176.25 55.25 Z M 176.75 55 "/>
<path style=" stroke:none;fill-rule:nonzero;fill:rgb(2.745098%,12.941176%,23.529412%);fill-opacity:1;" d="M 61.75 224.25 L 62.5 224.5 L 62.75 225.5 L 60 225.25 L 59.75 224.75 Z M 61.75 224.25 "/>
<path style=" stroke:none;fill-rule:nonzero;fill:rgb(2.745098%,13.333333%,23.921569%);fill-opacity:1;" d="M 167.75 100 L 168.75 100 L 168.5 100.75 L 167.5 101 L 165.25 101 L 165.5 100.5 Z M 167.75 100 "/>
<path style=" stroke:none;fill-rule:nonzero;fill:rgb(26.27451%,74.509804%,97.647059%);fill-opacity:1;" d="M 106 11.5 L 107.75 11.5 L 108.75 12 L 107 12.25 L 104.5 12.25 L 104.75 11.75 Z M 106 11.5 "/>
<path style=" stroke:none;fill-rule:nonzero;fill:rgb(23.921569%,69.803922%,93.72549%);fill-opacity:1;" d="M 116.5 10.5 L 118.5 10.5 L 119 11 L 117 11 L 116.75 11.25 L 113.5 11 L 113.5 10.75 Z M 116.5 10.5 "/>
<path style=" stroke:none;fill-rule:nonzero;fill:rgb(14.901961%,52.54902%,81.568627%);fill-opacity:1;" d="M 56.5 101.25 L 58.5 101.5 L 59.75 102 L 59.5 102.5 L 57.75 102.25 L 56.5 101.75 Z M 56.5 101.25 "/>
<path style=" stroke:none;fill-rule:nonzero;fill:rgb(1.960784%,16.078431%,29.019608%);fill-opacity:1;" d="M 179.25 63.5 L 180 63.75 L 179.75 67.25 L 179.25 67.25 Z M 179.25 63.5 "/>
<path style=" stroke:none;fill-rule:nonzero;fill:rgb(1.568627%,19.215686%,34.509804%);fill-opacity:1;" d="M 184.5 19 L 185.75 19 L 185.5 19.5 L 185 19.75 L 183.5 20.25 L 183.25 19.75 L 181.75 19.75 L 181.75 19.5 Z M 184.5 19 "/>
<path style=" stroke:none;fill-rule:nonzero;fill:rgb(3.529412%,10.196078%,18.039216%);fill-opacity:1;" d="M 159.25 240 L 160.25 240.25 L 159.5 241.75 L 159.5 242 L 158 242.25 L 158 241.25 L 158.75 241.25 L 158.75 240.75 L 159.25 240.75 Z M 159.25 240 "/>
<path style=" stroke:none;fill-rule:nonzero;fill:rgb(3.529412%,12.941176%,21.176471%);fill-opacity:1;" d="M 129 202.25 L 129.5 202.5 L 128.25 203.75 L 126.75 204 L 127.25 203 Z M 129 202.25 "/>
<path style=" stroke:none;fill-rule:nonzero;fill:rgb(26.666667%,56.470588%,88.235294%);fill-opacity:1;" d="M 66.25 104 L 68.25 104.25 L 69.25 104.75 L 68 105 L 65.75 104.75 Z M 66.25 104 "/>
<path style=" stroke:none;fill-rule:nonzero;fill:rgb(3.137255%,11.764706%,20.784314%);fill-opacity:1;" d="M 216.5 186 L 217 186 L 217.5 187 L 216.5 188.5 L 216 187.75 L 216 186.75 Z M 216.5 186 "/>
<path style=" stroke:none;fill-rule:nonzero;fill:rgb(6.666667%,50.196078%,76.862745%);fill-opacity:1;" d="M 88.5 109.5 L 92.75 110 L 91.75 110.25 L 91.75 110.75 L 90.5 110.5 L 88.5 109.75 Z M 88.5 109.5 "/>
<path style=" stroke:none;fill-rule:nonzero;fill:rgb(2.745098%,13.72549%,24.313725%);fill-opacity:1;" d="M 166 22 L 169 22 L 169 22.5 L 168.25 22.75 L 166.25 22.75 Z M 166 22 "/>
<path style=" stroke:none;fill-rule:nonzero;fill:rgb(3.921569%,9.803922%,15.686275%);fill-opacity:1;" d="M 51.75 188.25 L 52.5 188.5 L 51.75 189.25 L 49 189.25 L 50 188.75 Z M 51.75 188.25 "/>
<path style=" stroke:none;fill-rule:nonzero;fill:rgb(1.568627%,17.647059%,32.156863%);fill-opacity:1;" d="M 130.25 107.75 L 130.5 107.75 L 130.5 109.5 L 129 110.25 L 128 110 L 128.25 109.5 L 130 109 Z M 130.25 107.75 "/>
<path style=" stroke:none;fill-rule:nonzero;fill:rgb(4.313725%,7.843137%,12.156863%);fill-opacity:1;" d="M 159.5 35 L 160 35 L 159.75 38.25 L 159.25 38.5 L 159.25 36.25 Z M 159.5 35 "/>
<path style=" stroke:none;fill-rule:nonzero;fill:rgb(32.941176%,58.431373%,91.764706%);fill-opacity:1;" d="M 162.25 201.25 L 162.5 202 L 161.5 203.25 L 159.75 203.75 Z M 162.25 201.25 "/>
<path style=" stroke:none;fill-rule:nonzero;fill:rgb(30.588235%,58.039216%,90.588235%);fill-opacity:1;" d="M 213 164 L 213.5 164.25 L 212.75 165.25 L 211.5 166 L 211 166.75 L 210.5 166.75 L 211 165.5 Z M 213 164 "/>
<path style=" stroke:none;fill-rule:nonzero;fill:rgb(14.901961%,52.941176%,81.568627%);fill-opacity:1;" d="M 172.25 180.75 L 174.25 180.75 L 174.25 181 L 172.5 181.5 L 171 181.75 L 169.75 181.5 L 169.75 181.25 Z M 172.25 180.75 "/>
<path style=" stroke:none;fill-rule:nonzero;fill:rgb(29.019608%,57.254902%,89.411765%);fill-opacity:1;" d="M 43.25 165 L 45.75 165.5 L 46.5 166 L 45.75 166.25 L 43.25 165.5 Z M 43.25 165 "/>
<path style=" stroke:none;fill-rule:nonzero;fill:rgb(23.137255%,55.294118%,86.27451%);fill-opacity:1;" d="M 231 79.5 L 231.25 79.5 L 231.5 83 L 231.5 84 L 231 84 L 230.75 83.25 Z M 231 79.5 "/>
<path style=" stroke:none;fill-rule:nonzero;fill:rgb(2.745098%,13.333333%,23.921569%);fill-opacity:1;" d="M 172.75 64 L 173.5 64.25 L 174 64.75 L 171.25 65.25 L 171.5 64.25 Z M 172.75 64 "/>
<path style=" stroke:none;fill-rule:nonzero;fill:rgb(9.019608%,50.980392%,78.039216%);fill-opacity:1;" d="M 189.25 13.5 L 192 13.5 L 192 14.25 L 189.25 14 Z M 189.25 13.5 "/>
<path style=" stroke:none;fill-rule:nonzero;fill:rgb(3.529412%,10.196078%,18.039216%);fill-opacity:1;" d="M 152.75 241.5 L 153.25 241.75 L 153 242.25 L 154.25 242.25 L 153.25 243 L 152 243.25 L 152.25 242 L 152.75 242 Z M 152.75 241.5 "/>
<path style=" stroke:none;fill-rule:nonzero;fill:rgb(3.137255%,14.901961%,23.921569%);fill-opacity:1;" d="M 123 204.75 L 123.75 205 L 123.5 205.75 L 121.75 206.25 L 121.75 205.25 Z M 123 204.75 "/>
<path style=" stroke:none;fill-rule:nonzero;fill:rgb(2.745098%,13.333333%,23.137255%);fill-opacity:1;" d="M 78.5 178 L 79.25 178 L 79 178.75 L 77.5 179.5 L 76.75 179.25 L 77 178.75 Z M 78.5 178 "/>
<path style=" stroke:none;fill-rule:nonzero;fill:rgb(29.411765%,57.254902%,89.803922%);fill-opacity:1;" d="M 177 138.75 L 180 139.75 L 180 140 L 178 140 L 177 139.75 Z M 177 138.75 "/>
<path style=" stroke:none;fill-rule:nonzero;fill:rgb(3.529412%,10.588235%,17.647059%);fill-opacity:1;" d="M 60 106.25 L 60.5 106.5 L 60.25 107.25 L 59 108 L 58.25 107.75 L 59.5 106.5 Z M 60 106.25 "/>
<path style=" stroke:none;fill-rule:nonzero;fill:rgb(3.137255%,10.980392%,19.607843%);fill-opacity:1;" d="M 171.5 21.25 L 173.25 21.25 L 173.25 21.75 L 172.25 22.25 L 172 22.75 L 171.5 22.75 Z M 171.5 21.25 "/>
<path style=" stroke:none;fill-rule:nonzero;fill:rgb(3.529412%,10.196078%,18.039216%);fill-opacity:1;" d="M 184.75 19.25 L 185.75 19.5 L 185.75 24 L 185.5 24 L 185.25 20.25 Z M 184.75 19.25 "/>
</g>
</svg>
