<svg xmlns="http://www.w3.org/2000/svg" width="256" height="256" fill="none" viewBox="0 0 256 256">
<path transform="translate(220,8)" d="m0 0h590l19 5 22 8 16 7 23 13 12 8 11 8 16 13 12 11 10 10 22 28 14 22 12 23 9 23 7 23 6 27 3 19v513l-6 32-5 20-8 24-10 23-11 20-12 18-10 13-9 11-14 15h-2l-1 3-11 9-15 12-13 9-15 9-23 12-25 10-21 6-15 1h-572l-15-1-19-5-32-13-19-10-19-12-12-9-16-13-26-26-11-14-10-14-11-18-12-23-10-26-7-25-6-31-1-7v-518l8-39 9-29 9-21 13-25 12-18 9-12 9-11 11-12 13-13 14-11 13-10 19-12 20-11 24-10 15-5 12-3z" fill="#0A1725"/>
<path transform="translate(220,8)" d="m0 0h590l19 5 22 8 16 7 23 13 12 8 11 8 16 13 12 11 10 10 22 28 14 22 12 23 9 23 7 23 6 27 3 19v513l-6 32-5 20-8 24-10 23-11 20-12 18-10 13-9 11-14 15h-2l-1 3-11 9-15 12-13 9-15 9-23 12-25 10-21 6-15 1h-572l-15-1-19-5-32-13-19-10-19-12-12-9-16-13-26-26-11-14-10-14-11-18-12-23-10-26-7-25-6-31-1-7v-518l8-39 9-29 9-21 13-25 12-18 9-12 9-11 11-12 13-13 14-11 13-10 19-12 20-11 24-10 15-5 12-3zm282 26-60 5-54 6-33 5-3 2-2 51v96l-18 2-44 7-45 8-35 8-7 3v121l-39 8-32 8-28 8-26 10-16 8-13 10-8 11-7 15-4 15v39l4 22 4 15 11 29 11 23 13 21 9 11 11 12 4 5 5 4-2 4-9 7-7 9-8 17-4 17-1 6v26l4 23 7 26 11 27 12 24 13 19 12 14 7 8 11 10 12 9 15 9 16 8 20 8 21 6 28 5 21 2h36l14-1h10l13 16 11 12 9 9 18 13 16 9 14 7 25 9 9 3 36 6 31 2 26-1 26-3 25-5 24-7 21-7 25-11 24-13 20-13 16-12 14-12 39-39 9-11 8-8 9-11 14-18 16-23 12-17 10-15 10-16 11-17 11-12 26-3 18-5 15-6 14-10 11-10 9-14 6-15-1-4-9-5-19-6-13-2h-19l-14 3-10 4-8 5 4-11 1-10v-22l10-16 8-13 8-16 7-18 6-25 3-21v-45l-4-42-8-62-1-31 4-2 11-8 9-9 10-13 8-15 6-21 1-10v-10l-3-16-5-13-2-1-24 8-16 9-10 8-11 11-9 17v3l-3-3-6-10-9-10-12-12-18-10-14-5-3-1h-10l-3 4-1 3-1 15v25l3 17 3 11 5 12 6 9 9 10 10 8 7 3 7 2 10-1-4 8-9 11-10 10-14 9-11 5-36 12-1-326-12-3-31-3-62-5-93-6-42-2-31-1z" fill="#FCFDFD"/>
<path transform="translate(965,207)" d="m0 0 5 1 1 5v26l-4 17-7 17-9 15h-2l-2 4-11 12-7 8-3 4v16l5 36 6 53 1 13v44l-4 31-5 21-7 20-8 18-13 21-10 14h-2l-2 4-11 12-16 16-7 6-19 14-17 11-24 15-14 7-10 4-9 4-21 7-22 5-14 3-42 4h-25l-36-5-34-8-20-8-16-8-14-8-13-10-11-9-9-9-13-17-10-15-12-23-9-23-1-6 9 1 21 8 9 3 9 1h59l27-5 25-7 26-10 23-10 11-6 10-7-19 9-16 8-20 8-27 9-25 6-21 3h-49l-14-2-19-5-12-5-7-2-3-4-6-30v-28l4-18 7-16 5-8 16 1 11 2h16l24-6 113-26 115-24 39-9 14-3 3-7 7-3 22-7 16-7 19-14 10-10 8-11 4-6 2-7-10-3-16-8-6-5-9-12-6-10-6-16-3-11-2-11v-33l4-1 15 5 17 9 13 10 6 5 7 9 6 11 3 7 1 7 2 1 2-11 5-12 7-13 6-7 5-2v-2l5-2v-2l14-9 8-4z" fill="#6BA3FB"/>
<path transform="translate(895,615)" d="m0 0h1v14l-2 26-2 4-2 1-1 3 5-4 4-4 8-4 18-6 5-1h18l24 4 11 4 3 3-1 6-4 8-12 14-11 9-16 8-21 6-13 3-18 2-6 3-5 4-11 15-7 11-7 10-8 12-13 18-28 38-14 17-8 10-14 15-12 12-1 2h-2v2l-8 7-12 12-10 8-13 10-20 13-14 8-24 14-10 4-18 7-18 5-17 4-14 3-39 3h-22l-27-2-24-4-25-7-20-7-22-11-16-11-14-12-14-14-7-9v-2h-2l-12-20-10-19-9-24-1-8 9 3 21 8 16 4 11 1h34l14-1 28-5 31-9 19-7 13-6 12-5 16-9 9-6h2v-2l-19 10-16 8-19 8-22 8-23 7-26 5-15 2h-35l-17-2-28-7-14-6-4-5-4-16-2-13v-27l3-17 5-13 10-16 9-8 16-8 16-5 11 1 23 4 18 2 25 1 29-2 28-4 22-5h10l19 9 24 9 15 4 16 3 21 3 26 1h31l10-2 22-3 32-8 34-12 8-1h26l26-4 9-4-1-4-7-11-3-7 7-6 13-9 8-8 8-7z" fill="#6BA3FB"/>
<path transform="translate(104,625)" d="m0 0 5 2 11 7 14 9 17 9 28 9 16 4 23 4 20 2h41l20-2 13 8 19 10 8 2 16 5v2l-12 7-14 7-12 9-8 13-6 15-3 15-1 13v11l2 21 4 17 11 33 9 20 5 11v4l-20 1h-28l-30-3-25-5-20-6-26-10-17-9-13-10-14-12-10-10-4-5v-3l-4-2v-3l-3-1-2-3v-3h-2v-3h-2l-12-21-9-20-5-13-2-9-3-6-3-11-4-22v-17l6-26 4-9 6-12 9-9z" fill="#C8DEFC"/>
<path transform="translate(209,231)" d="m0 0h8l58 9 44 8 32 6 72 15 41 8 15 3 1 1v176l-8-1-26-6-48-10-28-7-26-6-38-9-45-11-34-7-17-3-1-1-1-11v-153z" fill="#43C6FD"/>
<path transform="translate(366,55)" d="m0 0 10 2 40 4 53 5 136 10 27 3 6 2v45l-3 118-1 1-11-1-81-12-50-7-40-6-26-4-66-11-3-2v-145l1-1z" fill="#43C6FD"/>
<path transform="translate(670,532)" d="m0 0h2l1 43 2 27 4 17 8 20 9 13 8 7 15 8 13 4 23 5 37 4v2l-13 6-10 4-9 4-21 7-22 5-14 3-42 4h-25l-36-5-34-8-20-8-16-8-14-8-13-10-11-9-9-9-13-17-10-15-12-23-9-23-1-6 9 1 21 8 9 3 9 1h59l27-5 25-7 26-10 23-10 11-6 8-5 3-1z" fill="#C9DEFC"/>
<path transform="translate(542,798)" d="m0 0h2v12l-3 27v14l4 22 6 18 8 15 9 11 9 8 10 6 19 7 29 7 15 4 2 1v2l-10 4-18 7-18 5-17 4-14 3-39 3h-22l-27-2-24-4-25-7-20-7-22-11-16-11-14-12-14-14-7-9v-2h-2l-12-20-10-19-9-24-1-8 9 3 21 8 16 4 11 1h34l14-1 28-5 31-9 19-7 13-6 12-5 16-9z" fill="#C9DEFC"/>
<path transform="translate(422,532)" d="m0 0h5l3 19 6 22 6 17 7 16 8 16 8 14 2 3v3l4 2 18 22 14 14 6 5v2l-17 3-31 4-12 1h-33l-33-4-23-5-27-9-23-11-13-8-10-8-15-14-10-10-9-11-11-18-12-23-8-20-2-8 6 1 20 8 12 4 24 3h30l26-3 21-5 17-5 24-8 15-6z" fill="#C8DEFC"/>
<path transform="translate(194,354)" d="m0 0h8l1 1 2 44 1 1 13 2 34 9 5 2-2 4-10 6-12 6-9 9-7 11-5 11-2 5-3 17-1 26-18 6-19 5-24 4-9 1h-37l-22-3-24-7-12-5-3-4-4-14-2-13v-36l4-16 8-16 6-8 9-8 10-6 29-11 41-11 39-9z" fill="#6BA3FB"/>
<path transform="translate(632,253)" d="m0 0h3l1 53 1 67v48l-13 4-51 12-28 7-25 6-35 9-1-2v-31l2-142 5-3 7-1 39-8 74-14z" fill="#027BBB"/>
<path transform="translate(785,227)" d="m0 0h4l1 7 1 19 1 54v80l-7 2-35 7-28 6-56 13-25 5-1-1v-151l1-15 6-2 47-8 57-10 26-5z" fill="#027CBC"/>
<path transform="translate(265,416)" d="m0 0 8 1 62 15 28 7 11 2 35 8 28 6 3 1-1 4-9 23-3 10-2 8v26l-5 3-25 10-27 9-26 6-26 4h-37l-27-4-21-7-11-5-3-6-4-20-1-2-1-12v-14l2-15 4-15 7-14 6-9 6-5 12-7 15-6z" fill="#6BA3FB"/>
<path transform="translate(783,59)" d="m0 0h5v164l-16 3-36 5-92 16h-4v-99l1-27v-15l1-22 1-3 27-4 27-3 63-10z" fill="#027CBC"/>
<path transform="translate(104,625)" d="m0 0 5 2 11 7 14 9 17 9 28 9 16 4 23 4 20 2h41l20-2 13 8 19 10 8 2 16 5v2l-12 7-13 4-22 12-34 17-16 6-15 5-11 3-8 3-22 5-13 2-12 1h-28l-18-1-25-7-16-5-7-2-2-6-3-8-2-7-4-22v-17l6-26 4-9 6-12 9-9z" fill="#6BA3FB"/>
<path transform="translate(926,315)" d="m0 0 1 2-1 4 5-1 1 31 8 62 4 42v45l-4 26-5 20-9 22-7 14-10 16-7 11v22l-2 14-3 7 12-7 13-4 7-1h19l13 2 22 7 7 5-1 6-6 14-9 13-12 11-14 9-19 7-18 4-20 2-8 8-7 10-12 19-9 14-13 19-12 17-10 14-13 17-13 15-12 13-7 8-37 37-11 9-19 14-20 12-22 12-23 10-30 10-28 7-27 4-32 2-25-1-24-3-23-4-29-10-16-7-14-8-12-8-13-10-15-15-11-14-5-6h-10l-14 1h-36l-21-2-28-5-21-6-23-9-22-12-14-10-13-11-8-8-9-11-9-12-10-16-11-22-11-28-7-28-3-18v-26l4-19 4-11 7-13 8-6 4-2-6 7-5 8-5 11-4 15-3 14v17l4 24 4 12 3 6 2 8 8 20 8 17 8 13v2h2v3h2l3 6 2 1 2 4 2 1 3 5 9 10 13 12 18 13 17 9 26 10 22 6 21 4 30 3h48l-5-13-8-17-9-25-6-21-3-17-1-13v-11l2-20 5-16 8-16 4-5 14-10 13-7 2 1-1 3-17 9-8 7-9 15-5 13-3 17v27l3 17 3 12 5 5 16 6 24 6 17 2h35l27-4 21-5 33-11 29-12 17-9 11-6h2v2l-11 7-16 9-21 9-17 7-26 8-21 5-18 3-14 1h-34l-17-2-15-5-21-8-4-2 5 17 9 21 8 15 10 16v2h2l10 13 15 15 14 11 14 9 25 12 25 8 20 5 19 3 27 2h22l39-3 24-5 14-4 16-5 19-7 18-10 24-14 17-11 12-9 17-14 15-15h2v-2h2l2-4 19-19 7-8 8-10 13-16 28-38 12-17 8-12 7-10 12-18 9-11 6-4 13-2 17-3 22-6 10-4 5-3 9-6 3-1 1-3 5-4 10-13 3-8-1-4-8-4-21-4-7-1h-18l-15 4-13 5-4 3h-2l-2 4-4 2 1-4h2l2-13 1-17v-13l-30 30-8 7-10 8-10 7-1 2 7 12 4 6-1 4-9 4-26 4h-30l-42 14-28 7-26 4-6 1h-41l-24-2-5-1v-1h10l5 1h23l5-1 17-2 4-3 3 1 2 1 3-3h-49l-1-2h30l42-4 27-6 11-3 22-7 12-6 13-5 20-12 26-17 20-15h2l2-4 8-7 17-17 6-8h2l2-5 9-12 12-20 7-16 7-20 5-21 4-31v-44l-4-40-7-56-1-13v-9z" fill="#0A1724"/>
<path transform="translate(42,511)" d="m0 0 10 3 15 6 12 4 17 3h40l28-4 25-6 12-4 7-1 3 13 3 17 6 16 8 21 8 18 8 14 11 17v3h2l9 11 11 12v2h2v3l-2 1h-38l-21-2-32-6-15-4-18-6-21-10-16-10-14-12-8-7-9-9-13-17-11-19-11-22-7-18z" fill="#C8DDFC"/>
<path transform="translate(346,205)" d="m0 0h9l58 10 51 9 69 10 74 10 21 4-1 2-75 15-55 12-13 1-31-6-104-21-36-7-52-9-39-6v-3l6-2 52-9z" fill="#79D2FD"/>
<path transform="translate(499,39)" d="m0 0h61l82 5 39 3 29 2 58 5v3l-56 9-54 9-10 1h-17l-32-3-86-6-52-4-93-8v-2l19-3 46-5 56-5z" fill="#78D2FD"/>
<path transform="translate(608,734)" d="m0 0 13 1 14 4 9 6 8 8 7 13v22l-4 10-4 5-7 8-10 7-11 5-10 2h-14l-15-5-14-9-5-6-4-9-1-7v-10l2-8 7-13 8-9h2v-2l12-8 7-3z" fill="#0B1520"/>
<path transform="translate(733,471)" d="m0 0h17l10 3 10 7 1 3 4 2 6 8 4 8 1 5v14l-4 12-6 8-5 5-7 6-16 8-5 1h-17l-13-3-11-6-7-7-6-12-1-4v-14l4-13 7-11 9-9 8-6 11-4z" fill="#0B131D"/>
<path transform="translate(926,315)" d="m0 0 1 2-1 4 5-1 1 31 8 62 4 42v45l-4 26-5 20-9 22-7 14-10 16-7 11v22l-2 14-3 7 12-7 13-4 7-1h19l13 2 19 6v3l-9-2-24-4h-18l-15 4-13 5-4 3h-2l-2 4-4 2 1-4h2l2-13 1-17v-13l-30 30-8 7-10 8-10 7-1 2 7 12 4 6-1 4-9 4-26 4h-30l-42 14-28 7-26 4-6 1h-41l-24-2-5-1v-1h10l5 1h23l5-1 17-2 4-3 3 1 2 1 3-3h-49l-1-2h30l42-4 27-6 11-3 22-7 12-6 13-5 20-12 26-17 20-15h2l2-4 8-7 17-17 6-8h2l2-5 9-12 12-20 7-16 7-20 5-21 4-31v-44l-4-40-7-56-1-13v-9z" fill="#0A1825"/>
<path transform="translate(735,472)" d="m0 0h11l13 5 11 8 7 10 4 10 1 10-2 12-5 9-7 8-10 7-9 4-12 2h-11l-12-3-8-4-8-7-5-8-2-9v-10l1-6 3 1 3 11 5 6v2l9 3h10l10-3 10-7 7-8 2-7v-12l-3-8-5-6-15-5 1-3z" fill="#F7F9FD"/>
<path transform="translate(604,737)" d="m0 0 9 1 15 2 10 6 8 8 6 12 1 3v18l-3 8-6 9-10 8-10 5-6 2-9 1h-10l-12-3-8-4-6-5-6-10-2-8v-16l2 2 4 11 5 6 7 4h10l13-4 8-5 5-6 4-8v-17l-3-6-5-5-4-2-9-1-2-1 1-4z" fill="#F5F8FD"/>
<path transform="translate(611,274)" d="m0 0h8l1 113v25l-7 3-9 2h-6v-45l1-89 2-7z" fill="#027CBC"/>
<path transform="translate(673,90)" d="m0 0h2l1 2-1 86-2 49-13 3h-7v-16l2-89 1-31 2-2z" fill="#027CBC"/>
<path transform="translate(669,262)" d="m0 0 4 1 1 75v61l-7 3-10 3h-3v-85l1-54 2-2z" fill="#027CBC"/>
<path transform="translate(870,342)" d="m0 0 1 4-12 12-18 13-16 7-22 7-7 3-2 6-6 2-39 9-66 14-58 12-134 31-5 1-1-4 8-3 38-10 31-7 37-9 36-9h2l1-12h2l1 10 25-5 64-15 61-12 1-3 1-11 2-1 1 8 36-12 16-8 11-8 9-9z" fill="#0A1725"/>
<path transform="translate(354,438)" d="m0 0 17 2 16 4 50 11 3 1-1 4-9 23-3 10-2 8-4-4-8-11-9-11-13-12-13-10-10-8-14-6z" fill="#2A87D2"/>
<path transform="translate(972,234)" d="m0 0 2 2-2 15-2 6 1 2h-2l1 2 4-2 2-4 1-6h1v7l-5 17-8 15-8 10-9 10-8 7-7 5-7 1 1-8 7-7 8-10h2l2-4 3-4h2l2-5 8-14 5-13 4-17z" fill="#0A1724"/>
<path transform="translate(619,269)" d="m0 0h4v30l-1 115-18 5-7 1-1-49v-82l1-14 8-3zm-8 5-10 2-2 7-1 89v45l11-1 10-3 1-1v-25l-1-113z" fill="#043056"/>
<path transform="translate(570,715)" d="m0 0 10 2 21 4 21 3 26 1h31l10-2 21-2-2 2-8 2-14 2-5 2h-29l-4 1h-3l-2 4-1 9-5-2-11-4-22-4-6-2v-2l-5-1-3-3h-3v-2l-6-1-4-1v-2l-5-1v-2z" fill="#5B97EE"/>
<path transform="translate(733,471)" d="m0 0h17l10 3 10 7 1 3 4 2 6 8 4 8 1 5v14l-4 12-6 8-5 5-7 6-16 8-5 1h-17l-13-3-11-6-7-7-6-12-1-4v-14l4-3v14l2 9 7 10 8 6 11 4 6 1h11l12-2 14-7 9-8 6-10 2-6 1-14-4-12-6-9-5-5-9-6-11-4h-11l-5 1-3-2z" fill="#091A2A"/>
<path transform="translate(672,87)" d="m0 0h6l-1 54-2 88-8 2-12 2h-5v-31l3-112zm1 3-15 2-2 2-1 31-2 89v16l13-1 7-2 2-49 1-86-1-2z" fill="#042D52"/>
<path transform="translate(544,794)" d="m0 0h2v2l-11 7-16 9-21 9-17 7-26 8-21 5-18 3-14 1h-34l-17-2-15-5-21-8-4-2-1 2 1-4 13 5 21 6 15 3 11 1h35l27-4 21-5 33-11 29-12 17-9z" fill="#081E32"/>
<path transform="translate(666,533)" d="m0 0 2 1-8 6-14 8-25 11-24 9-25 7-27 5h-59l-9-1-9-3-24-9-5-1 1-2 7 1 16 6 18 4 9 1h49l21-3 25-6 30-10 22-9 19-10z" fill="#091929"/>
<path transform="translate(413,532)" d="m0 0 2 1v3l-24 9-21 7-18 5-20 4-20 2h-30l-24-3-17-6-18-7h-4v-2l5-1 15 6 13 4 27 4h37l26-4 29-7 27-9z" fill="#091E31"/>
<path transform="translate(706,82)" d="m0 0h4l1 4v21l-1 37h-1l-1-58-17 2-2 1-2 75-1 60 19-3 3-1v3l-13 3-12 2-1-1v-22l2-102 1-17 7-2z" fill="#07223D"/>
<path transform="translate(583,276)" d="m0 0h5v146l-2 2-18 4h-7l1-75h3l1 4-1 68 20-4v-142l-16 4h-3l-1 2 1-4 3-2z" fill="#043057"/>
<path transform="translate(828,673)" d="m0 0 4 1 9 13 3 2v2l-15 4-7 1-24 1-7-2v-2l17-9 11-6z" fill="#F0F5FD"/>
<path transform="translate(201,509)" d="m0 0 4 1 3 2-13 4-17 5-26 5-16 2h-40l-21-4-21-8-10-4 2-2 24 8 20 4 10 1h37l21-3 20-4 17-5z" fill="#091B2D"/>
<path transform="translate(314,712)" d="m0 0h3l-1 3-42 21-16 6-15 5-11 3-8 3-22 5-13 2-12 1h-28l-18-1-25-7-3-2 8 1 13 3 21 2h30l28-3 12-3 9-2 14-4 10-3 7-3 17-6 16-7 11-6z" fill="#082136"/>
<path transform="translate(552,282)" d="m0 0 4 1v147l-9 3-17 3-1-2 1-66h1v65l21-5 1-33-1-108-10 1-9 3-1 14-1 59h-1v-76l2-2z" fill="#043158"/>
<path transform="translate(900,610)" d="m0 0 2 3v18l-2 14-3 7 12-7 13-4 7-1h19l13 2 19 6v3l-9-2-24-4h-18l-15 4-13 5-4 3h-2l-2 4-4 2 1-4h2l2-13 1-17v-13l-1-2h3l1 4 1-5z" fill="#091B2D"/>
<path transform="translate(520,289)" d="m0 0h2v136h-1l-1-131-11 1-9 1-1 145 19-4 2-1 1-5h1v7l-6 3-18 3-1-1v-148l3-2z" fill="#043057"/>
<path transform="translate(154,860)" d="m0 0 3 1 1 2 5 2 2 3h9l2 3 2 1h5v2l4 1 7 3 9 3 5 3v2l9 1 7 3 5 1 6 4v3l3 2-8-1-21-6-23-9-22-12-6-4-2-4z" fill="#081C31"/>
<path transform="translate(738,76)" d="m0 0h5v40h-2l-1-36-19 4-1 33-1 102 21-4 2-2-1 5-25 4v-25l1-116 10-3z" fill="#043158"/>
<path transform="translate(683,48)" d="m0 0h16l69 6v3l-30 5-12-1-4-5h-16l-20-4-9-2v-1z" fill="#42C0F9"/>
<path transform="translate(204,399)" d="m0 0 2 1 13 2 34 9 5 2-2 4-10 6-5 2-7-2v-2l-4-2-19-13-6-3z" fill="#057CBD"/>
<path transform="translate(965,207)" d="m0 0 5 1 1 5v26h-1l-2-10-1-3h-2l-2-5-5-1-21 6-4 1-2 4-8 6-12 15-3 1 2-6 7-11 6-5h2v-2l5-2v-2l14-9 8-4z" fill="#5696EB"/>
<path transform="translate(706,253)" d="m0 0h3v51l-1 7h-1l-1-35v-18l-16 2-2 1-1 7-1 28v102l11-2 3 1-6 2-10 1-1-1v-104l1-36 2-2z" fill="#043158"/>
<path transform="translate(672,260)" d="m0 0h3v142l-5 2-15 3h-3l1-142 2-2zm-3 2-12 2-2 2-1 54v85l6-1 13-4 1-1v-61l-1-75z" fill="#043057"/>
<path transform="translate(772,241)" d="m0 0h3v141l-5 2-18 3v-55h1l2 50 18-1-1-135-16 2-1 11-1 32-1 11h-1v-56l5-2z" fill="#081F36"/>
<path transform="translate(770,71)" d="m0 0h8l-2 21-1 26h-1v-43l-14 2-5 1-2 96-1 40 20-4 3-1v3l-16 3-9 1 1-90 1-48 1-4z" fill="#043158"/>
<path transform="translate(929,644)" d="m0 0h18l24 4 11 4 3 3-1 6-3 6-1-4v-4h-2l-1-4-6-1-14-3-23-1-10 1-4 1-10 2-7-1 3-2 18-6z" fill="#4D93E6"/>
<path transform="translate(295,669)" d="m0 0 6 1 11 7 19 10 8 2 16 5v2h-6l-4 4-9 1-1-3v-4l1-4-14-2h-2v-2h-5l-4-2v-2l-5-1-3-1-4-4-7-3-12 1h-23l-19-1v-1l41-1z" fill="#4C92E5"/>
<path transform="translate(843,780)" d="m0 0 4 2-7 11-13 18-10 14-10 13-3-1-4 1 3-6 6-9 3-1 2-4 3-5 5-7h2l1-3 3-2v-3l4-5 2-2 2-1 1-4 5-3-1-2z" fill="#081C32"/>
<path transform="translate(672,87)" d="m0 0h6l-1 54-1 37h-1v-88l-2 1-15 2-1 1-2 59-1 19h-1v-82z" fill="#081E35"/>
<path transform="translate(365,54)" d="m0 0 38 3 69 6 31 2v1l-13 2-21-1-53-5-47-5-3-1h-7v-1z" fill="#091F33"/>
<path transform="translate(597,275)" d="m0 0 3 2-1 95v44l10-1 10-2 1 2-20 5h-3l-1-49v-82z" fill="#043158"/>
<path transform="translate(735,248)" d="m0 0h8v12l-2 2v-11l-20 4-1 6-1 59v71l16-3h5l-1 2-16 3h-6v-139l2-3z" fill="#043158"/>
<path transform="translate(789,227)" d="m0 0 2 4 2 17 1 10v114l-1 12h-1l-1-77-1-54z" fill="#072039"/>
<path transform="translate(639,308)" d="m0 0h1v101h-2v6h-1l-1-42v-59h1l1 3z" fill="#081C32"/>
<path transform="translate(344,701)" d="m0 0 2 1-1 3-17 9-8 7-9 15-5 13-3 17-1 24h-1l-1-21h-1l1-14 5-16 8-16 4-5 14-10z" fill="#091C30"/>
<path transform="translate(970,211)" d="m0 0h2l2 11 2-6 2 4 2 12v10l-1 10-2 3-3 6h-3l-2 1 1-8 2-7 1-11-2 1z" fill="#081D33"/>
<path transform="translate(673,717)" d="m0 0 3 1 8 3 10-1h17v1l-26 4-6 1h-41l-24-2-5-1v-1h10l5 1h23l5-1 17-2z" fill="#071F38"/>
<path transform="translate(311,826)" d="m0 0 13 5 21 6 15 3 11 1 35 1 10 1v1l-14 1h-34l-17-2-15-5-21-8-4-2-1 2z" fill="#062541"/>
<path transform="translate(900,610)" d="m0 0 2 3v18l-2 14-3 7 6-2 3 2-8 4-3 1-2 4-4 2 1-4h2l2-13 1-17v-13l-1-2h3l1 4 1-5z" fill="#062C4A"/>
<path transform="translate(801,841)" d="m0 0 3 1-15 16-9 11-30 30-4-2 8-7 9-9h2v-2h2l1-6 5-2 6-7 2-6 4-1 1-4 6-1 1-4 3-4h2v-2z" fill="#071E36"/>
<path transform="translate(94,631)" d="m0 0 2 1-7 7-8 15-4 13-4 19v17l1 11-2-2-2-21h-1v-9l4-19 4-11 7-13 8-6z" fill="#081F35"/>
<path transform="translate(666,533)" d="m0 0 2 1-8 6-14 8-25 11-24 9-6 1 1-4 31-11 14-6 19-10z" fill="#082137"/>
<path transform="translate(440,564)" d="m0 0 7 1 16 6 18 4 9 1 45 1v1l-27 2h-22l-9-1-9-3-24-9-5-1z" fill="#07233E"/>
<path transform="translate(104,625)" d="m0 0 5 2 11 7 8 5v2l-10-4-4-4v2h-2v-2l-8-2v2h-2v3l-6 3-5 5h-2l-1 4-5 3 2-7 6-8 9-8z" fill="#5495EA"/>
<path transform="translate(552,282)" d="m0 0 4 1-2 31h-1l-1-27-10 1-9 3-1 14-1 59h-1v-76l2-2z" fill="#05294B"/>
<path transform="translate(821,669)" d="m0 0 5 1 2 4-17 10-8 1-5 3-4-1 1-3 12-7 10-6z" fill="#081B2F"/>
<path transform="translate(706,82)" d="m0 0h4l1 4v21l-1 37h-1l-1-58-17 2-2 1-1 32h-1l-1-23h-1v-12l7-2z" fill="#042C50"/>
<path transform="translate(773,304)" d="m0 0h1l1 78-5 2-18 3v-55h1l2 50 18-1z" fill="#042F55"/>
<path transform="translate(562,353)" d="m0 0h3l1 4-1 68h-1l-1-7-1-1z" fill="#042F56"/>
<path transform="translate(706,253)" d="m0 0h3v51l-1 7h-1l-1-35v-18l-16 2-5 1 1-4z" fill="#043057"/>
<path transform="translate(544,794)" d="m0 0h2v2l-11 7-16 9-21 9-11 4v-4l29-12 17-9z" fill="#091B2D"/>
<path transform="translate(103,751)" d="m0 0 8 1 13 3 21 2h38v1l-6 2v1h-28l-18-1-25-7z" fill="#043158"/>
<path transform="translate(652,132)" d="m0 0h1l1 21h1v23l-1 38-1 5h-1l-1-18v-32z" fill="#043158"/>
<path transform="translate(895,615)" d="m0 0h1v14l-1 17h-1v-18h-6l-1 2-3 1-3 3-4 2-10 10-2-1zm-32 31 2 1-9 9-2-1z" fill="#4490E1"/>
<path transform="translate(638,81)" d="m0 0h1l1 22 1-18h1v38l-1 25h-1v-8h-2v5h-1v-19z" fill="#052847"/>
<path transform="translate(314,712)" d="m0 0h3l-1 3-42 21-16 6-8 1 3-3 21-8 15-7 10-5z" fill="#091A2B"/>
<path transform="translate(268,217)" d="m0 0h6l-4 3-19 3-6 2-8 1v5l-10-1-6-2 3-3z" fill="#45BDF9"/>
<path transform="translate(738,76)" d="m0 0h5v40h-2l-1-36-19 4-3 1 1-5z" fill="#042D51"/>
<path transform="translate(899,709)" d="m0 0h8l-3 2-13 1-6 1-1 6-1 1-2 4h-2l-1 4-5 1-2 4-8 8v-3l8-12 9-11 6-4z" fill="#062643"/>
<path transform="translate(770,71)" d="m0 0h8l-2 21-1 26h-1v-43l-14 2-7 2v-5z" fill="#052A4C"/>
<path transform="translate(570,715)" d="m0 0 10 2 21 4 21 3 26 2-2 2h-34l-1-3-9-1-10-2-17-4-5-2z" fill="#1D83CA"/>
<path transform="translate(424,46)" d="m0 0h7l4 2-7 1h-21v2l-10 2h-8l-1 1-10 1h-10v-2l19-3z" fill="#3CB8F3"/>
<path transform="translate(278,668)" d="m0 0h21l-4 2-16 2h-41l-20-2v-1h12l10 1h16l1-1z" fill="#043158"/>
<path transform="translate(845,687)" d="m0 0 2 1-1 4-9 4-26 4h-26v-1l18-2 1-1 18-1 22-4z" fill="#062744"/>
<path transform="translate(530,368)" d="m0 0h1v65l21-5 3-3 1 5-9 3-17 3-1-2z" fill="#043158"/>
<path transform="translate(672,87)" d="m0 0h6l-1 54-1 37h-1v-88l1-2z" fill="#043158"/>
<path transform="translate(424,965)" d="m0 0h5l2 2 7 1 9 6 3 4-8 1-11-4-2-5 1-2-6-2z" fill="#091A2E"/>
<path transform="translate(365,54)" d="m0 0 38 3 21 2v1l-15 1-40-4-3-1h-7v-1z" fill="#07213A"/>
<path transform="translate(362,842)" d="m0 0h44l10 1v1l-14 1h-34l-6-1z" fill="#062644"/>
<path transform="translate(900,610)" d="m0 0 2 3v18l-2 14h-1l-1-16-1 1-1 15h-1v-29l-1-2h3l1 4 1-5z" fill="#043158"/>
<path transform="translate(827,212)" d="m0 0 9 2 5 2v1h-10l-2 12-1 23h-1l-1-6v-33z" fill="#3E8EDD"/>
<path transform="translate(333,689)" d="m0 0 9 1 13 4v2h-6l-4 4-9 1-1-3v-4l1-4z" fill="#5595EB"/>
<path transform="translate(619,269)" d="m0 0h4l-1 23-2-1v-17l-21 3-1 2v-5z" fill="#07213B"/>
<path transform="translate(666,533)" d="m0 0 2 1-8 6-14 8-16 7-1-2 3-3 21-10z" fill="#082035"/>
<path transform="translate(926,315)" d="m0 0 1 2-1 4 5-1v27l-2-4-2 1-2-15v-13z" fill="#043057"/>
<path transform="translate(610,245)" d="m0 0 14 2 4 2-5 2-14 2-5-2 1-5z" fill="#46C3FD"/>
<path transform="translate(588,566)" d="m0 0 4 1-3 3-17 5-9 2h-6l3-4 25-6z" fill="#091C2E"/>
<path transform="translate(936,421)" d="m0 0h1l1 13v44l-1 9h-1l-1-25v-22l1-1z" fill="#4B92E5"/>
<path transform="translate(789,227)" d="m0 0 2 4 2 17-1 59h-1l-1-54z" fill="#052A4C"/>
<path transform="translate(484,822)" d="m0 0 4 1-2 3-27 9h-2v-4z" fill="#092034"/>
<path transform="translate(573,813)" d="m0 0 16 8 12 3h18l-1 2-10 2h-7l-7-3-10-2-8-5-3-2z" fill="#4791E3"/>
<path transform="translate(752,246)" d="m0 0 3 2-1 43-1 11h-1z" fill="#043158"/>
<path transform="translate(694,720)" d="m0 0h17v1l-26 4-6 1h-22l-9-1v-1l31-1z" fill="#043158"/>
<path transform="translate(565,40)" d="m0 0h14l46 3v1l-16 1-7-1h-10l-21-2h-9z" fill="#3EB6F3"/>
<path transform="translate(207,753)" d="m0 0 3 1-3 3-18 3h-21v-1l15-2 9-2z" fill="#082035"/>
<path transform="translate(977,667)" d="m0 0 3 2-12 14-11 9-5 2 1-3 9-7 3-4h2l2-4 6-8z" fill="#5094E8"/>
<path transform="translate(733,471)" d="m0 0h17l10 3 10 7 1 1v5l-7-6-14-7-4-1h-11l-5 1-3-2z" fill="#07223B"/>
<path transform="translate(735,248)" d="m0 0h8v12l-2 2v-11l-22 4-1 3v-6l5-2z" fill="#072038"/>
<path transform="translate(248,412)" d="m0 0 10 1-2 4-10 6-5 2-5-1 4-2 3-3 2-1v-3z" fill="#2A8AD3"/>
<path transform="translate(947,299)" d="m0 0 3 1-1 4v3l-9 8-3-1-1-4z" fill="#081B30"/>
<path transform="translate(740,900)" d="m0 0 4 1 1 3-7 7-4 2-3-1-1-5 3-1v-2z" fill="#081C31"/>
<path transform="translate(561,417)" d="m0 0 3 1v7l22-5h2l-2 4-18 4h-7z" fill="#07233F"/>
<path transform="translate(333,705)" d="m0 0 3 1-11 7-8 6-2 3h-2v-2l-4-2 17-10z" fill="#DAE8FC"/>
<path transform="translate(286,670)" d="m0 0h9l-3 2-12 2h-23l-19-1v-1l41-1z" fill="#1581C6"/>
<path transform="translate(204,399)" d="m0 0 2 1 13 2 19 5v3l-7-1-5-2-10-1-4-2h-6z" fill="#2A87D2"/>
<path transform="translate(369,205)" d="m0 0 21 3 12 2-3 1v2l-16-2-15-3z" fill="#082035"/>
<path transform="translate(413,532)" d="m0 0 2 1v3l-24 9h-2v-4z" fill="#082237"/>
<path transform="translate(249,420)" d="m0 0 2 1v3l-12 6-8 6-6 4v-3l9-9z" fill="#081F34"/>
<path transform="translate(820,698)" d="m0 0 4 1-1 1-10 1-5 2-7 1-16-2-4-2 4-1h26z" fill="#5595EA"/>
<path transform="translate(629,44)" d="m0 0h13l24 2v1l-7 1-28-1-8-1v-1z" fill="#40B9F5"/>
<path transform="translate(268,217)" d="m0 0h6l-4 3-19 3-6 2h-6l1-3z" fill="#3EB9F4"/>
<path transform="translate(852,656)" d="m0 0 2 1-3 4-5 3-2 3-2 1-1 6 2 5-1 3-7-12 4-5 12-8z" fill="#4690E2"/>
<path transform="translate(440,564)" d="m0 0 7 1 16 6 18 4-4 1-1 2-13-4-19-7-5-1z" fill="#081F36"/>
<path transform="translate(706,253)" d="m0 0h3l-1 10h-1v-5l-17 2-5 1 1-4z" fill="#081E36"/>
<path transform="translate(303,750)" d="m0 0h1v9l-1 7-1 24h-1l-1-21h-1l1-14 1-4z" fill="#07223A"/>
<path transform="translate(416,60)" d="m0 0h21l13 1v1h-5v2l-20-1-9-1z" fill="#082137"/>
<path transform="translate(583,276)" d="m0 0h5l-1 18h-1l-1-15-16 4h-3l-1 2 1-4 3-2z" fill="#062747"/>
<path transform="translate(682,205)" d="m0 0h1l1 19 9-1 12-2 3-1v3l-13 3-12 2-1-1z" fill="#05294A"/>
<path transform="translate(314,712)" d="m0 0h3l-1 3-28 14-3-2 14-7z" fill="#072640"/>
<path transform="translate(639,358)" d="m0 0h1v51h-2v6h-1v-18h1z" fill="#043158"/>
<path transform="translate(717,201)" d="m0 0h1v18l22-4 2-2-1 5-25 4z" fill="#062645"/>
<path transform="translate(33,442)" d="m0 0h1v27h2v20l-2-4-1-7z" fill="#328AD7"/>
<path transform="translate(520,289)" d="m0 0h2v6l-7-1-17 3v-3l12-3z" fill="#042D51"/>
<path transform="translate(507,813)" d="m0 0 2 1-4 4-17 7-1-4z" fill="#082840"/>
<path transform="translate(970,202)" d="m0 0 3 3 3 8-1 11-2-2-2-11-1-4-6-1 3-3z" fill="#0B1521"/>
<path transform="translate(387,50)" d="m0 0h7l-1 2-5 2-10 1h-10v-2z" fill="#3DB3F0"/>
<path transform="translate(103,751)" d="m0 0 8 1 13 3 11 1v2l2 1h-10l-24-7z" fill="#062948"/>
<path transform="translate(344,701)" d="m0 0 2 1-1 3-17 9-3 2-1-3 9-6z" fill="#07223A"/>
<path transform="translate(572,240)" d="m0 0 12 1 7 1-8 4-13-3-2-2z" fill="#42BFF9"/>
<path transform="translate(871,234)" d="m0 0 4 2 6 5 7 9 4 9h-2v-2h-2l-4-7-6-7v-2h-2v-2l-4-2z" fill="#4E93E6"/>
<path transform="translate(45,510)" d="m0 0 25 8 4 2h-3l-1 2-16-6-10-4z" fill="#062745"/>
<path transform="translate(717,381)" d="m0 0h2v10l16-3h5l-1 2-16 3h-6z" fill="#043158"/>
<path transform="translate(421,839)" d="m0 0h10l-1 2-9 2h-15v-2z" fill="#091B2C"/>
<path transform="translate(898,626)" d="m0 0h1v21l-4 2 1-19z" fill="#0B1420"/>
<path transform="translate(552,282)" d="m0 0 4 1-2 31h-1l-1-29h-2v-2z" fill="#091A2E"/>
<path transform="translate(965,207)" d="m0 0 5 1 1 5v7h-1v-6h-2l-1-2-15 1 3-2z" fill="#2185CD"/>
<path transform="translate(776,74)" d="m0 0h1l-2 44h-1v-42z" fill="#043158"/>
<path transform="translate(666,533)" d="m0 0 2 1-8 6-10 6-1-2-3-1 16-8z" fill="#062B4A"/>
<path transform="translate(554,425)" d="m0 0 2 3-1 3-12 3h-9l2-2 16-4z" fill="#07223C"/>
<path transform="translate(619,269)" d="m0 0h4l-1 23-2-1-1-19-4-1z" fill="#0A1522"/>
<path transform="translate(119,818)" d="m0 0 4 2 3 5 9 10 5 6-5-2-5-5v-2h-2l-9-12z" fill="#05345C"/>
<path transform="translate(804,696)" d="m0 0h13v1l-7 1 1 2h-26v-1l18-2z" fill="#043158"/>
<path transform="translate(706,721)" d="m0 0 4 1-10 3-16 2-5-1v-1l10-2z" fill="#4992E4"/>
<path transform="translate(720,560)" d="m0 0h27l-4 3h-18l-5-1z" fill="#5495EA"/>
<path transform="translate(622,272)" d="m0 0h1v27l-2 10h-1v-18h1z" fill="#062542"/>
<path transform="translate(540,986)" d="m0 0h8l10 2v1l-11 1h-11l1-3z" fill="#07203A"/>
<path transform="translate(671,227)" d="m0 0h4v2l-8 2-15 2-1-2 9-2z" fill="#07213C"/>
<path transform="translate(194,354)" d="m0 0h8l1 1v14h-1l-2-9-1-2-9-2z" fill="#5295E9"/>
<path transform="translate(641,82)" d="m0 0h2l-1 3-1 18-1 7h-1v-27z" fill="#081A2F"/>
<path transform="translate(733,78)" d="m0 0 1 3-13 3-3 1 1-5 3-1z" fill="#071F37"/>
<path transform="translate(894,614)" d="m0 0h3l2 4v8l-2 4-1 15h-1v-29z" fill="#062745"/>
<path transform="translate(222,544)" d="m0 0 9 3 14 5-4 2-18-7h-4v-2z" fill="#062746"/>
<path transform="translate(154,860)" d="m0 0 3 1 1 2 5 2 5 6-4 1-6-4-2-4z" fill="#091A2E"/>
<path transform="translate(735,248)" d="m0 0h8v12l-2 2v-11h-9z" fill="#07233F"/>
<path transform="translate(221,225)" d="m0 0 3 1-2 2 10 3-1 2h-8l-5-4 1-3z" fill="#07233C"/>
<path transform="translate(513,988)" d="m0 0h14l6 1v1l-12 1-20-1v-1z" fill="#043158"/>
<path transform="translate(588,566)" d="m0 0 4 1-3 3-12 3 1-4z" fill="#091E31"/>
<path transform="translate(768,381)" d="m0 0 4 1h-2v2l-18 3 2-5z" fill="#043158"/>
<path transform="translate(672,260)" d="m0 0h3v11h-1l-1-7-4-1-12 2-3 1 1-3z" fill="#062542"/>
<path transform="translate(685,86)" d="m0 0h1v5h2v30h-1l-1-23h-1z" fill="#043158"/>
<path transform="translate(624,962)" d="m0 0 2 1-4 4-5 2h-5l1-4z" fill="#0A1622"/>
<path transform="translate(517,696)" d="m0 0h10l12 6v2l-5-1-5-3-12-3z" fill="#4D93E6"/>
<path transform="translate(561,417)" d="m0 0 3 1v7h7l-3 3h-7z" fill="#07223D"/>
<path transform="translate(617,247)" d="m0 0h7l4 2-5 2-13 1 4-2h2z" fill="#73CDFC"/>
<path transform="translate(283,728)" d="m0 0 4 1-13 7-5 1v-3z" fill="#081E32"/>
<path transform="translate(544,794)" d="m0 0h2v2l-11 7-4 2v-4z" fill="#073151"/>
<path transform="translate(600,562)" d="m0 0 4 1-2 3-9 3h-2l1-4z" fill="#082237"/>
<path transform="translate(387,208)" d="m0 0 15 2-3 1v2l-16-2 4-1z" fill="#08233A"/>
<path transform="translate(307,738)" d="m0 0h1l-1 7-2 8-3-2 1-7 2-5z" fill="#081D31"/>
<path transform="translate(762,243)" d="m0 0h5l3 3-16 2-1 2v-5z" fill="#071F38"/>
<path transform="translate(365,54)" d="m0 0 16 1 2 3-14-1-3-1h-7v-1z" fill="#03365F"/>
<path transform="translate(646,957)" d="m0 0h5v3l-3 2v2l-5 1-1-5h2v-2z" fill="#081B30"/>
<path transform="translate(83,743)" d="m0 0 10 3 10 4v1l-7-1-13-4z" fill="#287AC0"/>
<path transform="translate(333,705)" d="m0 0 3 1-11 7-3 2v-2l-3-1z" fill="#B7D3FA"/>
<path transform="translate(440,564)" d="m0 0 7 1 16 6-2 2-17-6-5-1z" fill="#043862"/>
<path transform="translate(67,386)" d="m0 0 2 1 1 2-11 7h-2l2-4 3-3z" fill="#091B2D"/>
<path transform="translate(346,205)" d="m0 0h9l-2 2-12 2-7-1v-1z" fill="#44B6F5"/>
<path transform="translate(470,981)" d="m0 0 9 2 1 2-9 1-5-1z" fill="#081E35"/>
<path transform="translate(552,708)" d="m0 0 18 6v2l-7-1-11-5z" fill="#4791E2"/>
<path transform="translate(731,473)" d="m0 0 6 1v5l-8-1v-4z" fill="#A6C8F7"/>
<path transform="translate(637,397)" d="m0 0 3 1v11h-2v6h-1z" fill="#042F55"/>
<path transform="translate(349,695)" d="m0 0h4l-1 3-12 6h-3v-2l9-4z" fill="#6DC2FB"/>
<path transform="translate(98,626)" d="m0 0m-2 1 4 2-8 5-5 4v-3z" fill="#091A2B"/>
<path transform="translate(82,590)" d="m0 0 15 15-2 1-7-6-5-5z" fill="#033D68"/>
<path transform="translate(228,224)" d="m0 0 3 1-1 3 2 2-10-1v-3z" fill="#4390E1"/>
<path transform="translate(717,201)" d="m0 0h1v18h7l-1 2-8 1z" fill="#091B2E"/>
<path transform="translate(454,832)" d="m0 0 4 1-3 3-9 2 1-4z" fill="#091C2F"/>
<path transform="translate(627,552)" d="m0 0 3 1-2 3-9 3v-2l-2-1z" fill="#07253E"/>
<path transform="translate(878,332)" d="m0 0 1 3-7 9-2-3 5-7z" fill="#081E33"/>
<path transform="translate(756,73)" d="m0 0h6l-2 4-7 2v-5z" fill="#07223D"/>
<path transform="translate(625,964)" d="m0 0 4 1-1 2h-2l-1 3h-3l-5-1 1-2z" fill="#09192C"/>
<path transform="translate(903,715)" d="m0 0h2v2h6v1l-20 1 3-3h9z" fill="#043158"/>
<path transform="translate(817,696)" d="m0 0h8v2l-5 1h-11l1-2z" fill="#091A2A"/>
<path transform="translate(234,428)" d="m0 0 2 1-4 6-4 3-4 2 2-4z" fill="#07233B"/>
<path transform="translate(707,220)" d="m0 0 1 3-13 3-2-1v-2l12-2z" fill="#062543"/>
<path transform="translate(247,897)" d="m0 0 3 1 1 4-11-1-1-2z" fill="#07213C"/>
<path transform="translate(671,400)" d="m0 0h4l-1 3-4 1h-9l1-2z" fill="#07223D"/>
<path transform="translate(424,46)" d="m0 0h7l4 2-7 1h-10l1-2z" fill="#43BEF9"/>
<path transform="translate(466,42)" d="m0 0h8l2 2h-8l-1 1-13-1v-1z" fill="#3DB2EF"/>
<path transform="translate(226,405)" d="m0 0 8 1 5 2-1 2-7-1-5-2z" fill="#2686D0"/>
<path transform="translate(717,254)" d="m0 0 3 1-1 14h-2z" fill="#05294A"/>
<path transform="translate(738,76)" d="m0 0h5l-1 2-2 1-6 2-1-2h-6v-1z" fill="#043158"/>
<path transform="translate(637,960)" d="m0 0 4 1-3 6v1l-6 1v-4h3v-2h2z" fill="#091A2E"/>
<path transform="translate(516,809)" d="m0 0 2 1-5 5-6 1 2-4z" fill="#092136"/>
<path transform="translate(265,416)" d="m0 0 8 1 4 2-5 1-9-1z" fill="#4490E1"/>
<path transform="translate(866,744)" d="m0 0h2l2 4-4 6-2-3v-4z" fill="#081E35"/>
<path transform="translate(354,438)" d="m0 0 17 2-4 1v2l-5-1-8-3z" fill="#1180C4"/>
<path transform="translate(664,88)" d="m0 0h12v2l-3 1h-8z" fill="#07233E"/>
<path transform="translate(207,753)" d="m0 0 3 1-3 3h-11l4-2z" fill="#0A1928"/>
<path transform="translate(521,431)" d="m0 0h1v7l-6 3-4-1 1-2 7-2z" fill="#042D52"/>
<path transform="translate(638,140)" d="m0 0h2l-1 13-2 1v-9z" fill="#0B141F"/>
<path transform="translate(649,805)" d="m0 0 1 3-4 5-7 2 5-5z" fill="#5495EA"/>
<path transform="translate(852,656)" d="m0 0 2 1-3 4-5 3-2 3h-2l2-5z" fill="#4E94E7"/>
<path transform="translate(689,723)" d="m0 0h8v1l-7 2-6 1-5-1v-1z" fill="#2687D0"/>
<path transform="translate(173,660)" d="m0 0 10 2 3 2-3 1-10-3z" fill="#4A92E4"/>
<path transform="translate(924,318)" d="m0 0h1l1 14v4h-2l-1-3z" fill="#3B8DDC"/>
<path transform="translate(691,256)" d="m0 0 3 1 2 2-11 2 1-4z" fill="#07223D"/>
<path transform="translate(757,54)" d="m0 0h11v3l-11-1z" fill="#1782C7"/>
<path transform="translate(611,966)" d="m0 0 2 1-1 2h5l-4 3-5 1 1-5h2z" fill="#091A2E"/>
<path transform="translate(492,819)" d="m0 0 3 1-1 3-7 2v-4z" fill="#08263D"/>
<path transform="translate(314,712)" d="m0 0h3l-1 3-6 3-3-1 1-2z" fill="#07223B"/>
<path transform="translate(708,555)" d="m0 0 12 4v1h-8l-4-1z" fill="#4B92E5"/>
<path transform="translate(240,425)" d="m0 0 2 1-1 3-5 3-3-1 5-5z" fill="#091B2D"/>
<path transform="translate(686,85)" d="m0 0h7v2l-4 2-1 2h-2z" fill="#081C32"/>
<path transform="translate(739,77)" d="m0 0 4 1v18h-1l-1-15z" fill="#091A2E"/>
</svg>
