<svg version="1.1" viewBox="0 0 1200 1180" width="1280" height="1280" xmlns="http://www.w3.org/2000/svg">
<path transform="translate(0)" d="m0 0h1200v1180h-1200z" fill="#071320"/>
<path transform="translate(0)" d="m0 0h1200v1180h-1200zm593 30-73 6-52 6-38 5-17 3-1 15-1 32-1 59v67l-72 11-44 8-38 8-20 5-1 6v54l2 84-16 2-38 8-35 9-30 9-20 7-25 12-12 8-8 7-7 11-7 14-5 17-2 14v26l4 27 6 24 10 28 8 18 8 16 10 17 12 16 8 10 15 16 5 4v3l-13 9-9 12-9 19-4 15-2 13v27l4 26 5 21 8 24 11 26 11 21 10 16 11 14 12 14 12 12 14 11 14 10 22 12 16 7 30 10 28 6 29 4 30 1 30-1 17-2 7 7 4 6 9 10 7 8 11 11 14 11 15 10 18 10 18 8 27 9 5 2 18 3 14 3 14 2 35 2h16l34-3 27-4 35-9 29-10 25-11 16-8 15-8 22-14 18-13 10-8 12-11 6-5 7-8 29-29 7-8 8-8 9-11 13-15 14-19 10-14 22-32 8-12 7-11 10-15 10-16 12-13 2-3 27-2 21-5 20-8 14-9 12-11 7-7 8-13 7-17v-5l-8-5-17-6-11-3-14-2h-22l-14 3-13 5-8 6 1-5 2-8 1-6v-23l-1-8 7-11 13-20 11-21 8-21 5-18 4-20 2-14 1-13v-33l-5-56-5-40-8-59v-12l11-7 11-9 10-11 11-16 8-15 5-17 2-10v-23l-4-18-4-11-2-1-18 5-18 8-17 11-12 11-7 8-7 12-3 7-1 5-3-4-7-13-9-11-10-10-13-9-17-9-20-6h-9l-2 4-2 18v33l3 18 5 17 8 16 8 11 10 10 14 8 10 3h12l-3 7-11 14-12 12-11 8-16 8-19 7-23 7-5 1v-381l-9-3-26-3-87-7-77-5-54-3-43-2z" fill="#FCFCFC"/>
<path transform="translate(1131,234)" d="m0 0 4 1 2 8 1 9v24l-6 21-10 21-8 11-4 5h-2l-2 4-3 4h-2l-2 4-4 5-7 6-2 7v23l5 41 5 43 2 31v46l-2 25-5 26-6 23-10 24-7 14-12 19-10 14-11 13-6 8-8 7-9 10-6 4-13 11-4 3h-2v2l-11 7-23 15-13 8-15 8-22 10-24 9-28 8-25 5-20 3-11 1-26 1h-27l-4-1-19-2-20-3-32-8-24-9-20-9-18-11-16-12-12-11-12-12-13-17-12-19-8-14-11-25-6-17v-3l6 2 19 8 19 6 23 3h41l26-3 23-5 25-7 26-9 24-10 22-11 15-10 5-4-6 1-11 6-16 9-31 13-35 12-19 5-26 5-27 3h-34l-24-3-19-5-6-1v-2l-6-1-15-6-2-2-3-9-5-26-1-7v-26l5-23 5-12 8-15 1-1 15 1 23 5 8-1 23-6 15-3 12-3 26-6 48-11 34-8 30-6 17-4 27-5 27-6 34-7 36-8 12-3 20-4 2-1 1-8 23-6 8-4 11-2v-2l11-4 10-7 11-8 12-12 10-14 4-7h2v-10l-11-4-13-6v-2l-4-1-2-1v-2l-4-1-5-6-3-3-10-15-8-19-6-25-1-7v-29l1-8 4-1 21 7 14 8 3 1v2l5 2 13 11 5 5 10 13 7 12 2 6 1 7 2 1 1-11 5-11 7-14 11-13 9-8 16-10 15-7z" fill="#6FA7FB"/>
<path transform="translate(1046,714)" d="m0 0h3l1 21-3 21-2 6h-2l-2 5 4-1v-2l6-4 12-6 12-4 5-2 10-1h18l24 3 12 3 9 4-1 8-5 8-6 9-5 5-10 9-15 10-20 8-25 6-6 1-18 1-6 4-7 6-11 14-9 14-7 10-1 3h-2l-2 5-14 19-13 19-6 7-10 14-14 19-8 10-11 13-8 10-7 7-7 8-20 20-8 7-12 12-11 9-9 7h-2v2l-11 7-18 12-23 13-24 12-12 5-25 9-29 8-36 6-21 2h-45l-35-4-30-7-30-10-18-8-17-9-12-8-14-11-12-11-11-12-13-17-12-20-9-17-12-29-2-10 24 10 20 6 19 3 11 1h22l25-2 29-5 30-8 29-10 30-13 17-9 15-10 4-5-14 7-22 12-21 9-24 9-22 7-5 2-34 7-16 2-10 2h-34l-24-3-17-4-10-2-6-3-11-4-5-2-5-10-5-22-2-13v-21l4-24 2-9 4-6 6-12 4-6 7-8 10-6 22-9 13-3h7l24 5 27 3 27 1 24-1 19-2 10-1 18-3 26-6 7-1 16 8 9 4 16 6 22 8 16 3 20 4 21 2 26 1 31-1 35-4 35-8 14-4 10-4 15-5 12-5 16 1 6 1 18-1 24-5 10-4 5-1-2-8-9-17 1-5 11-7h2l1-3 4-1v-2h2l1-3 5-3h2l1-3 6-5h2v-2h2v-3l8-7 1-2h3l2-5 10-10z" fill="#6FA7FB"/>
<path transform="translate(245,261)" d="m0 0 11 1 37 6 36 5 18 4 29 5 42 8 28 6 44 9 13 3 9 2 20 3 15 3 14 3 1 1v167l1 38-9-1-50-11-10-2-82-19-49-12-59-14-22-5-36-6-1-1z" fill="#48C8FC"/>
<path transform="translate(122,724)" d="m0 0 5 2 16 11 13 8 6 2v2l5 2 17 7 32 10 30 6 13 2 31 2h28l25-2h8l3 3 7 3v2l9 3 2 1v2l12 4v2l11 3 14 5 6 1-2 2-20 9-14 9-9 7-8 13-7 15-4 15-2 14v29l5 30 6 22 10 28 8 18 9 17v2l-9 1h-52l-20-2-20-3-26-6-24-8-21-9-14-7-17-11-16-13-13-12-12-14-12-17-9-15-8-16-7-15-8-22 1-3 20 9 20 6 14 3 17 2h28l31-3 29-6 33-10 29-11 25-12 22-12 4-2 2-4h2v-2l-14 6-21 12-25 11-34 12-25 7-25 5-25 3h-44l-20-3-28-7v-2l-5-1-12-5-3-4-6-27-1-2-1-10v-23l5-26 5-12 9-17 8-8 7-4z" fill="#CDE0FD"/>
<path transform="translate(419,56)" d="m0 0h12l3 1 41 4 18 2 50 5 28 2 150 11 25 4 2 2v26l-2 63-1 36-1 65-18-2-61-9-66-9-34-5-24-4-35-5-29-5-34-5-21-4-3-1z" fill="#48C8FC"/>
<path transform="translate(787,615)" d="m0 0h2l-1 21v48l4 21 4 15 5 12 7 11 9 11 10 9 15 9 16 6 17 4 14 2 26 2h7l8-1-3 3-24 11-24 9-28 8-25 5-20 3-11 1-26 1h-27l-4-1-19-2-20-3-32-8-24-9-20-9-18-11-16-12-12-11-12-12-13-17-12-19-8-14-11-25-6-17v-3l6 2 19 8 19 6 23 3h41l26-3 23-5 25-7 26-9 24-10 22-11 15-10z" fill="#CDE0FD"/>
<path transform="translate(636,926)" d="m0 0 2 1-4 29-1 12v20l3 18 5 20 5 12 4 8 8 12 8 9 11 8 14 8 14 6 18 5 18 4 12 2 2 1h10v2l-8 4-27 10-31 9-33 6-28 3h-45l-35-4-30-7-30-10-18-8-17-9-12-8-14-11-12-11-11-12-13-17-12-20-9-17-12-29-2-10 24 10 20 6 19 3 11 1h22l25-2 29-5 30-8 29-10 30-13 17-9z" fill="#CDE0FD"/>
<path transform="translate(497,614)" d="m0 0 2 1 4 23 4 17 10 29 12 27 9 16 9 14 11 14 9 10 7 8 13 12 10 8-3 2-36 6-17 2-18 1h-24l-36-3-18-3-25-6-30-10-27-13-16-10-14-11-7-7-8-7-11-12-10-13-10-16-12-22-10-23-5-14v-3l6 2 14 6 18 6 20 4 8 1h42l25-3 28-6 30-9 32-12z" fill="#CDE0FD"/>
<path transform="translate(228,406)" d="m0 0h9l1 5 1 33v16l14 2 21 5v2l8 1 17 4 3 3-14 8-6 3h-2v2l-6 3-12 11-10 17-5 13-4 21-1 11v20l-24 7-31 7-29 4h-42l-25-4-22-6-14-5-7-5-5-16-4-23v-32l3-16 5-14 8-15 9-10 9-7 9-5 17-6 7-3 13-4 15-5 14-4 9-2 14-4 15-3 11-3z" fill="#6FA7FB"/>
<path transform="translate(740,288)" d="m0 0h4l2 168v27l-13 4-16 3-9 2-1 1-15 3-12 3-1 1-20 4h-4v2l-20 4-17 4-1 1-12 1v2l-12 2-8 3-11 3h-6v-39l1-118 1-40 3-8 25-5 16-4 19-3 12-3 20-3 53-10 15-3z" fill="#0785C5"/>
<path transform="translate(313,479)" d="m0 0 10 1 56 14 26 6 13 4 17 3 4 2 12 3 16 3 36 8 12 2v4h-2l-3 9-5 13h-2l-2 13h-2l-1 9-1 2v33l-14 7-27 10-24 8-31 7-28 4-14 1h-27l-20-2-15-3-20-6-12-5-6-1-4-11-3-10-3-18-1-3v-26l4-23 9-22 3-4 4-7 7-7 11-7 20-8z" fill="#6FA7FB"/>
<path transform="translate(912,258)" d="m0 0h12l1 32 1 84 1 47v23l-13 2-48 10-54 12h-5v2l-18 3-5 2-17 3-11 3h-5l-1-45v-102l1-47 43-8 53-9 9-1 13-3 19-3h7v-2z" fill="#0785C5"/>
<path transform="translate(915,61)" d="m0 0h8v187l-1 2-23 5-20 2-12 1v2l-19 2-44 8-39 7h-7v2h-8v-65l1-54 1-12 1-60 2-2 26-4 30-3 57-9 38-7 1-1z" fill="#0783C3"/>
<path transform="translate(122,724)" d="m0 0 5 2 16 11 13 8 6 2v2l5 2 17 7 32 10 30 6 13 2 31 2h28l25-2h8l3 3 7 3v2l9 3 2 1v2l12 4v2l11 3 14 5 6 1-2 2-20 9-13 8-4-1v-2l-14 6-21 12-25 11-34 12-25 7-25 5-25 3h-44l-20-3-28-7v-2l-5-1-12-5-3-4-6-27-1-2-1-10v-23l5-26 5-12 9-17 8-8 7-4z" fill="#6FA7FB"/>
<path transform="translate(50,590)" d="m0 0 13 5 18 7 14 4 21 3 14 1h15l24-2 21-3 26-6 23-7 4-1 2 9 5 26 12 35 10 23 10 19 11 17 11 14 9 10 7 8 10 10-11 1h-32l-28-2-21-3-32-8-26-9-18-8-19-11-11-8-11-9-13-12-10-11-13-17-11-18-11-21-11-27z" fill="#CDE0FD"/>
<path transform="translate(413,231)" d="m0 0 36 6 70 12 55 9 136 19 27 4-1 2-25 4-68 14-37 8-31 7h-9l-24-5-75-15-71-15-68-12-51-8-21-3 4-2 25-5 12-3 22-3 28-5 23-3 33-5z" fill="#82D8FC"/>
<path transform="translate(596,36)" d="m0 0h45l87 5 109 8 57 5 6 1v1l-36 6-73 12-26 5h-24l-70-6-102-7-39-3-77-7-21-2 3-2 23-3 58-6z" fill="#82D8FC"/>
<path transform="translate(713,851)" d="m0 0h13l13 3 9 5 9 7 6 7 8 16 1 5v16l-2 9-7 13-9 9-10 7-12 6-11 3h-19l-16-4-11-6v-2l-5-2-7-10-4-8-2-9v-13l3-10 8-15 10-11 11-8 13-6z" fill="#070B10"/>
<path transform="translate(858,542)" d="m0 0h20l9 2 13 8 9 8v2h2l6 11 3 8 1 6v13l-4 14-7 10-4 5-10 8-15 8-12 3h-18l-10-2-12-5-9-7-7-8-4-7-2-7v-20l3-10 6-11 6-8 6-6h2v-2l9-6 15-6z" fill="#070E16"/>
<path transform="translate(858,545)" d="m0 0h15l13 3 10 6 8 7 7 11 4 10 1 6v9l-3 12-6 10-5 6-12 9-13 6-10 2h-16l-10-2-12-5-10-9-5-7-3-10v-16l1-5h2l2 12 5 8 8 6 12 2 14-3 11-6 10-10 4-8 2-15-3-9-4-6-5-5-9-4-8-1 1-3z" fill="#FAFBFC"/>
<path transform="translate(709,855)" d="m0 0h19l10 3 10 6 10 10 7 14 2 9v10l-3 12-7 11-11 10-12 7-12 4h-22l-12-3-10-5-7-6-6-10-3-9-1-15 1-5h2l3 11 4 7 7 6 7 3h10l14-4 11-7 7-8 4-8 1-5v-15l-4-8-7-7-7-3-9-1-1-2z" fill="#F9FBFC"/>
<path transform="translate(1137,228)" d="m0 0 3 3 6 21 1 6v23l-4 18-5 13-9 16-10 13-11 12-11 8-8 5v12l1 14-5-5v-23l3-8 7-6 6-8 5-5 9-10 8-13 8-17 6-21v-24l-2-14-1-3-4 1-14 5-19 10-11 8-10 9-9 12-8 18-2 4-1 9-1 2-3-1-2-10-4-8-7-11-6-8-5-4-4-5-14-10v-2l-4-1-16-8-18-6h-3l-1 8v29l5 25 5 15 8 16 7 10v2l4 2 3 3v2l4 1v2l6 2v2l5 1 15 7 5 2-1 10h-4l2-7h-12l-12-4-12-7-12-12-9-14-6-14-5-18-2-14v-33l2-18 2-4h9l20 6 19 10 13 10 11 11 9 13 6 12h1l3-9 6-12 7-9 10-10 13-9 14-8 15-6z" fill="#071421"/>
<path transform="translate(641,325)" d="m0 0h7v167l-8 3-13 3h-3v-169l12-3z" fill="#0785C5"/>
<path transform="translate(603,333)" d="m0 0h6v169l-8 3-10 2h-5v-170l12-3z" fill="#0785C5"/>
<path transform="translate(821,291)" d="m0 0h7v160l-5 2-12 2h-6l-1-50v-109l2-2z" fill="#0785C5"/>
<path transform="translate(720,310)" d="m0 0h6v163l-8 3-13 3h-2v-164l6-3z" fill="#0786C6"/>
<path transform="translate(684,317)" d="m0 0h2v166l-2 2-15 3h-6v-166l9-3z" fill="#0786C6"/>
<path transform="translate(865,83)" d="m0 0h4l-2 77-1 83-7 2-16 2v-75l1-81 1-4z" fill="#0785C5"/>
<path transform="translate(825,90)" d="m0 0h4v50l-1 109-13 3-11 1v-43l2-105 1-12 8-2z" fill="#0785C5"/>
<path transform="translate(789,95)" d="m0 0h2v32l-2 128-2 2-15 3h-6v-38l1-109 1-14z" fill="#0786C6"/>
<path transform="translate(906,76)" d="m0 0 2 1v22l-1 64v73l-4 2-12 2h-8v-51l1-95 1-14 18-3z" fill="#0785C5"/>
<path transform="translate(899,277)" d="m0 0h7v159l-22 4-1-1v-157l1-2z" fill="#0785C5"/>
<path transform="translate(861,284)" d="m0 0h5v160l-11 3-12 1v-159l2-2z" fill="#0785C5"/>
<path transform="translate(783,298)" d="m0 0h6l1 160-6 3-14 3h-3v-162l4-2z" fill="#0786C6"/>
<path transform="translate(915,61)" d="m0 0h8v187l-1 2-23 5h-10l1-3 14-2 5-5 3-1 2-7h-2v2h-2l-1-5v-95l1-59 1-6 2 1 1 3 1-4h2l-1-4 1-2-6-2-1-3-3-1z" fill="#0874B3"/>
<path transform="translate(421,505)" d="m0 0 11 1 7 3 12 3 16 3 36 8 12 2v4h-2l-3 9-5 13h-2l-2 13h-2l-1 9-3 2-10-14-13-15-9-9-11-9-14-11-10-7-7-4z" fill="#328BCF"/>
<path transform="translate(260,631)" d="m0 0 6 2 14 6 15 5 2 3-5 4-7-1-6-3v-2l-2 1 2 3-2 6 5 8 5 13 5 9 3 5 8 12 8 11 12 13 14 13 8 6 3 5 12 5 10 7 14 8 3 2v2l4 1 3 2v3l9 1 11 5 5 4-9-1-20-7-27-13-16-10-14-11-7-7-8-7-11-12-10-13-10-16-12-22-10-23-5-14z" fill="#CDE3FC"/>
<path transform="translate(515,653)" d="m0 0 6 2 19 8 21 7v3l-5-1-5 3 1 3-3 1-9-3-5 1-1-2-2 4 3 6 1-3 5 10-2 1 7 14 3 8 6 5 9 11 9 10 16 16 6 9 3 3 5 6 14 8 9 6 9 5 10 5 16 6 7 3 1 4-11-3-29-12-18-10-17-12-13-11-16-16-13-17-12-19-8-14-11-25-6-17z" fill="#CEE4FC"/>
<path transform="translate(366,962)" d="m0 0 24 10 10 4v3l-5 1-9-1-5 1 2 9 7 16 4 10 6 8 6 10 4 3 2 2 3 5 19 19-1 2-4-2 1 3 5 2 3 2 3-1 4 5-1 1 8 7 5 3 5 5 9 6 4 1v2l5 1 14 8 23 10 9 3 1 2-9-1-25-9-23-11-19-12-14-11-12-11-11-12-13-17-12-20-9-17-12-29z" fill="#CDE3FC"/>
<path transform="translate(686,314)" d="m0 0 4 1-1 33v131l1 6-15 4-13 3-4-1v-114l1-44 1-13 5-2zm-2 3-20 4-1 1v166l11-1 10-2 2-4v-164z" fill="#053D73"/>
<path transform="translate(713,851)" d="m0 0h13l13 3 9 5 9 7 6 7 8 16 1 5v16l-2 9-7 13-9 9-10 7-12 6-11 3h-19l-16-4-11-6v-2l-5-2-7-10-4-8-2-9v-13l2-8 1 2 4-2 1 1v5l-1-3h-2v11l2 13 6 12 4 5 9 6 12 4 5 1h22l14-5 11-7 9-8 7-11 3-12v-10l-3-12-6-11-10-10-14-7-5-1-17-1z" fill="#071A2C"/>
<path transform="translate(828,287)" d="m0 0h3v166l-12 3-18 3-1-4v-84l1-72 2-7zm-7 4-15 3-2 2v109l1 50 12-1 10-2 1-1v-160z" fill="#054A85"/>
<path transform="translate(608,330)" d="m0 0h4v174l-5 2-19 4-6 1v-147l1-28 9-3zm-5 3-15 3-2 1v170l10-1 12-3 1-1v-169z" fill="#053465"/>
<path transform="translate(649,321)" d="m0 0h3v173l-7 2-21 5h-4v-139l1-35zm-8 4-15 3-2 1v169l11-2 12-3 1-1v-167z" fill="#054279"/>
<path transform="translate(866,80)" d="m0 0h5v42l-1 123-17 3-15 2 3-165 13-3zm-1 3-20 4-1 4-1 81v75l21-3 2-1 1-83 2-77z" fill="#054B86"/>
<path transform="translate(824,87)" d="m0 0h8v53l-1 111-10 2-17 3h-5l1-4v-25l1-78 1-42 1-15 2-2zm1 3-16 2-2 1-1 12-2 105v43l11-1 13-3 1-109v-50z" fill="#053A6E"/>
<path transform="translate(785,295)" d="m0 0h7v166l-5 2-21 4h-3v-124l1-43 9-3zm-2 3-15 3-1 1v162l12-2 10-3 1-2-1-159z" fill="#053669"/>
<path transform="translate(861,281)" d="m0 0h8l1 164-3 2-22 4h-5l-1-10v-74l1-69 1-12 9-3zm0 3-16 3-2 2v159l12-1 11-3v-160z" fill="#054B86"/>
<path transform="translate(727,306)" d="m0 0h2v169l-13 4-15 4-3-1 1-1v-113l1-56 16-4zm-7 4-14 3-3 2v164l12-2 10-3 1-1v-163z" fill="#053161"/>
<path transform="translate(112,896)" d="m0 0 6 1 5 7 3 2 2-1 3 6-2 1 3 5 8 11 1 7 8 5 1 6 1 4 3 3 5 2 4 6v2l4 2 13 14h2l2 3 4 1v2l5 1 5 5 3 1 3 3h2l4 4h3l5 5v2h2v2h4v2l4 1 1 2-5-1-15-7-16-9-10-7-14-11-15-14-9-11-10-13-12-19-8-15-3-7z" fill="#CEE4FC"/>
<path transform="translate(636,926)" d="m0 0 2 1-4 25-2 2v-2l-5 1-7 11-6 2-3-2 7-6 1-3-11 2-12 5-22 5-1-3-5 3-11 2-9 2-5 2-4-2v-2l36-12 30-13 17-9z" fill="#CEE4FC"/>
<path transform="translate(374,823)" d="m0 0h5l-1 3-8 6-8 13-7 15-4 15-3 19-1 10h-2l-2-11v-7l3-10 1-4v-8l-1-1h-2l1-9-5-2-1 3-14 8 1-4 2-3-2 1-4 3-9 2h-3v2l-2 1-12 1 5 3v2l-7 2-3 1-5-1-4 3-9-1-6 2-2-3 8-4 33-11 24-10 22-11 17-10 3-1z" fill="#CDE3FC"/>
<path transform="translate(909,73)" d="m0 0 2 1-1 65v100l-25 4h-7l1-2 1-104 1-58 5-2zm-3 3-16 3-5 1-1 14-1 95v51h8l15-3 1-3v-71l1-64v-22z" fill="#053C71"/>
<path transform="translate(791,92)" d="m0 0h3v39l-2 126-4 2-26 5v-29l1-32 1-66 1-40 16-3zm-2 3-21 4-1 14-1 109v38l11-1 10-2 2-2 2-128v-32z" fill="#05386C"/>
<path transform="translate(907,273)" d="m0 0h3v163l-3 3-27 5v-145l1-21 8-2zm-8 4-15 3-1 2v157l3 1 20-4v-159z" fill="#054B86"/>
<path transform="translate(89,660)" d="m0 0 5 2 6 5-1 3 2 2-1 1 4 3v2l4 2 8 8v2l4 2 5 6 11 6 8 7 7 4v2l5 2 7 4 3 4v2l10 3 14 7 6 4 10 2 4 3 7 2v1h-7l-30-10-18-8-19-11-11-8-11-9-13-12-10-11-13-17 2-4z" fill="#CDE4FC"/>
<path transform="translate(912,258)" d="m0 0h12l1 32 1 84 1 47v23h-7l1-6h2l-1-47-1-23-1-17-2-19-1-14v-35l-1-11 2-1-1-3h2l-2-6h-22v-1z" fill="#0867A3"/>
<path transform="translate(914,85)" d="m0 0 3 2 2 39-1 36v21l-1 22-2 11-4-2-1-10v-66l1-49z" fill="#0787C7"/>
<path transform="translate(971,779)" d="m0 0h2l7 10 8 9v2l-23 5-11 1h-18l-8-1v-2l25-13z" fill="#F8FAFC"/>
<path transform="translate(249,629)" d="m0 0h2l11 32 10 23 10 19 11 17 6 8v3l-7-2-4-3v-2h-2l-2-7h-2l-8-14-1-1v-5l-3-1-2-4v-3h-2l-8-19v-8h-2l-3-11-4-10-3-3v-6l3-1z" fill="#CDE3FC"/>
<path transform="translate(689,833)" d="m0 0 25 5 21 2 26 1h24v1l-19 1-7 1-3 2-6-1-1 10 2 1-2 2h-5l-12-6v-1l-9-1-3-2-8-3-6-2-4-1v-3l-3 1v-2l-7 1-3-4z" fill="#689CEA"/>
<path transform="translate(243,461)" d="m0 0 10 1 21 5v2l8 1 17 4 3 3-14 8-6 3h-2v2l-5-2-7-8-8-7-11-7-6-3z" fill="#2F88CC"/>
<path transform="translate(737,1099)" d="m0 0h9l9 2h10v2l-8 4-27 10-31 9-33 6-17 2h-16l-1-2 13-1 5-2 10-2h14l5-3 6-1h11l4-2-1-2h13l11-4 12-4 3-5h2v-5l-3-1z" fill="#CDE3FC"/>
<path transform="translate(765,97)" d="m0 0h4l-1 16-1 109-1 38 9-1 2 2-15 3v-29l1-32 1-66z" fill="#053668"/>
<path transform="translate(766,302)" d="m0 0h1v162l20-5 2-2v-85l1-1 1-58h1v148l-5 2-16 3-5-1z" fill="#054B86"/>
<path transform="translate(142,895)" d="m0 0 7 3 2 1-2 6-1 2 8-2 6-1-4 9h-4l1 3 2 2-1 4 5 6 5 5 12 5 1 2-1 2-8-1-4 1-4-5-2-3-6-2-1-7-5-1-4-7v-2h-4l-5-8v-5l7-3z" fill="#D0E6FD"/>
<path transform="translate(810,89)" d="m0 0h11v2l-14 2-1 65-2 95h-1v-60l-1 20h-1v-64l1-42 1-15 2-2z" fill="#053669"/>
<path transform="translate(497,614)" d="m0 0 2 1 2 13v6l-5 3-3-8v-3h-2v-2l-3 2-7 2-7 6-9 5-11 3 1-4h-14l1-3 31-11z" fill="#CEE4FC"/>
<path transform="translate(99,863)" d="m0 0 24 10 21 6 4 1 3 4-1 3-3 1-8-2-9-1-11-4h-5l-1 3-2 9h-2l-9-24z" fill="#CCE3FC"/>
<path transform="translate(866,80)" d="m0 0h5v42l-3 1v-36l1-4-19 4h-5l-1 85-1 6-2-1v-92l13-3z" fill="#052E5D"/>
<path transform="translate(840,298)" d="m0 0h1l1 6h1v144l-3-1-1-6v-74z" fill="#054B86"/>
<path transform="translate(767,628)" d="m0 0h2v2l-3 3-1 6-10 7-9 6-4 2-2-3-3-1v-1l-9 5-16 2-3-1v-2l24-9 18-8z" fill="#CDE4FC"/>
<path transform="translate(517,692)" d="m0 0 4 1 8 18 9 16 9 14 11 14 9 10 3 4-1 2-5-4-2 2-5-1-1-5h3l-3-3v-2h-5v-3l-2-2v-4h-2v-2l-4 1-3-3v-2h3l-1-2-3-1-14-22 1-5-4-8-4-2-2-9z" fill="#CCE3FC"/>
<path transform="translate(750,287)" d="m0 0h1v194l-3-1-2 3-1-27v-67h1l1 59 1-17 1-119z" fill="#053465"/>
<path transform="translate(608,330)" d="m0 0h4l-1 2-13 3-12 2v170h-1l-1-141v142l4 2-6 1v-147l1-28 9-3z" fill="#054B86"/>
<path transform="translate(865,280)" d="m0 0h5l1 22v60l1 81 6 1 1-130h1l1 131-10 2-4-1 2-1v-164z" fill="#0976B5"/>
<path transform="translate(727,306)" d="m0 0h2v32l-1 132h-1l-1-6-1-47v-109z" fill="#053162"/>
<path transform="translate(803,369)" d="m0 0h1l1 36v50l3 1h-5l6 1v1l-8 1-1-4v-84z" fill="#054A85"/>
<path transform="translate(828,287)" d="m0 0h3l-1 69h-1v-65l-17 3-7 2-1 73-1 1-1 10h-1v-81l2-7z" fill="#054178"/>
<path transform="translate(882,78)" d="m0 0 3 1h-2l2 2-1 108h-1l-1-35-1 88 4 1h-7l1-2 1-104 1-58z" fill="#054B86"/>
<path transform="translate(1090,747)" d="m0 0h18l24 3 12 3 9 4-1 8-2 2-1-8h-2v-2h-9l-6-3-9-2-2-1h-36l-8 4-9 4-7 2-2-1v2l-2-1-1-4 19-7 5-2z" fill="#669BE9"/>
<path transform="translate(343,776)" d="m0 0h8l3 3 7 3v2l9 3 2 1v2l12 4v2l11 3 14 5 6 1-2 2-6 2-5-1-4 4-9 3-7 4-2-1 4-4 4-1v-2l6-1 1-8-4-1-5-1-7-3-11-4-7-4v-2l-4-1-4-4-3-1-2-3-5-1z" fill="#6199E5"/>
<path transform="translate(702,329)" d="m0 0h1v150l15-4 7-2 1-9h1l1-34h1v45l-13 4-15 4-3-1 1-1 1-45h1z" fill="#054781"/>
<path transform="translate(907,273)" d="m0 0h3l-1 33-1 119h-1v-148l-23 3-1 20-1 43h-1v-65l8-2z" fill="#062B59"/>
<path transform="translate(648,326)" d="m0 0h1l1 30h1v113h-1l-1 23h-1z" fill="#054B86"/>
<path transform="translate(584,356)" d="m0 0h1v151l16-3 6 1v1l-16 3h-7l-1-1v-142z" fill="#052E5D"/>
<path transform="translate(1131,234)" d="m0 0 4 1 2 8 1 9v24l-2-3-1-8-1-12-2-8h-13l-7 3-5 2-4 3h-9l5-4 17-9 14-5z" fill="#649BE8"/>
<path transform="translate(880,299)" d="m0 0 3 1v129h-1l-1 13h5v1l-6 1z" fill="#054B86"/>
<path transform="translate(659,404)" d="m0 0 3 1v84l22-5 4-1v3l-26 6-4-1z" fill="#052C5B"/>
<path transform="translate(50,590)" d="m0 0 13 5 18 7 4 1 2 4-3 2-5-1-3-2v-2l-2 2v1l-9 2-4 2-4-6-4-4z" fill="#CBE2FC"/>
<path transform="translate(737,1099)" d="m0 0h9l9 2h10v2l-8 4-27 10-16 5h-2l2-4 21-7 3-5h2v-5l-3-1z" fill="#CFE4FC"/>
<path transform="translate(800,819)" d="m0 0 9 1 5 2v1l-19 2-26 1h-27l-7-3 3-2h49l3-1 5 2v-2z" fill="#C9E1FC"/>
<path transform="translate(685,355)" d="m0 0h1l1 10h1l1 114 1 6h-2v-2h-2l-1-2z" fill="#054B86"/>
<path transform="translate(501,637)" d="m0 0 2 1 4 17 5 15v6l-3-1-4-8-2 3-3-4-3-9v-13z" fill="#CDE3FC"/>
<path transform="translate(157,883)" d="m0 0h14l1 1 30 1-1 2h-2v2h-8l-11 1-6 1-8 1h-8l-4-5 1-3z" fill="#CEE4FC"/>
<path transform="translate(840,146)" d="m0 0h1l1 31 1 1v69h-1l-1-15-1 16h-1v-48z" fill="#054B86"/>
<path transform="translate(661,825)" d="m0 0 8 1 12 4 9 1 11 3 27 4 10 1h27l3-1 7 1h12l20-2 3-1 1-2h4v2h12v1l-35 4-35 1-24-1-24-3-23-5-11-2-14-5z" fill="#075994"/>
<path transform="translate(765,97)" d="m0 0h4l-1 16-1 73-2 5h-1v-54z" fill="#053363"/>
<path transform="translate(122,724)" d="m0 0 5 2 16 11 12 7-3 1-12-6-3-1-5-5-8-2-5 2-5-1v6l-3 4h-2l-1 4-4 6h-2l-1 4-4 1 2-6 7-13 8-8 7-4z" fill="#679CE9"/>
<path transform="translate(466,796)" d="m0 0h12v2l6 1 7-1 7 1h4 2v2h6l1-2h2 6l2 2v-2l4 1-2 4h-24l-36-3 1-4z" fill="#C3DCFA"/>
<path transform="translate(926,785)" d="m0 0 4 1-16 8-11 5-7 2 2-4 5-3-1-4h-12l-1-4h33z" fill="#CCE2FC"/>
<path transform="translate(686,314)" d="m0 0 4 1-1 33-1 17-1 94h-1v-142l-2-1z" fill="#052F5F"/>
<path transform="translate(124,680)" d="m0 0 8 1 4 3 2 5 4 1v2h2l-1 3-9 2-5-3-5-1-3-3 1-8z" fill="#CFE5FD"/>
<path transform="translate(788,81)" d="m0 0h7l-4 3-10 2-4 2-16 1h-5v16l-2 28h-1v-45l2-2 26-4z" fill="#0764A0"/>
<path transform="translate(766,302)" d="m0 0h1v162l24-6v4l-20 4-5-1z" fill="#054A85"/>
<path transform="translate(241,591)" d="m0 0h2l2 9 2 11-1 5h-2v3h-2l-2-9-4-9-6-1h-5l2-4 12-4z" fill="#CBE2FB"/>
<path transform="translate(203,764)" d="m0 0 7 1 33 7 22 3 8 1 24 1 3 1 1-4h2l1 2h19l25-1v1l-5 1-26 2h-29l-31-2-11-2-10-2-24-5-9-3z" fill="#065892"/>
<path transform="translate(909,73)" d="m0 0 2 1-1 65-2 4-1-66-22 4-2 1v-3l3-2z" fill="#053669"/>
<path transform="translate(1095,484)" d="m0 0h2l1 18v46l-1 17-2 3v-26l-1-2v-18z" fill="#689CEA"/>
<path transform="translate(295,863)" d="m0 0 2 1-1 2 5 3v2l-7 2-3 1-5-1-4 3-9-1-6 2-2-3 8-4z" fill="#CEE4FC"/>
<path transform="translate(571,320)" d="m0 0h5l-3 2-2 7-1 40-1 118h-1v-133l1-30z" fill="#05386C"/>
<path transform="translate(803,192)" d="m0 0h1l-1 61 18-3 8 1v1l-25 4h-5l1-4v-25l2-34z" fill="#053465"/>
<path transform="translate(649,321)" d="m0 0h3l-2 87h-1l-1-82h-7l-15 3-4 2 1-4 16-4z" fill="#062B58"/>
<path transform="translate(1043,683)" d="m0 0 6 1-2 5-3 3-2 6-8 9h-2l-1-10 4-6h2l2-4z" fill="#6A9DEB"/>
<path transform="translate(788,295)" d="m0 0h4v18l-1 58-2 1v-75l-3-1z" fill="#053365"/>
<path transform="translate(254,468)" d="m0 0 6 1v2l10-1 6 3 1 3-2 2 5 2-1 4-2 4-4-2-5-6-8-7-6-4z" fill="#0A76B6"/>
<path transform="translate(424,788)" d="m0 0 8 1 6 2 1 2 5-1 10 2 5 5-4 1-24-5-14-4 3-2z" fill="#C9E1FC"/>
<path transform="translate(861,281)" d="m0 0h8l-1 18h-1v-15l-22 4-1 1-1 15-1 41h-1v-59l9-3z" fill="#052C5B"/>
<path transform="translate(907,273)" d="m0 0h3l-1 13h-1l-1-10-1 1-22 3-1 20-1 43h-1v-65l8-2z" fill="#053364"/>
<path transform="translate(354,956)" d="m0 0h2l6 20 4 12-4 1-4-6-6-16v-9h2z" fill="#CAE1FC"/>
<path transform="translate(392,799)" d="m0 0 9 2 8 3 6 1-2 2-6 2-5-1-4 4-9 3-7 4-2-1 4-4 4-1v-2l6-1 1-8z" fill="#689CEA"/>
<path transform="translate(866,80)" d="m0 0h5v42l-3 1v-36l1-4-8 2-4-1-3-2z" fill="#05386B"/>
<path transform="translate(583,364)" d="m0 0 1 2v142l4 2-6 1v-146z" fill="#054B86"/>
<path transform="translate(648,326)" d="m0 0h1l1 30h1v58l-3 1z" fill="#054984"/>
<path transform="translate(787,615)" d="m0 0h2l-2 12-3 1v2l-11 1v-2l-3-1 5-5z" fill="#CDE4FC"/>
<path transform="translate(563,671)" d="m0 0h10l12 2 1 5h12l1 2-18 1 1-3-5-1h-8l-5-3z" fill="#CCE3FC"/>
<path transform="translate(804,172)" d="m0 0h1v38l-1 43h-1v-60l-1 20h-1v-39h2v15z" fill="#054B86"/>
<path transform="translate(881,393)" d="m0 0h1l1 36 1 10 18-3h5v-4h2v6l-12 3-7 1h-9z" fill="#053A6E"/>
<path transform="translate(434,984)" d="m0 0h31l5 1-1 3-3-1-1 2-2-3h-6l-2 2h-3v2l2 1h-13l1-3h-9z" fill="#CFE5FD"/>
<path transform="translate(721,307)" d="m0 0h5v3l-20 4-2 1-1 14h-2v22h-1v-39l16-4z" fill="#053A6F"/>
<path transform="translate(791,92)" d="m0 0h3v39h-1l-1-21h-1v-15l-8 2-14 2-1-3z" fill="#054178"/>
<path transform="translate(117,728)" d="m0 0m-1 1m-2 1 2 1-2 5-3 6h-2l-1 4-4 6h-2l-1 4-4 1 2-6 7-13z" fill="#6199E6"/>
<path transform="translate(364,990)" d="m0 0h3l9 21v3l-3-1-2 2-6-12v-5l-2-3z" fill="#CCE3FC"/>
<path transform="translate(1121,749)" d="m0 0 11 1 12 3 9 4-1 8-2 2-1-8h-2v-2h-9l-6-3-9-2-2-1z" fill="#6199E6"/>
<path transform="translate(824,87)" d="m0 0h8v53h-1l-1-32h-1v-18l-8 1v-2h-5v-1z" fill="#053D72"/>
<path transform="translate(811,834)" d="m0 0h4v2h12v1l-35 4-35 1-10-1v-1l18-1 3-1 7 1h12l20-2 3-1z" fill="#075892"/>
<path transform="translate(860,780)" d="m0 0 9 1 11 2 3 2v2l-3 2-9-1-12-3z" fill="#CFE5FD"/>
<path transform="translate(649,466)" d="m0 0 2 3 1 25-7 2-12 3h-7l1-2 20-5h2z" fill="#052D5C"/>
<path transform="translate(909,73)" d="m0 0 2 1-1 9-2 4-1-10-22 4-2 1v-3l3-2z" fill="#053A6E"/>
<path transform="translate(841,230)" d="m0 0h1v17l10-2 17-3-1 3-7 2-23 3 1-2 1-16z" fill="#053A6E"/>
<path transform="translate(700,436)" d="m0 0h1v24h2v19h3v2l-5 2-3-1 1-1z" fill="#053A6E"/>
<path transform="translate(505,651)" d="m0 0 2 4 5 15v6l-3-1-6-12 1-7z" fill="#CBE2FC"/>
<path transform="translate(828,287)" d="m0 0h3l-1 69h-1l-1-65-2-2z" fill="#062B59"/>
<path transform="translate(858,545)" d="m0 0h15l6 1v2l-11 1-4 2-11-2 1-3z" fill="#AFCEF8"/>
<path transform="translate(1081,262)" d="m0 0 1 2-1 5h-2l-1 6-7 5-5 2 2-5 11-13z" fill="#5F9AE7"/>
<path transform="translate(329,777)" d="m0 0h14l-3 3h-3v2l-8 1-1-3h-4v2l-7-2 1-2z" fill="#6A9DEB"/>
<path transform="translate(830,815)" d="m0 0h11l-1 3-8 2-16 2 4-5z" fill="#CCE2FC"/>
<path transform="translate(843,104)" d="m0 0h1v68h-1l-1-16v-43h-1v-8z" fill="#054B86"/>
<path transform="translate(713,1093)" d="m0 0 10 1 5 2 2 3-2 1-9-1-7-1v-2l-2-1z" fill="#CFE5FD"/>
<path transform="translate(402,807)" d="m0 0 5 1-3 3-16 8-9 5-3-1 4-3 11-7 9-2z" fill="#78BAFA"/>
<path transform="translate(324,651)" d="m0 0h13l16 1v1l-12 1 2 2-3 1h-7v-1l-5-1v-2h-4z" fill="#CFE5FD"/>
<path transform="translate(699,418)" d="m0 0h1v63l-3 3-7 1 1-2 6-3 1-3z" fill="#0976B5"/>
<path transform="translate(861,281)" d="m0 0h8l-1 18h-1v-15l-17 3h-3v-2l-2-1z" fill="#05376A"/>
<path transform="translate(801,729)" d="m0 0 3 4 3 5 6 9 4 4v2h2l5 5 6 5-3 1-13-12-9-12-4-7z" fill="#6A9EEC"/>
<path transform="translate(841,438)" d="m0 0h1v10l22-4 4 1-1 2-22 4h-5z" fill="#053D72"/>
<path transform="translate(1018,400)" d="m0 0 3 1-8 10h-2v2l-7 4h-3l2-4 8-7 4-3z" fill="#5F99E5"/>
<path transform="translate(1086,360)" d="m0 0 2 4 3 1-2 1v12l1 14-5-5v-23z" fill="#064A81"/>
<path transform="translate(517,692)" d="m0 0 4 1 5 11v2l-7-2-2-3-1-7z" fill="#CAE1FC"/>
<path transform="translate(881,393)" d="m0 0h1l1 36 1 10 3 1v2h-6z" fill="#062B59"/>
<path transform="translate(823,288)" d="m0 0 4 1 1 2-22 4-3 1v-4z" fill="#053568"/>
<path transform="translate(555,687)" d="m0 0 1 3h5l-1 7-6-1-4-2 1-5z" fill="#D0E6FD"/>
<path transform="translate(740,288)" d="m0 0h4v36h-1l-1-28-1-4-4-1-3-2z" fill="#086DAB"/>
<path transform="translate(301,774)" d="m0 0h2l1 2h19l25-1v1l-5 1-26 2-17-1z" fill="#065089"/>
<path transform="translate(1012,719)" d="m0 0 2 1-1 5-3 4-5 2v-9z" fill="#6A9DEB"/>
<path transform="translate(571,320)" d="m0 0h5l-3 2-2 7-1 40h-1v-45z" fill="#05467D"/>
<path transform="translate(801,149)" d="m0 0h1l1 17 2 1-1 23-2-1v-13l1-2h-2z" fill="#053E74"/>
<path transform="translate(645,322)" d="m0 0 4 1-1 2-22 4-4 2 1-4 16-4z" fill="#053C71"/>
<path transform="translate(246,615)" d="m0 0 2 1v9l-3 1-1 5-2 1v-13h2v-3z" fill="#CFE4FD"/>
<path transform="translate(608,330)" d="m0 0h4l-1 2-13 3-14 3v-3z" fill="#053C71"/>
<path transform="translate(912,221)" d="m0 0h2v6h2l-1 8-4 1-1-4v-10z" fill="#0786C6"/>
<path transform="translate(659,895)" d="m0 0 1 2 4-2 1 1v5l-1-3h-2l-1 14-3 1v-14z" fill="#07243B"/>
<path transform="translate(255,757)" d="m0 0h10l8 1 1 2-2 1h-13l-4-2z" fill="#CCE2FC"/>
<path transform="translate(1043,716)" d="m0 0 2 2-11 12-1-2 5-5zm-13 14 3 1-11 11-1-3 8-7zm-11 12 2 1-2 1z" fill="#478DD7"/>
<path transform="translate(987,768)" d="m0 0 2 1-3 3h-1l2 10 2 4-2 2-6-12 1-5z" fill="#6099E6"/>
<path transform="translate(669,943)" d="m0 0 6 2v2l5 2 12 5 4 2h-7l-11-5-8-5z" fill="#5F99E5"/>
<path transform="translate(1046,714)" d="m0 0h3v14l-4-3v-3h-3l2-6z" fill="#669CE9"/>
<path transform="translate(243,461)" d="m0 0 10 1 11 3-4 1h-7l1 2-5-2-6-3z" fill="#0C609B"/>
<path transform="translate(232,772)" d="m0 0 6 1 8 1-2 2 2 2-8 1h-5v-3h4v-2l-3 1v-2z" fill="#6A9DEB"/>
<path transform="translate(1049,709)" d="m0 0h1l1 10v18l-1 7h-1v-30l-3-1z" fill="#064F86"/>
<path transform="translate(241,559)" d="m0 0h1v27l-5-1 1-2 2-20z" fill="#6A9DEB"/>
<path transform="translate(252,465)" d="m0 0h8l7 2 1 3-8 1v-2l-7-2z" fill="#358DD2"/>
<path transform="translate(786,93)" d="m0 0h5l-2 3-20 3-1-3z" fill="#053D73"/>
<path transform="translate(970,908)" d="m0 0h2l-1 7h-3l-2 3h-3l-1-5 6-4z" fill="#6A9DEB"/>
<path transform="translate(585,790)" d="m0 0h5l3 3v2l-5 1h-10l2-1v-2h2v-2z" fill="#CDE4FC"/>
<path transform="translate(346,911)" d="m0 0 2 3v11h-3l-2-6v-6z" fill="#D0E6FD"/>
<path transform="translate(685,483)" d="m0 0h3v3l-22 5h-2v-2l10-3 10-2z" fill="#05396D"/>
<path transform="translate(991,795)" d="m0 0h1v6l-8 3-10 4-4-1 9-2 1-4 8-1 1-2v2h2z" fill="#073A64"/>
<path transform="translate(841,230)" d="m0 0h1v17h6l-1 2-9 1 1-2 1-16z" fill="#052E5D"/>
<path transform="translate(901,786)" d="m0 0h24l-2 2-7 1-5 1-9-2z" fill="#CEE1FE"/>
<path transform="translate(681,315)" d="m0 0 4 1-1 2-19 3v-3z" fill="#05396C"/>
<path transform="translate(721,307)" d="m0 0h5v3l-19 3 3-4z" fill="#053365"/>
<path transform="translate(766,838)" d="m0 0 10 1h6l-4 2-21 1-10-1v-1l18-1z" fill="#05437A"/>
<path transform="translate(841,85)" d="m0 0h2v6l1 1v12l-3 1z" fill="#054177"/>
<path transform="translate(610,805)" d="m0 0 7 1 2 2h-5v-2l-2 1 2 3h-12l-2-2z" fill="#6A9DEB"/>
<path transform="translate(832,765)" d="m0 0 5 2 15 7v1l-8-1-12-7z" fill="#6EA6F1"/>
<path transform="translate(1056,735)" d="m0 0h1l1 13v3l-6 4 1-6 2-8z" fill="#C8DEFC"/>
<path transform="translate(72,630)" d="m0 0 2 1v2l4 2v6l-5-1-2-4z" fill="#D0E6FD"/>
<path transform="translate(584,959)" d="m0 0h2l-2 4h-2v2l-8 2 1-5z" fill="#CEE2FD"/>
<path transform="translate(789,458)" d="m0 0h2v4l-10 2h-8l2-2 12-3z" fill="#05376A"/>
<path transform="translate(45,569)" d="m0 0h1v6h2l1 5h2l3 7-5-2-4-9-1-6z" fill="#6A9DEB"/>
<path transform="translate(644,493)" d="m0 0 3 1-2 2-12 3h-7l1-2z" fill="#05386C"/>
<path transform="translate(802,293)" d="m0 0 2 3v11h-1l-1 14h-1v-22z" fill="#054B86"/>
<path transform="translate(932,801)" d="m0 0 4 2 4 1 14 1v1h-18l-8-1v-2z" fill="#C6DEFB"/>
<path transform="translate(1017,744)" d="m0 0 4 2-2 5-6 1-3-2z" fill="#659BE8"/>
<path transform="translate(863,546)" d="m0 0h16v2l-11 1-4 2-2-3z" fill="#CBE2FC"/>
<path transform="translate(92,837)" d="m0 0 2 3v3h2l3 14-2 1-2-3-3-14z" fill="#659BE8"/>
<path transform="translate(511,678)" d="m0 0h4l3 10-5-1-2-6z" fill="#CDE3FC"/>
<path transform="translate(94,632)" d="m0 0h2l3 10 1 4-3 2-2-7z" fill="#D0E6FD"/>
<path transform="translate(705,817)" d="m0 0 9 1 1 3h-10l-5-2v-1z" fill="#CFE5FD"/>
<path transform="translate(428,639)" d="m0 0h3l1 3-3 2-10 1 2-4z" fill="#CAE1FC"/>
<path transform="translate(907,273)" d="m0 0h3l-1 13h-1l-1-10-1 1-11-1v-1z" fill="#054178"/>
<path transform="translate(93,609)" d="m0 0h12v3l-5 2-5-2v-2z" fill="#D0E6FD"/>
<path transform="translate(573,693)" d="m0 0 1 4-5 4v-2l-6 1-1-3 4-1 3 2v-3z" fill="#D0E6FD"/>
<path transform="translate(828,287)" d="m0 0h3v16h-2l-1-12-2-2z" fill="#052D5B"/>
<path transform="translate(907,232)" d="m0 0 3 2v5l-13 1 1-2 8-2z" fill="#054077"/>
<path transform="translate(866,80)" d="m0 0h5l-1 2-2-1v2l-7 2-4-1-3-2z" fill="#05427A"/>
<path transform="translate(567,1130)" d="m0 0h16l2 1v2h-11v-2h-7z" fill="#CCE3FC"/>
<path transform="translate(440,51)" d="m0 0h7l-1 4-14-1 3-2z" fill="#5FADF4"/>
<path transform="translate(850,777)" d="m0 0 8 1 1 3-2 1v2l-5-2z" fill="#CFE5FD"/>
<path transform="translate(765,241)" d="m0 0h1v19l9-1 2 2-7 1-5-1z" fill="#054A84"/>
<path transform="translate(759,841)" d="m0 0h26v1l-19 1-7 1z" fill="#6A9DEB"/>
<path transform="translate(1038,823)" d="m0 0 2 1-16 16-2-1 7-8 8-7z" fill="#063863"/>
<path transform="translate(927,811)" d="m0 0 16 1h6l-3 2-12 1-3-1h-4z" fill="#689CEA"/>
<path transform="translate(669,810)" d="m0 0h6v2l10 2v2l-11-2-5-2z" fill="#C7DEFB"/>
<path transform="translate(374,823)" d="m0 0h5l-1 3-7 5h-2l1-4h2z" fill="#C3DCFB"/>
<path transform="translate(881,429)" d="m0 0h2l1 10 3 1v2h-6z" fill="#052D5C"/>
<path transform="translate(709,855)" d="m0 0h6v3l-2 1h-8l-1-2z" fill="#CFE3FC"/>
<path transform="translate(811,834)" d="m0 0h4v2h12v1l-8 1h-9z" fill="#075189"/>
<path transform="translate(862,810)" d="m0 0 4 2-15 4-3-1 4-3z" fill="#C6DEFB"/>
<path transform="translate(1144,772)" d="m0 0 2 2-5 8-4-1 5-8z" fill="#679BE9"/>
<path transform="translate(592,747)" d="m0 0 5 1 2 4-1 2-4-1-2-3z" fill="#D0E6FD"/>
<path transform="translate(784,673)" d="m0 0 3 1v11l-4-4z" fill="#CFE3FD"/>
<path transform="translate(421,505)" d="m0 0 11 1 3 2-5 1 3 3-5-2-7-4z" fill="#146EAD"/>
<path transform="translate(788,255)" d="m0 0 4 2-4 2-13 1 2-2 10-2z" fill="#053A6E"/>
<path transform="translate(543,1126)" d="m0 0h11l3 3-4 1-9-2z" fill="#C6DEFB"/>
<path transform="translate(875,806)" d="m0 0 3 1-3 2-6 2h-6l3-3z" fill="#CFE4FD"/>
<path transform="translate(552,798)" d="m0 0h13v2l-14 1z" fill="#C9DFFC"/>
<path transform="translate(745,456)" d="m0 0h1v27l-2-1-1-4 1-1z" fill="#0976B5"/>
<path transform="translate(811,454)" d="m0 0h10l-2 2-6 1h-11l2-2z" fill="#053365"/>
<path transform="translate(1028,271)" d="m0 0 7 5 2 3v3h-2l-7-8z" fill="#619AE7"/>
<path transform="translate(404,804)" d="m0 0 11 1-2 2-6 2-4-4z" fill="#649CEA"/>
<path transform="translate(854,543)" d="m0 0 4 1v2l-4 1-1 2h8v1h-9l-1-6z" fill="#073861"/>
<path transform="translate(429,1061)" d="m0 0 4 2 5 3 1 4-9-5v-2l-2-1z" fill="#CEE2FD"/>
<path transform="translate(315,649)" d="m0 0 11 1-4 2v2l-6-1z" fill="#C8DFFC"/>
<path transform="translate(260,472)" d="m0 0h6v3h2v2l2 1-4 1z" fill="#358DD2"/>
<path transform="translate(891,76)" d="m0 0 4 1-1 2-9 2-2 1v-3l3-2z" fill="#053567"/>
<path transform="translate(676,1073)" d="m0 0 15 8-4 1-11-7z" fill="#6EA6F1"/>
<path transform="translate(840,773)" d="m0 0 5 1v4l-3 1-4-2v-2z" fill="#CFE5FD"/>
<path transform="translate(1027,726)" d="m0 0v3l-5 6h-2l1-5 3-3z" fill="#052C5A"/>
<path transform="translate(726,464)" d="m0 0h1l2 11-7 2v-3l3-1z" fill="#053C71"/>
<path transform="translate(1087,375)" d="m0 0 2 3 1 14-3-4z" fill="#053769"/>
<path transform="translate(726,307)" d="m0 0h2v26h-1l-1-23z" fill="#08090D"/>
<path transform="translate(896,798)" d="m0 0m-2 1h2l-1 3-11 4h-2v-2z" fill="#CFE4FD"/>
<path transform="translate(812,588)" d="m0 0h2l1 11-2-1-2 2v-7z" fill="#C8DEFC"/>
<path transform="translate(824,87)" d="m0 0h6l-3 3-6 1v-2h-5v-1z" fill="#053B70"/>
<path transform="translate(629,325)" d="m0 0h6l-2 2-9 3-2 1 1-4z" fill="#053567"/>
<path transform="translate(865,281)" d="m0 0h4l-1 18h-1v-15h-3z" fill="#052D5C"/>
<path transform="translate(402,807)" d="m0 0 5 1-3 3-8 3v-2l4-1z" fill="#6FA6F9"/>
<path transform="translate(817,753)" d="m0 0h2l5 5 6 5-3 1-10-9z" fill="#6CA0F0"/>
<path transform="translate(986,880)" d="m0 0 4 1-1 4h-2v2l-3 1v-6h2z" fill="#6A9DEB"/>
<path transform="translate(823,288)" d="m0 0 4 1 1 2-10 1-1-3z" fill="#053B6F"/>
</svg>
