<svg xmlns="http://www.w3.org/2000/svg" xmlns:xlink="http://www.w3.org/1999/xlink" width="256px" height="256px" viewBox="0 0 256 256" version="1.1">
<style>
#rect {
    fill: #242938;
}

    @media (prefers-color-scheme: light) {
        #rect {
            fill: #F4F2ED;
        }
    }
</style>
<g id="surface1">
<rect id="rect" x="0" y="0" width="256" height="256" rx="60" style="fill-opacity:1;stroke:none;"/>
      <g transform="translate(16, 16)">
<g><path style="opacity:1" fill="#466bb0" d="M 106.5,30.5 C 126.805,75.7812 147.138,121.115 167.5,166.5C 165.667,166.833 163.833,167.167 162,167.5C 143.156,165.54 124.322,163.54 105.5,161.5C 105.168,117.663 105.501,73.9968 106.5,30.5 Z"/></g>
<g><path style="opacity:1" fill="#466bb0" d="M 96.5,86.5 C 97.4977,111.328 97.831,136.328 97.5,161.5C 84.5792,162.917 71.7459,164.917 59,167.5C 58.1667,167.167 57.3333,166.833 56.5,166.5C 69.8466,139.807 83.1799,113.14 96.5,86.5 Z"/></g>
<g><path style="opacity:1" fill="#456ab0" d="M 57.5,176.5 C 93.1667,175.167 128.833,175.167 164.5,176.5C 142.292,182.611 120.292,189.278 98.5,196.5C 84.9031,189.534 71.2364,182.867 57.5,176.5 Z"/></g>
  </g>
  </g>
</svg>
