<svg xmlns="http://www.w3.org/2000/svg" xmlns:xlink="http://www.w3.org/1999/xlink" width="256px" height="256px" viewBox="0 0 256 256" version="1.1">
  <style>
    #rect {
        fill: #242938;
    }

    @media (prefers-color-scheme: light) {
        #rect {
            fill: #F4F2ED;
        }
    }
  </style>
  <g id="surface1">
    <rect id="rect" x="0" y="0" width="256" height="256" rx="60" style="fill-opacity:1;stroke:none;"/>
    <g transform="translate(60, 54)">
<g><path style="opacity:1" fill="#b0bcd8" d="M 112.5,18.5 C 84.1647,18.3334 55.8314,18.5 27.5,19C 26.3333,20.1667 25.1667,21.3333 24,22.5C 23.5,55.165 23.3334,87.8316 23.5,120.5C 17.6079,121.927 13.4412,119.927 11,114.5C 10.3333,79.8333 10.3333,45.1667 11,10.5C 12.5,9 14,7.5 15.5,6C 45.8333,5.33333 76.1667,5.33333 106.5,6C 111.935,8.34457 113.935,12.5112 112.5,18.5 Z"/></g>
<g><path style="opacity:1" fill="#7e91c0" d="M 112.5,18.5 C 112.5,22.5 112.5,26.5 112.5,30.5C 88.4977,30.3334 64.4977,30.5 40.5,31C 38.714,31.7845 37.214,32.9512 36,34.5C 35.5,63.1647 35.3334,91.8314 35.5,120.5C 31.5,120.5 27.5,120.5 23.5,120.5C 23.3334,87.8316 23.5,55.165 24,22.5C 25.1667,21.3333 26.3333,20.1667 27.5,19C 55.8314,18.5 84.1647,18.3334 112.5,18.5 Z"/></g>
<g><path style="opacity:1" fill="#aebad7" d="M 112.5,18.5 C 122.167,16.8333 126.167,20.8333 124.5,30.5C 120.5,30.5 116.5,30.5 112.5,30.5C 112.5,26.5 112.5,22.5 112.5,18.5 Z"/></g>
<g><path style="opacity:1" fill="#38569e" d="M 112.5,30.5 C 116.5,30.5 120.5,30.5 124.5,30.5C 127.617,30.6423 130.117,31.9756 132,34.5C 132.986,69.2517 132.653,103.918 131,138.5C 129.745,139.211 128.579,140.044 127.5,141C 98.5,141.667 69.5,141.667 40.5,141C 37.2882,138.981 35.6216,136.147 35.5,132.5C 35.5,128.5 35.5,124.5 35.5,120.5C 35.3334,91.8314 35.5,63.1647 36,34.5C 37.214,32.9512 38.714,31.7845 40.5,31C 64.4977,30.5 88.4977,30.3334 112.5,30.5 Z"/></g>
<g><path style="opacity:1" fill="#f8f9fc" d="M 97.5,58.5 C 102.844,58.334 108.177,58.5006 113.5,59C 112.619,59.7083 111.953,60.5416 111.5,61.5C 105.118,68.3847 98.4515,75.218 91.5,82C 99.3865,93.6163 107.387,105.116 115.5,116.5C 110.36,117.488 105.026,117.821 99.5,117.5C 93.7545,109.019 87.7545,100.686 81.5,92.5C 79.1831,94.316 77.0165,96.316 75,98.5C 74.5004,105.158 74.3337,111.825 74.5,118.5C 69.8333,118.5 65.1667,118.5 60.5,118.5C 60.5,98.5 60.5,78.5 60.5,58.5C 65.1667,58.5 69.8333,58.5 74.5,58.5C 74.3336,66.1739 74.5003,73.8406 75,81.5C 82.7572,73.9114 90.2572,66.2448 97.5,58.5 Z"/></g>
<g><path style="opacity:1" fill="#aebad7" d="M 23.5,120.5 C 27.5,120.5 31.5,120.5 35.5,120.5C 35.5,124.5 35.5,128.5 35.5,132.5C 26.5,133.5 22.5,129.5 23.5,120.5 Z"/></g>
      </g>
    </g>
</svg>
