<svg xmlns="http://www.w3.org/2000/svg" xmlns:xlink="http://www.w3.org/1999/xlink" width="256px" height="256px" viewBox="0 0 256 256" version="1.1">
  <style>
    #rect {
        fill: #242938;
    }

    @media (prefers-color-scheme: light) {
        #rect {
            fill: #F4F2ED;
        }
    }
  </style>
  <g id="surface1">
    <rect id="rect" x="0" y="0" width="256" height="256" rx="60" style="fill-opacity:1;stroke:none;"/>
<g><path style="opacity:1" fill="#2ae7a4" d="M 215.5,73.5 C 211.94,77.2913 207.94,80.6246 203.5,83.5C 200.518,85.4742 197.518,87.4742 194.5,89.5C 197.357,91.7583 200.357,93.7583 203.5,95.5C 207.462,98.4884 211.462,101.488 215.5,104.5C 215.5,106.167 215.5,107.833 215.5,109.5C 213.143,109.337 210.81,109.503 208.5,110C 207.347,111.883 205.681,112.716 203.5,112.5C 170.558,90.02 137.558,67.52 104.5,45C 100.941,42.3937 97.6074,39.5604 94.5,36.5C 97.5294,33.2331 101.029,30.5665 105,28.5C 112.606,33.05 120.106,37.7166 127.5,42.5C 134.894,37.7166 142.394,33.05 150,28.5C 153.971,30.5665 157.471,33.2331 160.5,36.5C 154.286,42.2093 147.62,47.376 140.5,52C 145.073,55.5752 149.907,58.7419 155,61.5C 161.57,57.1291 168.07,52.6291 174.5,48C 175.833,47.3333 177.167,47.3333 178.5,48C 181.418,49.7088 184.252,51.5421 187,53.5C 187.667,54.5 187.667,55.5 187,56.5C 180.411,61.2115 173.911,66.0448 167.5,71C 172.03,74.3623 176.697,77.5289 181.5,80.5C 189.258,75.8721 196.758,70.8721 204,65.5C 207.989,67.9971 211.823,70.6638 215.5,73.5 Z"/></g>
<g><path style="opacity:1" fill="#2ae7a4" d="M 188.5,123.5 C 188.5,125.167 188.5,126.833 188.5,128.5C 186.589,128.426 185.422,127.426 185,125.5C 182.561,127.629 180.061,129.629 177.5,131.5C 177.167,131.5 176.833,131.5 176.5,131.5C 139.956,107.136 103.79,82.1359 68,56.5C 67.3162,55.2161 67.4829,54.0495 68.5,53C 71.601,51.0335 74.7676,49.2002 78,47.5C 115.276,72.291 152.11,97.6244 188.5,123.5 Z"/></g>
<g><path style="opacity:1" fill="#2ae8a5" d="M 161.5,142.5 C 161.5,146.167 161.5,149.833 161.5,153.5C 157.661,152.505 153.994,152.505 150.5,153.5C 150.672,152.508 150.338,151.842 149.5,151.5C 142.54,146.015 135.207,141.015 127.5,136.5C 122.354,138.911 117.687,142.077 113.5,146C 125.046,154.387 136.713,162.553 148.5,170.5C 149.804,176.266 149.804,181.933 148.5,187.5C 133.994,178.081 119.661,168.414 105.5,158.5C 105.5,158.167 105.5,157.833 105.5,157.5C 106.106,152.258 103.939,148.591 99,146.5C 97.2379,147.074 95.4046,147.407 93.5,147.5C 93.5,145.833 93.5,144.167 93.5,142.5C 100.317,137.197 107.317,132.03 114.5,127C 109.927,123.425 105.093,120.258 100,117.5C 92.8785,122.306 85.7118,126.973 78.5,131.5C 75.492,130.58 72.6587,129.246 70,127.5C 68.9887,128.337 67.8221,128.67 66.5,128.5C 66.5,126.833 66.5,125.167 66.5,123.5C 73.4323,118.354 80.4323,113.188 87.5,108C 82.9702,104.638 78.3035,101.471 73.5,98.5C 66.1103,103.188 58.7769,107.855 51.5,112.5C 49.2166,112.392 47.2166,111.559 45.5,110C 43.1902,109.503 40.8568,109.337 38.5,109.5C 38.5,107.833 38.5,106.167 38.5,104.5C 42.772,102.226 46.772,99.5589 50.5,96.5C 53.7915,94.5419 56.7915,92.2085 59.5,89.5C 57.1997,87.016 54.5331,85.016 51.5,83.5C 48.2463,80.5285 44.5796,78.0285 40.5,76C 39.7476,75.3292 39.4142,74.4959 39.5,73.5C 43.1541,70.6964 46.9875,68.0297 51,65.5C 88.0126,91.0297 124.846,116.696 161.5,142.5 Z"/></g>
<g><path style="opacity:1" fill="#052445" d="M 51.5,83.5 C 54.5331,85.016 57.1997,87.016 59.5,89.5C 56.7915,92.2085 53.7915,94.5419 50.5,96.5C 50.1818,91.9677 50.5151,87.6344 51.5,83.5 Z"/></g>
<g><path style="opacity:1" fill="#021a3e" d="M 203.5,83.5 C 203.5,87.5 203.5,91.5 203.5,95.5C 200.357,93.7583 197.357,91.7583 194.5,89.5C 197.518,87.4742 200.518,85.4742 203.5,83.5 Z"/></g>
<g><path style="opacity:1" fill="#20d1be" d="M 39.5,73.5 C 39.4142,74.4959 39.7476,75.3292 40.5,76C 44.5796,78.0285 48.2463,80.5285 51.5,83.5C 50.5151,87.6344 50.1818,91.9677 50.5,96.5C 46.772,99.5589 42.772,102.226 38.5,104.5C 38.1724,93.9865 38.5058,83.6532 39.5,73.5 Z"/></g>
<g><path style="opacity:1" fill="#20d3bb" d="M 215.5,73.5 C 216.479,76.6248 216.813,79.9581 216.5,83.5C 215.521,86.6248 215.187,89.9581 215.5,93.5C 211.988,92.2744 208.821,92.2744 206,93.5C 204.916,90.1656 204.082,86.8323 203.5,83.5C 207.94,80.6246 211.94,77.2913 215.5,73.5 Z"/></g>
<g><path style="opacity:1" fill="#1bbdba" d="M 203.5,83.5 C 204.082,86.8323 204.916,90.1656 206,93.5C 208.821,92.2744 211.988,92.2744 215.5,93.5C 215.187,89.9581 215.521,86.6248 216.5,83.5C 216.5,90.5 216.5,97.5 216.5,104.5C 216.167,104.5 215.833,104.5 215.5,104.5C 211.462,101.488 207.462,98.4884 203.5,95.5C 203.5,91.5 203.5,87.5 203.5,83.5 Z"/></g>
<g><path style="opacity:1" fill="#25dfaf" d="M 215.5,104.5 C 215.833,104.5 216.167,104.5 216.5,104.5C 216.5,107.833 216.5,111.167 216.5,114.5C 215.539,116.265 215.205,118.265 215.5,120.5C 211.833,120.5 208.167,120.5 204.5,120.5C 204.802,117.941 204.468,115.607 203.5,113.5C 203.5,113.167 203.5,112.833 203.5,112.5C 205.681,112.716 207.347,111.883 208.5,110C 210.81,109.503 213.143,109.337 215.5,109.5C 215.5,107.833 215.5,106.167 215.5,104.5 Z"/></g>
<g><path style="opacity:1" fill="#24ddb4" d="M 38.5,109.5 C 40.8568,109.337 43.1902,109.503 45.5,110C 47.2166,111.559 49.2166,112.392 51.5,112.5C 50.5701,116.4 50.2367,120.4 50.5,124.5C 46.5,124.5 42.5,124.5 38.5,124.5C 38.5,119.5 38.5,114.5 38.5,109.5 Z"/></g>
<g><path style="opacity:1" fill="#20d2bb" d="M 216.5,114.5 C 216.5,118.167 216.5,121.833 216.5,125.5C 215.549,126.919 215.216,128.585 215.5,130.5C 211.833,130.5 208.167,130.5 204.5,130.5C 204.5,127.167 204.5,123.833 204.5,120.5C 208.167,120.5 211.833,120.5 215.5,120.5C 215.205,118.265 215.539,116.265 216.5,114.5 Z"/></g>
<g><path style="opacity:1" fill="#1dcdc2" d="M 38.5,124.5 C 42.5,124.5 46.5,124.5 50.5,124.5C 50.5,128.167 50.5,131.833 50.5,135.5C 46.5,135.5 42.5,135.5 38.5,135.5C 38.5,131.833 38.5,128.167 38.5,124.5 Z"/></g>
<g><path style="opacity:1" fill="#26e0af" d="M 188.5,128.5 C 188.5,132.167 188.5,135.833 188.5,139.5C 185.091,138.884 181.424,138.884 177.5,139.5C 177.5,136.833 177.5,134.167 177.5,131.5C 180.061,129.629 182.561,127.629 185,125.5C 185.422,127.426 186.589,128.426 188.5,128.5 Z"/></g>
<g><path style="opacity:1" fill="#1ac5c6" d="M 216.5,125.5 C 216.5,129.833 216.5,134.167 216.5,138.5C 214.26,139.973 211.76,140.973 209,141.5C 207.586,140.587 206.086,140.587 204.5,141.5C 204.5,137.833 204.5,134.167 204.5,130.5C 208.167,130.5 211.833,130.5 215.5,130.5C 215.216,128.585 215.549,126.919 216.5,125.5 Z"/></g>
<g><path style="opacity:1" fill="#00163c" d="M 149.5,151.5 C 149.823,158.022 149.49,164.355 148.5,170.5C 136.713,162.553 125.046,154.387 113.5,146C 117.687,142.077 122.354,138.911 127.5,136.5C 135.207,141.015 142.54,146.015 149.5,151.5 Z"/></g>
<g><path style="opacity:1" fill="#18c0cd" d="M 38.5,135.5 C 42.5,135.5 46.5,135.5 50.5,135.5C 50.5,138.833 50.5,142.167 50.5,145.5C 46.3834,145.253 42.3834,145.586 38.5,146.5C 38.5,142.833 38.5,139.167 38.5,135.5 Z"/></g>
<g><path style="opacity:1" fill="#23d9b8" d="M 78.5,131.5 C 78.5,131.833 78.5,132.167 78.5,132.5C 77.5139,136.97 77.1805,141.637 77.5,146.5C 75.9139,145.587 74.4139,145.587 73,146.5C 71.6914,144.109 70.6914,144.109 70,146.5C 69.1475,144.875 68.1475,144.542 67,145.5C 66.5006,139.843 66.3339,134.176 66.5,128.5C 67.8221,128.67 68.9887,128.337 70,127.5C 72.6587,129.246 75.492,130.58 78.5,131.5 Z"/></g>
<g><path style="opacity:1" fill="#15b8d1" d="M 216.5,138.5 C 216.5,142.5 216.5,146.5 216.5,150.5C 212.617,150.863 208.617,150.863 204.5,150.5C 204.5,147.5 204.5,144.5 204.5,141.5C 206.086,140.587 207.586,140.587 209,141.5C 211.76,140.973 214.26,139.973 216.5,138.5 Z"/></g>
<g><path style="opacity:1" fill="#1cc8c1" d="M 66.5,123.5 C 66.5,125.167 66.5,126.833 66.5,128.5C 66.3339,134.176 66.5006,139.843 67,145.5C 68.1475,144.542 69.1475,144.875 70,146.5C 70.6914,144.109 71.6914,144.109 73,146.5C 74.4139,145.587 75.9139,145.587 77.5,146.5C 77.5,150.833 77.5,155.167 77.5,159.5C 74.3307,158.512 70.9974,158.512 67.5,159.5C 66.8331,155.018 66.1664,150.684 65.5,146.5C 65.1746,138.648 65.508,130.982 66.5,123.5 Z"/></g>
<g><path style="opacity:1" fill="#26e1b1" d="M 105.5,157.5 C 101.536,157.429 97.5356,157.763 93.5,158.5C 93.5,154.833 93.5,151.167 93.5,147.5C 95.4046,147.407 97.2379,147.074 99,146.5C 103.939,148.591 106.106,152.258 105.5,157.5 Z"/></g>
<g><path style="opacity:1" fill="#12b2d9" d="M 50.5,145.5 C 50.5,150.167 50.5,154.833 50.5,159.5C 46.5,159.5 42.5,159.5 38.5,159.5C 38.5,155.167 38.5,150.833 38.5,146.5C 42.3834,145.586 46.3834,145.253 50.5,145.5 Z"/></g>
<g><path style="opacity:1" fill="#00153b" d="M 105.5,158.5 C 119.661,168.414 133.994,178.081 148.5,187.5C 148.5,188.167 148.833,188.5 149.5,188.5C 149.5,195.167 149.5,201.833 149.5,208.5C 134.994,199.081 120.661,189.414 106.5,179.5C 105.538,172.588 105.205,165.588 105.5,158.5 Z"/></g>
<g><path style="opacity:1" fill="#10aadb" d="M 204.5,150.5 C 208.617,150.863 212.617,150.863 216.5,150.5C 216.5,154.5 216.5,158.5 216.5,162.5C 212.6,161.57 208.6,161.237 204.5,161.5C 204.5,157.833 204.5,154.167 204.5,150.5 Z"/></g>
<g><path style="opacity:1" fill="#19b3bb" d="M 188.5,123.5 C 189.495,134.988 189.828,146.655 189.5,158.5C 188.539,160.265 188.205,162.265 188.5,164.5C 184.833,164.5 181.167,164.5 177.5,164.5C 177.167,164.5 176.833,164.5 176.5,164.5C 176.5,153.5 176.5,142.5 176.5,131.5C 176.833,131.5 177.167,131.5 177.5,131.5C 177.5,134.167 177.5,136.833 177.5,139.5C 177.095,143.048 177.595,146.381 179,149.5C 181.821,148.49 184.988,148.49 188.5,149.5C 188.5,146.167 188.5,142.833 188.5,139.5C 188.5,135.833 188.5,132.167 188.5,128.5C 188.5,126.833 188.5,125.167 188.5,123.5 Z"/></g>
<g><path style="opacity:1" fill="#20d4bc" d="M 188.5,139.5 C 188.5,142.833 188.5,146.167 188.5,149.5C 184.988,148.49 181.821,148.49 179,149.5C 177.595,146.381 177.095,143.048 177.5,139.5C 181.424,138.884 185.091,138.884 188.5,139.5 Z"/></g>
<g><path style="opacity:1" fill="#1ec8b7" d="M 93.5,142.5 C 93.5,144.167 93.5,145.833 93.5,147.5C 93.5,151.167 93.5,154.833 93.5,158.5C 97.5356,157.763 101.536,157.429 105.5,157.5C 105.5,157.833 105.5,158.167 105.5,158.5C 104.673,163.651 104.173,168.984 104,174.5C 100.606,173.544 97.1064,173.211 93.5,173.5C 93.8016,170.941 93.4682,168.607 92.5,166.5C 92.1743,158.316 92.5076,150.316 93.5,142.5 Z"/></g>
<g><path style="opacity:1" fill="#0d8ecb" d="M 203.5,113.5 C 204.468,115.607 204.802,117.941 204.5,120.5C 204.5,123.833 204.5,127.167 204.5,130.5C 204.5,134.167 204.5,137.833 204.5,141.5C 204.5,144.5 204.5,147.5 204.5,150.5C 204.5,154.167 204.5,157.833 204.5,161.5C 208.6,161.237 212.6,161.57 216.5,162.5C 216.5,164.5 216.5,166.5 216.5,168.5C 215.596,169.209 215.263,170.209 215.5,171.5C 211.833,170.167 208.167,170.167 204.5,171.5C 204.5,176.167 204.5,180.833 204.5,185.5C 203.502,161.672 203.169,137.672 203.5,113.5 Z"/></g>
<g><path style="opacity:1" fill="#21d4bc" d="M 161.5,153.5 C 161.5,158.5 161.5,163.5 161.5,168.5C 157.833,168.5 154.167,168.5 150.5,168.5C 150.5,163.5 150.5,158.5 150.5,153.5C 153.994,152.505 157.661,152.505 161.5,153.5 Z"/></g>
<g><path style="opacity:1" fill="#0ba1e8" d="M 38.5,159.5 C 42.5,159.5 46.5,159.5 50.5,159.5C 50.5,163.5 50.5,167.5 50.5,171.5C 46.5,171.5 42.5,171.5 38.5,171.5C 38.5,167.5 38.5,163.5 38.5,159.5 Z"/></g>
<g><path style="opacity:1" fill="#15b4d1" d="M 65.5,146.5 C 66.1664,150.684 66.8331,155.018 67.5,159.5C 70.9974,158.512 74.3307,158.512 77.5,159.5C 77.5,163.833 77.5,168.167 77.5,172.5C 73.3998,172.237 69.3998,172.57 65.5,173.5C 65.5,164.5 65.5,155.5 65.5,146.5 Z"/></g>
<g><path style="opacity:1" fill="#1ac4c8" d="M 149.5,151.5 C 150.338,151.842 150.672,152.508 150.5,153.5C 150.5,158.5 150.5,163.5 150.5,168.5C 154.167,168.5 157.833,168.5 161.5,168.5C 161.5,173.833 161.5,179.167 161.5,184.5C 158.009,183.512 154.343,183.512 150.5,184.5C 150.5,185.833 150.5,187.167 150.5,188.5C 150.167,188.5 149.833,188.5 149.5,188.5C 148.833,188.5 148.5,188.167 148.5,187.5C 149.804,181.933 149.804,176.266 148.5,170.5C 149.49,164.355 149.823,158.022 149.5,151.5 Z"/></g>
<g><path style="opacity:1" fill="#0590f1" d="M 38.5,171.5 C 42.5,171.5 46.5,171.5 50.5,171.5C 50.5,176.5 50.5,181.5 50.5,186.5C 46.3845,185.26 42.5512,183.26 39,180.5C 38.502,177.518 38.3354,174.518 38.5,171.5 Z"/></g>
<g><path style="opacity:1" fill="#0691f0" d="M 216.5,168.5 C 216.666,172.514 216.499,176.514 216,180.5C 213.252,182.458 210.418,184.291 207.5,186C 206.251,186.74 205.251,186.573 204.5,185.5C 204.5,180.833 204.5,176.167 204.5,171.5C 208.167,170.167 211.833,170.167 215.5,171.5C 215.263,170.209 215.596,169.209 216.5,168.5 Z"/></g>
<g><path style="opacity:1" fill="#2ae8a4" d="M 106.5,179.5 C 120.661,189.414 134.994,199.081 149.5,208.5C 149.5,214.167 149.5,219.833 149.5,225.5C 142.223,220.855 134.89,216.188 127.5,211.5C 120.11,216.188 112.777,220.855 105.5,225.5C 105.5,219.833 105.5,214.167 105.5,208.5C 108.482,206.526 111.482,204.526 114.5,202.5C 112.122,200.122 109.455,198.122 106.5,196.5C 106.5,195.833 106.167,195.5 105.5,195.5C 105.179,189.974 105.512,184.64 106.5,179.5 Z"/></g>
<g><path style="opacity:1" fill="#18bfcb" d="M 105.5,158.5 C 105.205,165.588 105.538,172.588 106.5,179.5C 105.512,184.64 105.179,189.974 105.5,195.5C 105.167,195.5 104.833,195.5 104.5,195.5C 104.823,191.774 104.489,188.107 103.5,184.5C 100.348,184.288 97.0147,184.288 93.5,184.5C 93.5,180.833 93.5,177.167 93.5,173.5C 97.1064,173.211 100.606,173.544 104,174.5C 104.173,168.984 104.673,163.651 105.5,158.5 Z"/></g>
<g><path style="opacity:1" fill="#0e94ce" d="M 78.5,132.5 C 78.8309,156.672 78.4976,180.672 77.5,204.5C 77.5,199.833 77.5,195.167 77.5,190.5C 73.8333,189.167 70.1667,189.167 66.5,190.5C 66.7373,189.209 66.404,188.209 65.5,187.5C 65.5,182.833 65.5,178.167 65.5,173.5C 69.3998,172.57 73.3998,172.237 77.5,172.5C 77.5,168.167 77.5,163.833 77.5,159.5C 77.5,155.167 77.5,150.833 77.5,146.5C 77.1805,141.637 77.5139,136.97 78.5,132.5 Z"/></g>
<g><path style="opacity:1" fill="#098cdd" d="M 189.5,158.5 C 189.667,171.837 189.5,185.171 189,198.5C 185.689,202.491 181.689,204.491 177,204.5C 176.5,191.171 176.333,177.837 176.5,164.5C 176.833,164.5 177.167,164.5 177.5,164.5C 177.5,171.5 177.5,178.5 177.5,185.5C 181.167,185.5 184.833,185.5 188.5,185.5C 188.5,178.5 188.5,171.5 188.5,164.5C 188.205,162.265 188.539,160.265 189.5,158.5 Z"/></g>
<g><path style="opacity:1" fill="#11addd" d="M 177.5,164.5 C 181.167,164.5 184.833,164.5 188.5,164.5C 188.5,171.5 188.5,178.5 188.5,185.5C 184.833,185.5 181.167,185.5 177.5,185.5C 177.5,178.5 177.5,171.5 177.5,164.5 Z"/></g>
<g><path style="opacity:1" fill="#12aed6" d="M 92.5,166.5 C 93.4682,168.607 93.8016,170.941 93.5,173.5C 93.5,177.167 93.5,180.833 93.5,184.5C 97.0147,184.288 100.348,184.288 103.5,184.5C 104.489,188.107 104.823,191.774 104.5,195.5C 104.5,197.167 104.5,198.833 104.5,200.5C 100.874,200.208 97.2078,200.208 93.5,200.5C 93.8168,196.298 93.4834,192.298 92.5,188.5C 92.5,181.167 92.5,173.833 92.5,166.5 Z"/></g>
<g><path style="opacity:1" fill="#12b0db" d="M 161.5,184.5 C 161.5,189.167 161.5,193.833 161.5,198.5C 157.982,197.895 154.315,197.895 150.5,198.5C 150.5,195.167 150.5,191.833 150.5,188.5C 150.5,187.167 150.5,185.833 150.5,184.5C 154.343,183.512 158.009,183.512 161.5,184.5 Z"/></g>
<g><path style="opacity:1" fill="#0691f0" d="M 65.5,187.5 C 66.404,188.209 66.7373,189.209 66.5,190.5C 70.1667,189.167 73.8333,189.167 77.5,190.5C 77.5,195.167 77.5,199.833 77.5,204.5C 75.9106,205.621 74.2439,205.454 72.5,204C 65.9732,200.448 63.6399,194.948 65.5,187.5 Z"/></g>
<g><path style="opacity:1" fill="#021b3e" d="M 106.5,196.5 C 109.455,198.122 112.122,200.122 114.5,202.5C 111.482,204.526 108.482,206.526 105.5,208.5C 105.183,204.298 105.517,200.298 106.5,196.5 Z"/></g>
<g><path style="opacity:1" fill="#1091c3" d="M 161.5,142.5 C 162.833,167.5 162.833,192.5 161.5,217.5C 161.5,213.5 161.5,209.5 161.5,205.5C 157.833,205.5 154.167,205.5 150.5,205.5C 150.5,212.167 150.5,218.833 150.5,225.5C 150.167,225.5 149.833,225.5 149.5,225.5C 149.5,219.833 149.5,214.167 149.5,208.5C 149.5,201.833 149.5,195.167 149.5,188.5C 149.833,188.5 150.167,188.5 150.5,188.5C 150.5,191.833 150.5,195.167 150.5,198.5C 154.315,197.895 157.982,197.895 161.5,198.5C 161.5,193.833 161.5,189.167 161.5,184.5C 161.5,179.167 161.5,173.833 161.5,168.5C 161.5,163.5 161.5,158.5 161.5,153.5C 161.5,149.833 161.5,146.167 161.5,142.5 Z"/></g>
<g><path style="opacity:1" fill="#0c98d8" d="M 92.5,188.5 C 93.4834,192.298 93.8168,196.298 93.5,200.5C 97.2078,200.208 100.874,200.208 104.5,200.5C 104.5,198.833 104.5,197.167 104.5,195.5C 104.833,195.5 105.167,195.5 105.5,195.5C 106.167,195.5 106.5,195.833 106.5,196.5C 105.517,200.298 105.183,204.298 105.5,208.5C 105.5,214.167 105.5,219.833 105.5,225.5C 105.167,226.833 104.833,226.833 104.5,225.5C 104.5,220.5 104.5,215.5 104.5,210.5C 100.833,210.5 97.1667,210.5 93.5,210.5C 93.5,212.833 93.5,215.167 93.5,217.5C 92.5062,208.014 92.1729,198.348 92.5,188.5 Z"/></g>
<g><path style="opacity:1" fill="#0897ee" d="M 161.5,217.5 C 158.048,220.399 154.382,223.066 150.5,225.5C 150.5,218.833 150.5,212.167 150.5,205.5C 154.167,205.5 157.833,205.5 161.5,205.5C 161.5,209.5 161.5,213.5 161.5,217.5 Z"/></g>
<g><path style="opacity:1" fill="#0691f0" d="M 104.5,225.5 C 100.264,223.555 96.5971,220.888 93.5,217.5C 93.5,215.167 93.5,212.833 93.5,210.5C 97.1667,210.5 100.833,210.5 104.5,210.5C 104.5,215.5 104.5,220.5 104.5,225.5 Z"/></g>
    </g>
</svg>
