<svg xmlns="http://www.w3.org/2000/svg" xmlns:xlink="http://www.w3.org/1999/xlink" width="256px" height="256px" viewBox="0 0 256 256" version="1.1">
<style>
#rect {
    fill: #242938;
}

    @media (prefers-color-scheme: light) {
        #rect {
            fill: #F4F2ED;
        }
    }
</style>
<g id="surface1">
<rect id="rect" x="0" y="0" width="256" height="256" rx="60" style="fill-opacity:1;stroke:none;"/>
<path style=" stroke:none;fill-rule:nonzero;fill:rgb(0.784314%,65.882353%,93.333333%);fill-opacity:1;" d="M 62.199219 47 L 63.199219 47.199219 L 67.601562 49.601562 L 72.398438 52.398438 L 77.601562 55.398438 L 82.398438 58.199219 L 108.398438 73.199219 L 113.199219 76 L 128.800781 85 L 132 87 L 132 235.199219 L 131 235 L 125.601562 232 L 121.601562 229.601562 L 69.601562 199.601562 L 66.199219 197.601562 L 62.199219 195.199219 Z M 62.199219 47 "/>
<path style=" stroke:none;fill-rule:nonzero;fill:rgb(0.784314%,65.882353%,93.333333%);fill-opacity:1;" d="M 90.800781 20.601562 L 94 22.199219 L 99.398438 25.398438 L 110.601562 31.800781 L 115.398438 34.601562 L 126.601562 41 L 131.398438 43.800781 L 137 47 L 141.800781 49.800781 L 147.398438 53 L 157.800781 59 L 163.398438 62.199219 L 167.800781 64.800781 L 171.199219 67.199219 L 173.398438 69 L 175.800781 71.199219 L 180 75.398438 L 182.199219 78.199219 L 184 80.601562 L 186.601562 84.601562 L 188.800781 88.398438 L 191 93.398438 L 192.601562 98.398438 L 193.601562 103.398438 L 193.800781 105.601562 L 193.800781 175.199219 L 193.398438 178.398438 L 192.398438 181.601562 L 191 184.199219 L 189 186.601562 L 186.398438 188.199219 L 184.199219 189 L 182.601562 189.398438 L 177 189.398438 L 173.398438 188.601562 L 169.800781 187.199219 L 165.398438 185 L 162 183 L 156.398438 179.800781 L 151.601562 177 L 146.398438 174 L 142.601562 171.800781 L 142.199219 171.398438 L 142 101.398438 L 141.800781 80.601562 L 136.199219 77.398438 L 120.601562 68.398438 L 115.800781 65.601562 L 110.601562 62.601562 L 105.800781 59.800781 L 100.199219 56.601562 L 95.398438 53.800781 L 92 51.800781 L 90.601562 50.800781 L 90.601562 20.800781 Z M 90.800781 20.601562 "/>
</g>
</svg>
