<svg xmlns="http://www.w3.org/2000/svg" xmlns:xlink="http://www.w3.org/1999/xlink" width="256px" height="256px" viewBox="0 0 256 256" version="1.1">
<g id="surface1">
<path style=" stroke:none;fill-rule:nonzero;fill:rgb(14.117648%,16.470589%,21.568628%);fill-opacity:1;" d="M 57.25 0 L 198.5 0 L 206.25 1.5 L 211.75 3 L 217.25 5 L 222 7.25 L 225.5 9.25 L 230.25 12.5 L 233.5 15.25 L 235.5 17 L 238 19.25 L 239.75 21.25 L 243 25 L 246 29.5 L 248.25 33.25 L 251.25 39.5 L 253 44.5 L 254.5 49.75 L 256 58 L 256 198 L 254.25 207 L 252.5 213.25 L 250 219.25 L 247.25 224.5 L 245.5 227.25 L 243 230.75 L 241 233.25 L 238 236.5 L 234.5 240 L 231.75 242.25 L 228 245 L 223.5 247.75 L 219.25 250 L 213 252.5 L 207 254.25 L 198 256 L 58 256 L 49 254.25 L 42.75 252.5 L 36.75 250 L 31 247 L 27.25 244.5 L 24.25 242.25 L 20.75 239.25 L 15.75 234.25 L 13.5 231.5 L 10.25 227 L 7.5 222.25 L 5.5 218.25 L 3.5 213.25 L 2 208.5 L 0.5 201.25 L 0 198.5 L 0 57 L 1.25 50.75 L 2.5 45.75 L 4.25 40.5 L 7 34.5 L 9.75 29.75 L 11.75 26.75 L 14.25 23.5 L 17 20.5 L 18.75 18.5 L 22.5 15 L 26.75 11.75 L 30.5 9.25 L 35 6.75 L 39.25 4.75 L 44 3 L 50.5 1.25 Z M 57.25 0 "/>
<path style=" stroke:none;fill-rule:nonzero;fill:rgb(0%,46.27451%,83.137256%);fill-opacity:1;" d="M 145.75 130.5 L 169.25 130.5 L 190 130.75 L 197.75 131 L 198 131.25 L 198 227.75 L 197.5 228 L 130 228 L 130 131 L 130.25 130.75 Z M 145.75 130.5 "/>
<path style=" stroke:none;fill-rule:nonzero;fill:rgb(0%,46.27451%,83.137256%);fill-opacity:1;" d="M 63 130.75 L 119 130.75 L 125.5 131 L 125.75 131.25 L 125.75 227.75 L 125.5 228 L 57.75 228 L 57.5 183 L 57.5 152.5 L 57.75 131 Z M 63 130.75 "/>
<path style=" stroke:none;fill-rule:nonzero;fill:rgb(0%,46.27451%,83.137256%);fill-opacity:1;" d="M 130.5 27.75 L 152 27.75 L 198 28 L 198.25 28.25 L 198.25 104.25 L 198 124.5 L 196.5 124.75 L 134.75 124.75 L 130 124.5 L 130 28 Z M 130.5 27.75 "/>
<path style=" stroke:none;fill-rule:nonzero;fill:rgb(0%,46.27451%,83.137256%);fill-opacity:1;" d="M 63.75 27.75 L 82.25 27.75 L 125.5 28 L 125.75 59.25 L 125.75 124.5 L 125.5 124.75 L 61.25 124.75 L 57.75 124.5 L 57.5 91.75 L 57.5 67 L 57.75 28 Z M 63.75 27.75 "/>
</g>
</svg>
